SplineFontDB: 3.2
FontName: Caladea-Math
FullName: Caladea Math
FamilyName: Caladea Math
Weight: Normal
Copyright: Copyright (C) 2007-2019 Apostolos Syropoulos. \nCopyright (C) 2000 Young Ryu.\nCopyright (C) 1997, 1999 Claudio Beccari.
Version: 000.958
ItalicAngle: 0
UnderlinePosition: -374.784
UnderlineWidth: 237.568
Ascent: 1593
Descent: 455
InvalidEm: 0
sfntRevision: 0x0000ee98
LayerCount: 2
Layer: 0 0 "Back" 1
Layer: 1 0 "Fore" 0
XUID: [1021 282 2012869056 14221565]
StyleMap: 0x0040
FSType: 0
OS2Version: 4
OS2_WeightWidthSlopeOnly: 0
OS2_UseTypoMetrics: 0
CreationTime: 1170332756
ModificationTime: 1719091510
PfmFamily: 17
TTFWeight: 400
TTFWidth: 5
LineGap: 723
VLineGap: 0
Panose: 2 4 5 3 5 4 6 3 2 4
OS2TypoAscent: 3262
OS2TypoAOffset: 0
OS2TypoDescent: -932
OS2TypoDOffset: 0
OS2TypoLinegap: 723
OS2WinAscent: 13072
OS2WinAOffset: 0
OS2WinDescent: 10332
OS2WinDOffset: 0
HheadAscent: 3267
HheadAOffset: 0
HheadDescent: -932
HheadDOffset: 0
OS2SubXSize: 2937
OS2SubYSize: 2726
OS2SubXOff: 0
OS2SubYOff: 319
OS2SupXSize: 2937
OS2SupYSize: 2726
OS2SupXOff: 0
OS2SupYOff: 1030
OS2StrikeYSize: 209
OS2StrikeYPos: 1044
OS2CapHeight: 2796
OS2XHeight: 1958
OS2FamilyClass: 527
OS2Vendor: 'PfEd'
OS2CodePages: 60000009.00000000
OS2UnicodeRanges: 800000e7.0201e1ff.06001000.00000000
Lookup: 1 0 0 "'onum' Oldstyle Figures lookup 0" { "'onum' Oldstyle Figures lookup 0 subtable" ("oldstyle") } ['onum' ('DFLT' <'dflt' > 'cher' <'dflt' > 'grek' <'dflt' > 'latn' <'dflt' > 'math' <'dflt' > ) ]
Lookup: 1 0 0 "'salt' Stylistic Alternatives lookup 1" { "'salt' Stylistic Alternatives lookup 1 subtable"  } ['salt' ('DFLT' <'dflt' > 'cher' <'dflt' > 'grek' <'dflt' > 'latn' <'dflt' > ) ]
Lookup: 1 0 0 "'dtls' Dotless Forms lookup 2" { "'dtls' Dotless Forms lookup 2 subtable"  } ['dtls' ('latn' <'dflt' > 'math' <'dflt' > ) ]

StartChar: .notdef
Encoding: 1114112 -1 0
Width: 1075
GlyphClass: 1
Flags: HMW
HStem: 0 88<131 895 178 895 178 911> 125 178<473 519 473 520> 961 43G<303 303> 1098 102<486 522> 1268 88<178 895 178 178>
VStem: 90 88<88 1268 88 1284 88 1315> 410 176<193 238> 420 66<502 531 494 594> 655 143<919 979> 895 88<88 1268 1268 1268>
LayerCount: 2
Fore
SplineSet
420 524 m 0xfdc0
 420 663 655 772 655 930 c 0
 655 1028 578 1098 467 1098 c 0
 397 1098 350 1075 334 1034 c 2
 303 961 l 1
 258 973 l 1
 315 1145 l 1
 397 1186 452 1200 520 1200 c 0
 678 1200 799 1096 799 963 c 0
 799 875 762 815 631 696 c 0
 506 583 485 557 485 506 c 0
 485 481 495 461 520 432 c 1
 487 412 l 1
 442 441 420 479 420 524 c 0xfdc0
496 303 m 0
 543 303 586 260 586 215 c 0
 586 168 545 125 496 125 c 0
 451 125 410 170 410 215 c 0xfec0
 410 260 451 303 496 303 c 0
895 1268 m 1
 178 1268 l 1
 178 88 l 1
 895 88 l 1
 895 1268 l 1
983 1284 m 2
 983 72 l 2
 983 11 972 0 911 0 c 2
 162 0 l 2
 101 0 90 11 90 72 c 2
 90 1284 l 2
 90 1345 101 1356 162 1356 c 2
 911 1356 l 2
 972 1356 983 1345 983 1284 c 2
EndSplineSet
EndChar

StartChar: exclam
Encoding: 33 33 3
Width: 585
GlyphClass: 2
Flags: HMW
HStem: -14 238<221 295>
VStem: 150 217<69 140 68 141> 207 199
LayerCount: 2
Fore
SplineSet
203 416 m 1xa0
 203 527 207 675 207 829 c 0
 207 1007 201 1190 170 1323 c 1
 170 1323 213 1358 293 1358 c 0
 381 1358 406 1294 406 1204 c 0
 406 1067 327 694 309 434 c 1
 203 416 l 1xa0
258 -14 m 0xc0
 184 -14 150 32 150 104 c 0
 150 178 184 223 258 223 c 0
 332 223 367 176 367 104 c 0
 367 30 332 -14 258 -14 c 0xc0
EndSplineSet
EndChar

StartChar: quotedbl
Encoding: 34 34 4
Width: 805
GlyphClass: 2
Flags: HMW
HStem: 965 424<199 270 216 270 216 289 544 598 216 616 216 526>
VStem: 150 188<1266 1324 1266 1324> 477 188<1266 1324 1266 1324>
LayerCount: 2
Fore
SplineSet
199 965 m 1
 199 965 150 1235 150 1294 c 0
 150 1353 189 1389 244 1389 c 0
 297 1389 338 1353 338 1294 c 0
 338 1237 289 965 289 965 c 1
 199 965 l 1
526 965 m 1
 526 965 477 1235 477 1294 c 0
 477 1353 516 1389 571 1389 c 0
 624 1389 666 1353 666 1294 c 0
 666 1237 616 965 616 965 c 1
 526 965 l 1
EndSplineSet
EndChar

StartChar: numbersign
Encoding: 35 35 5
Width: 1268
GlyphClass: 2
Flags: HMW
HStem: -14 43G<358 358 723 723> 356 109<109 332 88 354 109 440 463 694 827 1026> 723 109<215 412 195 434 215 520 545 776 907 1133>
VStem: 88 1065<356 831>
LayerCount: 2
Fore
SplineSet
358 -14 m 1
 256 10 l 1
 332 356 l 1
 88 356 l 1
 109 465 l 1
 354 465 l 1
 412 723 l 1
 195 723 l 1
 215 831 l 1
 434 831 l 1
 516 1198 l 1
 621 1174 l 1
 545 831 l 1
 799 831 l 1
 881 1198 l 1
 983 1174 l 1
 907 831 l 1
 1153 831 l 1
 1133 723 l 1
 883 723 l 1
 827 465 l 1
 1047 465 l 1
 1026 356 l 1
 803 356 l 1
 723 -14 l 1
 618 10 l 1
 694 356 l 1
 440 356 l 1
 358 -14 l 1
463 465 m 1
 719 465 l 1
 776 723 l 1
 520 723 l 1
 463 465 l 1
EndSplineSet
EndChar

StartChar: dollar
Encoding: 36 36 6
Width: 1036
GlyphClass: 2
Flags: HMW
HStem: 66 96<380 498> 1200 98<498 498>
VStem: 121 188<274 330 274 354> 162 168<963 1065 963 1071> 498 82<-119 66 66 66 170 582 821 1198 1298 1487 1487 1487> 713 168<1051 1100> 733 168<328 423>
LayerCount: 2
Fore
SplineSet
567 -131 m 1xda
 542 -131 521 -127 498 -121 c 1
 498 66 l 1
 262 66 121 162 121 324 c 0
 121 385 172 428 233 428 c 0
 264 428 304 414 322 391 c 1
 314 364 309 339 309 319 c 0xea
 309 229 385 166 498 162 c 1
 498 621 l 1
 340 687 162 756 162 983 c 0
 162 1159 301 1288 498 1298 c 1
 498 1487 l 1
 510 1499 l 1
 533 1499 562 1497 580 1491 c 1
 580 1296 l 1
 750 1280 881 1190 881 1081 c 0
 881 1005 846 956 791 956 c 0
 756 956 721 966 690 989 c 1
 704 1012 713 1036 713 1065 c 0xdc
 713 1135 660 1184 580 1198 c 1
 580 786 l 1
 734 720 901 643 901 426 c 0
 901 229 779 97 580 70 c 1
 580 -119 l 1
 567 -131 l 1xda
498 821 m 1
 498 1200 l 1
 385 1188 330 1116 330 1014 c 0
 330 912 404 864 498 821 c 1
580 170 m 1
 691 195 733 271 733 369 c 0
 733 478 666 535 580 582 c 1
 580 170 l 1
EndSplineSet
EndChar

StartChar: percent
Encoding: 37 37 7
Width: 1822
GlyphClass: 2
Flags: HMW
HStem: -14 80<1336 1462 1336 1498> 618 80<349 475 349 511> 684 80<1336 1462> 1317 80<349 475> 1343 41G<1417 1417>
VStem: 123 137<912 1103 912 1127> 563 137<912 1103> 1110 137<280 470 280 495> 1550 137<280 470>
LayerCount: 2
Fore
SplineSet
500 -100 m 1xaf80
 395 -39 l 1
 1315 1446 l 1
 1417 1384 l 1
 500 -100 l 1xaf80
412 618 m 0xd780
 213 618 123 770 123 1008 c 0
 123 1248 213 1397 412 1397 c 0
 611 1397 700 1248 700 1008 c 0
 700 770 611 618 412 618 c 0xd780
412 698 m 0
 539 698 563 818 563 1008 c 0
 563 1198 539 1317 412 1317 c 0
 287 1317 260 1198 260 1008 c 0
 260 818 287 698 412 698 c 0
1399 -14 m 0
 1200 -14 1110 137 1110 375 c 0
 1110 615 1200 764 1399 764 c 0xaf80
 1598 764 1688 615 1688 375 c 0
 1688 137 1598 -14 1399 -14 c 0
1399 66 m 0
 1526 66 1550 185 1550 375 c 0
 1550 565 1526 684 1399 684 c 0xaf80
 1274 684 1247 565 1247 375 c 0
 1247 185 1274 66 1399 66 c 0
EndSplineSet
EndChar

StartChar: ampersand
Encoding: 38 38 8
Width: 1408
GlyphClass: 2
Flags: HMW
HStem: -16 102<532 755 532 803> 786 86 788 84 1292 80<515 633>
VStem: 90 188<299 503 299 503> 199 176<1013 1132 1013 1170> 727 152<670 718 670 746> 770 178<1116 1192> 1079 111<366 538 323 561> 1264 152<938 991>
LayerCount: 2
Fore
SplineSet
641 -16 m 0xb9c0
 289 -16 90 141 90 401 c 0xb9c0
 90 604 193 730 373 791 c 1
 269 838 199 926 199 1061 c 0
 199 1280 377 1372 582 1372 c 0
 789 1372 948 1284 948 1130 c 0
 948 1046 899 995 840 995 c 0
 803 995 764 1016 741 1049 c 1
 755 1072 770 1100 770 1133 c 0
 770 1252 684 1292 582 1292 c 0
 449 1292 375 1204 375 1059 c 0xd5c0
 375 967 428 848 606 844 c 1
 606 745 l 1
 407 720 279 596 279 410 c 0
 279 189 426 86 639 86 c 0
 870 86 1079 217 1079 514 c 0
 1079 608 1061 700 1032 786 c 1
 923 780 879 749 879 686 c 0
 879 653 895 622 920 602 c 1xdac0
 895 577 864 563 829 563 c 0
 770 563 727 614 727 686 c 0xbac0
 727 807 828 872 1053 872 c 0
 1198 872 1264 901 1264 975 c 0
 1264 1008 1250 1038 1225 1061 c 1
 1250 1086 1280 1100 1313 1100 c 0
 1374 1100 1415 1053 1415 985 c 0
 1415 862 1318 792 1130 788 c 1
 1169 694 1190 589 1190 485 c 0
 1190 159 965 -16 641 -16 c 0xb9c0
EndSplineSet
EndChar

StartChar: quotesingle
Encoding: 39 39 9
Width: 485
GlyphClass: 2
Flags: HMW
HStem: 1339 41G<217 270>
VStem: 150 188<1251 1312>
LayerCount: 2
Fore
SplineSet
199 956 m 1
 189 1024 150 1223 150 1280 c 0
 150 1343 191 1380 244 1380 c 0
 297 1380 338 1343 338 1280 c 0
 338 1223 299 1024 289 956 c 1
 199 956 l 1
EndSplineSet
EndChar

StartChar: parenleft
Encoding: 40 40 10
Width: 850
GlyphClass: 2
Flags: HMW
GlyphVariantsVertical: parenleft parenBigl parenbiggl parenBiggl
GlyphCompositionVertical: 3  uni239D%0,0,72,1810 uni239C%1,31,31,668 uni239B%0,72,0,1810
HStem: -297 1751<582 582>
VStem: 180 147<395 764 395 812>
LayerCount: 2
Fore
SplineSet
582 -297 m 1
 361 -125 180 197 180 578 c 0
 180 1047 439 1341 582 1454 c 1
 633 1403 l 1
 449 1210 328 949 328 580 c 0
 328 211 449 -51 633 -244 c 1
 582 -297 l 1
EndSplineSet
EndChar

StartChar: parenright
Encoding: 41 41 11
Width: 850
GlyphClass: 2
Flags: HMW
GlyphVariantsVertical: parenright parenBigr parenbiggr parenBiggr
GlyphCompositionVertical: 3  uni23A0%0,0,72,1810 uni239F%1,31,31,668 uni239E%0,72,0,1810
HStem: -297 1751<201 201>
VStem: 455 147<395 748>
LayerCount: 2
Fore
SplineSet
201 -297 m 1
 150 -244 l 1
 334 -51 455 211 455 580 c 0
 455 916 353 1190 150 1403 c 1
 201 1454 l 1
 201 1454 602 1166 602 578 c 0
 602 -10 201 -297 201 -297 c 1
EndSplineSet
EndChar

StartChar: asterisk
Encoding: 42 42 12
Width: 875
GlyphClass: 2
Flags: HMW
HStem: 991 150<194 239 639 683>
VStem: 252 154 471 153 472 152
LayerCount: 2
Fore
SplineSet
328 797 m 0xd0
 287 797 252 831 252 868 c 0
 252 946 330 934 408 1049 c 1
 304 1039 262 991 215 991 c 0
 172 991 141 1024 141 1067 c 0
 141 1110 172 1141 215 1141 c 0
 262 1141 304 1091 410 1081 c 1
 332 1187 252 1188 252 1264 c 0
 252 1299 287 1333 328 1333 c 0
 432 1333 377 1237 438 1102 c 1xe0
 501 1241 447 1333 549 1333 c 0
 592 1333 625 1299 625 1260 c 0
 625 1186 543 1185 469 1083 c 1
 567 1093 617 1141 662 1141 c 0
 705 1141 737 1110 737 1067 c 0
 737 1024 705 991 662 991 c 0
 615 991 565 1039 467 1049 c 1
 549 936 625 946 625 870 c 0
 625 829 590 797 547 797 c 0
 443 797 510 878 438 1032 c 1
 393 934 416 875 393 836 c 0
 377 811 353 797 328 797 c 0xd0
EndSplineSet
EndChar

StartChar: plus
Encoding: 43 43 13
Width: 1530
GlyphClass: 2
Flags: HMW
HStem: 530 109<147 500 147 500 623 985>
VStem: 500 123<168 530 168 530 639 1004>
LayerCount: 2
Fore
SplineSet
147 530 m 1
 147 639 l 1
 500 639 l 1
 500 1004 l 1
 623 1004 l 1
 623 639 l 1
 985 639 l 1
 985 530 l 1
 623 530 l 1
 623 168 l 1
 500 168 l 1
 500 530 l 1
 147 530 l 1
EndSplineSet
EndChar

StartChar: comma
Encoding: 44 44 14
Width: 420
GlyphClass: 2
Flags: HMW
HStem: -276 479<129 246> 29 174<127 246>
VStem: 170 166<-66 98>
LayerCount: 2
Fore
SplineSet
129 -276 m 1xa0
 80 -217 l 1
 137 -170 170 -94 170 -37 c 0
 170 0 158 29 129 29 c 0
 125 29 114 27 104 23 c 1
 90 39 82 65 82 98 c 0
 82 157 133 203 207 203 c 0
 285 203 336 143 336 53 c 0x60
 336 -84 256 -196 129 -276 c 1xa0
EndSplineSet
EndChar

StartChar: hyphen
Encoding: 45 45 15
Width: 680
GlyphClass: 2
Flags: HMW
HStem: 473 111<102 571 102 571>
VStem: 102 469<473 584 473 584>
LayerCount: 2
Fore
SplineSet
102 473 m 1
 102 584 l 1
 571 584 l 1
 571 473 l 1
 102 473 l 1
EndSplineSet
EndChar

StartChar: period
Encoding: 46 46 16
Width: 420
GlyphClass: 2
Flags: HMW
HStem: -14 238<174 248>
VStem: 102 217<69 140 68 141>
LayerCount: 2
Fore
SplineSet
211 -14 m 0
 137 -14 102 32 102 104 c 0
 102 178 137 223 211 223 c 0
 285 223 319 176 319 104 c 0
 319 30 285 -14 211 -14 c 0
EndSplineSet
EndChar

StartChar: slash
Encoding: 47 47 17
Width: 1004
GlyphClass: 2
Flags: HW
GlyphVariantsVertical: slash fractionbig fractionBig fractionbigg fractionBigg
HStem: 1348 41G<911 911>
VStem: 158 754
LayerCount: 2
Fore
SplineSet
270 -270 m 1
 158 -229 l 1
 799 1432 l 1
 911 1389 l 1
 270 -270 l 1
EndSplineSet
EndChar

StartChar: zero
Encoding: 48 48 18
Width: 1134
GlyphClass: 2
Flags: HMW
HStem: -14 100<426 635 426 684> 1272 102<426 634>
VStem: 53 188<466 895 466 905> 819 186<467 894>
LayerCount: 2
Fore
SplineSet
530 -14 m 0
 223 -14 53 233 53 682 c 0
 53 1128 223 1374 530 1374 c 0
 837 1374 1006 1131 1006 682 c 0
 1006 231 837 -14 530 -14 c 0
530 86 m 0
 739 86 819 252 819 682 c 0
 819 1106 737 1272 530 1272 c 0
 321 1272 242 1108 242 682 c 0
 242 250 321 86 530 86 c 0
EndSplineSet
AlternateSubs2: "'ssty' Math Script Style lookup 4 subtable" glyph3567 glyph3577
Substitution2: "'onum' Oldstyle Figures lookup 0 subtable" zero.onum
EndChar

StartChar: one
Encoding: 49 49 19
Width: 1134
GlyphClass: 2
Flags: HMW
HStem: 0 70<43 47 47 47 47 756> 1171 88<51 326 51 51> 1333 41G<438 438>
VStem: 326 180<131 1171 1171 1171>
LayerCount: 2
Fore
SplineSet
43 0 m 1
 47 70 l 1
 162 82 260 102 326 131 c 1
 326 1171 l 1
 51 1171 l 1
 51 1260 l 1
 190 1272 319 1311 438 1374 c 1
 506 1343 l 1
 506 131 l 1
 565 98 715 76 762 70 c 1
 756 0 l 1
 43 0 l 1
EndSplineSet
AlternateSubs2: "'ssty' Math Script Style lookup 4 subtable" glyph3568 glyph3578
Substitution2: "'onum' Oldstyle Figures lookup 0 subtable" one.onum
EndChar

StartChar: two
Encoding: 50 50 20
Width: 1134
GlyphClass: 2
Flags: HMW
HStem: 0 152<270 905 270 905> 936 41G 1272 102<386 528>
VStem: 53 190<1073 1149 1073 1188> 662 190<899 1091>
LayerCount: 2
Fore
SplineSet
55 0 m 1
 55 119 l 1
 522 561 662 783 662 1016 c 0
 662 1166 607 1272 451 1272 c 0
 322 1272 244 1205 244 1094 c 0
 244 1053 258 1014 287 977 c 1
 260 950 221 932 180 932 c 0
 119 932 53 976 53 1087 c 0
 53 1288 242 1374 451 1374 c 0
 709 1374 852 1239 852 995 c 0
 852 766 700 521 270 152 c 1
 905 152 l 1
 905 0 l 1
 55 0 l 1
EndSplineSet
AlternateSubs2: "'ssty' Math Script Style lookup 4 subtable" glyph3569 glyph3579
Substitution2: "'onum' Oldstyle Figures lookup 0 subtable" two.onum
EndChar

StartChar: three
Encoding: 51 51 21
Width: 1134
GlyphClass: 2
Flags: HMW
HStem: -14 100<398 537 398 579> 672 90<340 451> 1272 102<412 534>
VStem: 45 199<207 272 207 300> 96 178<1084 1151 1084 1190> 666 188<964 1115> 690 180<284 462 257 467>
LayerCount: 2
Fore
SplineSet
457 -14 m 0xf2
 201 -14 45 92 45 266 c 0
 45 334 94 381 164 381 c 0
 195 381 229 369 260 346 c 1
 250 317 244 285 244 260 c 0
 244 154 330 86 467 86 c 0
 606 86 690 195 690 373 c 0xf2
 690 561 561 672 340 672 c 1
 340 762 l 1
 553 768 666 864 666 1040 c 0
 666 1190 596 1272 471 1272 c 0
 352 1272 274 1202 274 1100 c 0
 274 1069 283 1040 297 1022 c 1
 264 997 230 985 193 985 c 0
 134 985 96 1036 96 1118 c 0
 96 1261 262 1374 475 1374 c 0
 700 1374 854 1239 854 1040 c 0xec
 854 886 764 776 586 719 c 1
 776 668 870 553 870 371 c 0
 870 144 701 -14 457 -14 c 0xf2
EndSplineSet
AlternateSubs2: "'ssty' Math Script Style lookup 4 subtable" glyph3570 glyph3580
Substitution2: "'onum' Oldstyle Figures lookup 0 subtable" three.onum
EndChar

StartChar: four
Encoding: 52 52 22
Width: 1134
GlyphClass: 2
Flags: HMW
HStem: 0 43G<618 618 618 791> 375 113<180 618 180 618> 932 41G<756 801 801 801>
VStem: 618 172<0 375 0 375 0 887> 618 182<0 973 375 973 492 887 887 887>
LayerCount: 2
Fore
SplineSet
618 0 m 1xe8
 618 375 l 1
 33 375 l 1
 18 444 l 1
 512 1393 l 1
 588 1389 647 1355 680 1335 c 1
 180 487 l 1
 618 487 l 1
 618 887 l 1
 681 889 740 920 756 973 c 1
 801 973 l 1
 801 492 l 1
 850 476 893 467 979 453 c 1
 969 375 l 1xe8
 791 375 l 1
 791 0 l 1xf0
 618 0 l 1xe8
EndSplineSet
AlternateSubs2: "'ssty' Math Script Style lookup 4 subtable" glyph3571 glyph3581
Substitution2: "'onum' Oldstyle Figures lookup 0 subtable" four.onum
EndChar

StartChar: five
Encoding: 53 53 23
Width: 1134
GlyphClass: 2
Flags: HMW
HStem: -16 102<407 551 407 598> 741 111<451 542> 1221 145<482 567 482 803> 1341 25
VStem: 57 199<211 278 211 291> 719 178<318 531>
LayerCount: 2
Fore
SplineSet
469 -16 m 0xec
 231 -16 57 94 57 252 c 0
 57 330 102 379 174 379 c 0
 211 379 245 369 274 346 c 1
 264 319 256 293 256 262 c 0
 256 160 344 86 469 86 c 0
 633 86 719 205 719 432 c 0
 719 631 625 741 459 741 c 0
 371 741 282 717 186 662 c 1
 123 729 l 1
 176 1343 l 1
 217 1372 l 1
 377 1368 442 1366 522 1366 c 0
 612 1366 708 1368 778 1370 c 1xec
 819 1341 l 1xdc
 803 1221 l 1
 289 1221 l 1
 252 803 l 1
 330 836 410 852 492 852 c 0
 740 852 897 702 897 432 c 0
 897 184 727 -16 469 -16 c 0xec
EndSplineSet
AlternateSubs2: "'ssty' Math Script Style lookup 4 subtable" glyph3572 glyph3582
Substitution2: "'onum' Oldstyle Figures lookup 0 subtable" five.onum
EndChar

StartChar: six
Encoding: 54 54 24
Width: 1134
GlyphClass: 2
Flags: HMW
HStem: -14 100<392 579 392 616> 655 100<472 580> 1341 41G<743 743>
VStem: 53 195<409 512 409 746> 725 190<305 463>
LayerCount: 2
Fore
SplineSet
494 -14 m 0
 168 -14 53 186 53 512 c 0
 53 981 344 1257 743 1382 c 1
 780 1303 l 1
 493 1176 305 1002 260 676 c 1
 332 723 422 756 522 756 c 0
 747 756 915 616 915 389 c 0
 915 143 740 -14 494 -14 c 0
496 86 m 0
 662 86 725 223 725 387 c 0
 725 539 658 655 502 655 c 0
 398 655 316 613 250 541 c 1
 248 512 l 1
 248 305 289 86 496 86 c 0
EndSplineSet
AlternateSubs2: "'ssty' Math Script Style lookup 4 subtable" glyph3573 glyph3583
Substitution2: "'onum' Oldstyle Figures lookup 0 subtable" six.onum
EndChar

StartChar: seven
Encoding: 55 55 25
Width: 1134
GlyphClass: 2
Flags: HMW
HStem: -16 43G<364 431> 1217 152<94 764 94 223> 1337 31<66 94>
VStem: 81 99 262 205<190 263>
LayerCount: 2
Fore
SplineSet
406 -16 m 0xd8
 322 -16 262 57 262 168 c 0
 262 358 319 485 651 1032 c 2
 764 1217 l 1
 223 1217 l 1xd8
 198 1147 184 1073 180 995 c 1
 166 991 155 991 137 991 c 0
 125 991 108 993 96 995 c 1
 66 1337 l 1xb8
 94 1368 l 1
 176 1366 280 1366 485 1366 c 0
 690 1366 795 1366 885 1368 c 1
 922 1280 l 1
 897 1241 467 514 467 221 c 0
 467 160 488 105 539 68 c 1
 504 15 457 -16 406 -16 c 0xd8
EndSplineSet
AlternateSubs2: "'ssty' Math Script Style lookup 4 subtable" glyph3574 glyph3584
Substitution2: "'onum' Oldstyle Figures lookup 0 subtable" seven.onum
EndChar

StartChar: eight
Encoding: 56 56 26
Width: 1134
GlyphClass: 2
Flags: HMW
HStem: -14 100<421 580 421 635> 1272 102<428 556>
VStem: 55 186<278 424> 106 174<1001 1122 1001 1137> 698 176<994 1118> 752 184<276 431>
LayerCount: 2
Fore
SplineSet
502 -14 m 0xe4
 217 -14 55 119 55 352 c 0xe4
 55 495 143 629 301 727 c 1
 168 799 106 897 106 1034 c 0
 106 1239 262 1374 498 1374 c 0
 731 1374 874 1252 874 1051 c 0xd8
 874 938 801 830 672 750 c 1
 854 658 936 541 936 371 c 0
 936 135 768 -14 502 -14 c 0xe4
567 797 m 1xd8
 659 863 698 936 698 1053 c 0
 698 1184 617 1272 496 1272 c 0
 361 1272 281 1192 281 1053 c 0
 281 951 344 891 567 797 c 1xd8
502 86 m 0xe4
 658 86 752 190 752 362 c 0
 752 499 665 565 403 680 c 1
 290 606 242 508 242 365 c 0
 242 191 340 86 502 86 c 0xe4
EndSplineSet
AlternateSubs2: "'ssty' Math Script Style lookup 4 subtable" glyph3575 glyph3585
Substitution2: "'onum' Oldstyle Figures lookup 0 subtable" eight.onum
EndChar

StartChar: nine
Encoding: 57 57 27
Width: 1134
GlyphClass: 2
Flags: HMW
HStem: -20 43G<221 221> 612 100<385 493> 1272 102<400 577>
VStem: 51 188<904 1073 904 1103> 715 197<827 856 856 957>
LayerCount: 2
Fore
SplineSet
221 -20 m 1
 184 59 l 1
 471 186 660 366 705 692 c 1
 633 643 542 612 442 612 c 0
 217 612 51 752 51 979 c 0
 51 1227 223 1374 477 1374 c 0
 770 1374 911 1206 911 858 c 0
 911 391 620 103 221 -20 c 1
461 713 m 0
 567 713 649 757 715 827 c 1
 715 856 l 2
 715 1059 678 1272 475 1272 c 0
 325 1272 240 1165 240 981 c 0
 240 827 309 713 461 713 c 0
EndSplineSet
AlternateSubs2: "'ssty' Math Script Style lookup 4 subtable" glyph3576 glyph3586
Substitution2: "'onum' Oldstyle Figures lookup 0 subtable" nine.onum
EndChar

StartChar: colon
Encoding: 58 58 28
Width: 540
GlyphClass: 2
Flags: HMW
HStem: -14 238<231 305> 670 238<231 305>
VStem: 160 217<69 140 68 141 753 824>
LayerCount: 2
Fore
SplineSet
268 670 m 0
 194 670 160 716 160 788 c 0
 160 862 194 907 268 907 c 0
 342 907 377 860 377 788 c 0
 377 714 342 670 268 670 c 0
268 -14 m 0
 194 -14 160 32 160 104 c 0
 160 178 194 223 268 223 c 0
 342 223 377 176 377 104 c 0
 377 30 342 -14 268 -14 c 0
EndSplineSet
EndChar

StartChar: semicolon
Encoding: 59 59 29
Width: 540
GlyphClass: 2
Flags: HMW
HStem: 29 174<186 305> 670 238<231 305>
VStem: 160 217<753 824 752 825> 229 166<-66 98>
LayerCount: 2
Fore
SplineSet
268 670 m 0xe0
 194 670 160 716 160 788 c 0
 160 862 194 907 268 907 c 0
 342 907 377 860 377 788 c 0
 377 714 342 670 268 670 c 0xe0
188 -276 m 1
 139 -217 l 1
 196 -170 229 -94 229 -37 c 0
 229 0 217 29 188 29 c 0
 184 29 174 27 164 23 c 1
 150 39 141 65 141 98 c 0
 141 157 192 203 266 203 c 0
 344 203 395 143 395 53 c 0xd0
 395 -84 315 -196 188 -276 c 1
EndSplineSet
EndChar

StartChar: less
Encoding: 60 60 30
Width: 1534
GlyphClass: 2
Flags: HW
HStem: 162 848<915 915>
VStem: 131 836<264 639 264 639>
LayerCount: 2
Fore
SplineSet
131 532 m 1
 131 639 l 1
 915 1010 l 1
 967 905 l 1
 293 586 l 1
 967 264 l 1
 915 162 l 1
 131 532 l 1
EndSplineSet
EndChar

StartChar: equal
Encoding: 61 61 31
Width: 1530
GlyphClass: 2
Flags: HMW
HStem: 383 109<127 1008 127 1008> 678 106<127 1008 127 1008>
VStem: 127 881<383 492 383 492 678 784 383 784>
LayerCount: 2
Fore
SplineSet
127 678 m 1
 127 784 l 1
 1008 784 l 1
 1008 678 l 1
 127 678 l 1
127 383 m 1
 127 492 l 1
 1008 492 l 1
 1008 383 l 1
 127 383 l 1
EndSplineSet
EndChar

StartChar: greater
Encoding: 62 62 32
Width: 1534
GlyphClass: 2
Flags: HW
HStem: 162 848<209 209>
VStem: 158 836<264 639 532 905>
LayerCount: 2
Fore
SplineSet
209 162 m 1
 158 264 l 1
 831 586 l 1
 158 905 l 1
 209 1010 l 1
 993 639 l 1
 993 532 l 1
 209 162 l 1
EndSplineSet
EndChar

StartChar: question
Encoding: 63 63 33
Width: 865
GlyphClass: 2
Flags: HMW
HStem: -14 238<276 350> 1257 86<333 417>
VStem: 49 178<1141 1190 1141 1207> 193 178<525 632 525 679> 205 217<69 140 68 141> 539 162<976 1154>
LayerCount: 2
Fore
SplineSet
293 416 m 0xd4
 227 416 193 475 193 543 c 0xd4
 193 815 539 844 539 1108 c 0
 539 1200 463 1257 371 1257 c 0
 295 1257 227 1229 227 1151 c 0
 227 1131 234 1106 250 1077 c 1
 223 1038 195 1018 152 1018 c 0
 80 1018 49 1063 49 1135 c 0xe4
 49 1280 215 1343 362 1343 c 0
 552 1343 700 1273 700 1083 c 0
 700 798 371 725 371 539 c 0
 371 512 375 482 383 449 c 1
 363 433 328 416 293 416 c 0xd4
313 -14 m 0xcc
 239 -14 205 32 205 104 c 0
 205 178 239 223 313 223 c 0
 387 223 422 176 422 104 c 0
 422 30 387 -14 313 -14 c 0xcc
EndSplineSet
EndChar

StartChar: at
Encoding: 64 64 34
Width: 1813
GlyphClass: 2
Flags: HMW
HStem: -291 92<713 963 713 974> 57 96<1308 1409> 66 88<812 847> 482 87 899 76<851 949> 1233 88<727 1138>
VStem: 104 182<317 712 317 737> 567 170<254 348 254 361> 584 168<795 825> 1047 172<258 285 285 487 487 487 575 715> 1534 182<490 779>
LayerCount: 2
Fore
SplineSet
903 -291 m 0xbf60
 414 -291 104 25 104 514 c 0
 104 960 416 1321 924 1321 c 0
 1426 1321 1716 1016 1716 610 c 0
 1716 301 1589 57 1337 57 c 0xdf60
 1167 57 1094 103 1065 166 c 1
 965 80 891 66 803 66 c 0
 653 66 567 144 567 285 c 0xbf60
 567 439 661 543 903 563 c 2
 1047 575 l 1
 1047 715 l 2
 1047 842 1001 899 897 899 c 0
 805 899 752 864 752 809 c 0
 752 780 770 757 811 743 c 1
 811 677 768 643 696 643 c 0
 624 643 584 695 584 758 c 0xbee0
 584 893 711 975 897 975 c 0
 1098 975 1219 879 1219 715 c 2
 1219 285 l 2
 1219 193 1266 154 1350 154 c 0
 1469 154 1534 370 1534 610 c 0
 1534 948 1352 1233 924 1233 c 0
 531 1233 287 909 287 514 c 0
 287 121 522 -199 903 -199 c 0
 1022 -199 1141 -174 1229 -121 c 1
 1274 -193 l 1
 1170 -259 1044 -291 903 -291 c 0xbf60
852 154 m 0
 915 154 971 182 1047 258 c 1
 1047 487 l 1
 911 477 l 2
 802 469 737 395 737 301 c 0
 737 207 772 154 852 154 c 0
EndSplineSet
EndChar

StartChar: A
Encoding: 65 65 35
Width: 1276
GlyphClass: 2
Flags: HMW
TopRightVertex: 1  1434,-168
BottomRightVertex: 2  -410,100 -205,455
HStem: 0 76<2 12 12 12 12 477> 440 106<414 760 414 795 381 760> 1325 41G<541 664 664 664>
VStem: 2 1219<0 76>
AnchorPoint: "Anchor-3" 600 1366 basechar 0
AnchorPoint: "Anchor-2" 1212 0 basechar 0
LayerCount: 2
Fore
SplineSet
2 0 m 1
 12 76 l 1
 65 84 111 94 158 129 c 1
 541 1366 l 1
 664 1366 l 1
 1085 127 l 1
 1128 96 1174 84 1221 76 c 1
 1212 0 l 1
 700 0 l 1
 711 76 l 1
 779 84 840 96 899 131 c 1
 795 440 l 1
 381 440 l 1
 287 131 l 1
 346 96 417 84 485 76 c 1
 477 0 l 1
 2 0 l 1
414 547 m 1
 760 547 l 1
 580 1081 l 1
 414 547 l 1
EndSplineSet
AlternateSubs2: "'ssty' Math Script Style lookup 4 subtable" glyph3682 glyph3708
EndChar

StartChar: B
Encoding: 66 66 36
Width: 1252
GlyphClass: 2
Flags: HMW
TopRightVertex: 1  1417,205
BottomRightVertex: 1  0,100
HStem: 0 76<63 74 74 74 74 657> 0 100<610 657> 670 100<442 604 442 606> 1272 94<572 602 602 701> 1292 74<61 602>
VStem: 262 180<131 670 109 770 770 1237 1237 1237> 893 178<948 1108> 942 186<292 469 268 473>
LayerCount: 2
Fore
SplineSet
63 0 m 1x75
 74 76 l 1
 158 86 213 102 262 131 c 1
 262 1237 l 1
 215 1264 149 1282 61 1292 c 1xad
 72 1366 l 1
 602 1366 l 2
 919 1366 1071 1243 1071 1026 c 0x76
 1071 870 989 770 831 725 c 1
 1015 672 1128 553 1128 385 c 0
 1128 152 958 0 657 0 c 2
 63 0 l 1x75
442 770 m 1
 606 770 l 2
 803 770 893 850 893 1022 c 0
 893 1194 803 1272 600 1272 c 0
 545 1272 487 1268 442 1264 c 1x76
 442 770 l 1
657 100 m 0x75
 847 100 942 201 942 383 c 0
 942 563 833 670 604 670 c 2
 442 670 l 1
 442 109 l 1
 485 105 563 100 657 100 c 0x75
EndSplineSet
AlternateSubs2: "'ssty' Math Script Style lookup 4 subtable" glyph3683 glyph3709
EndChar

StartChar: C
Encoding: 67 67 37
Width: 1152
GlyphClass: 2
Flags: HMW
TopRightVertex: 1  1452,205
BottomRightVertex: 1  0,100
HStem: -14 123<472 659 472 691> 1274 111<473 647>
VStem: 53 205<486 886 486 922> 793 199<1118 1177>
AnchorPoint: "Anchor-4" 590 0 basechar 0
AnchorPoint: "Anchor-3" 559 1366 basechar 0
LayerCount: 2
Fore
SplineSet
578 -14 m 0
 222 -14 53 207 53 684 c 0
 53 1159 224 1384 584 1384 c 0
 820 1384 991 1270 991 1114 c 0
 991 1024 938 952 872 952 c 0
 819 952 770 985 754 1032 c 1
 781 1069 793 1102 793 1135 c 0
 793 1219 711 1274 584 1274 c 0
 363 1274 258 1087 258 684 c 0
 258 289 361 109 584 109 c 0
 736 109 881 194 944 276 c 1
 1016 199 l 1
 959 129 805 -14 578 -14 c 0
EndSplineSet
AlternateSubs2: "'ssty' Math Script Style lookup 4 subtable" glyph3684 glyph3710
EndChar

StartChar: D
Encoding: 68 68 38
Width: 1355
GlyphClass: 2
Flags: HMW
TopRightVertex: 1  1417,264
BottomRightVertex: 1  0,100
HStem: 0 76<63 74 74 74 74 500> 0 100<63 690> 1264 102<442 512 512 541 442 442> 1292 74<61 512>
VStem: 260 182<129 1237 1237 1237> 1022 205<462 903>
AnchorPoint: "Anchor-3" 643 1366 basechar 0
LayerCount: 2
Fore
SplineSet
63 0 m 1x6c
 74 76 l 1
 140 84 203 94 260 129 c 1
 260 1237 l 1
 201 1270 127 1284 61 1292 c 1x9c
 72 1366 l 1
 512 1366 l 2
 981 1366 1227 1165 1227 682 c 0
 1227 197 983 0 500 0 c 2
 63 0 l 1x6c
535 100 m 0x6c
 846 100 1022 240 1022 684 c 0
 1022 1122 850 1264 541 1264 c 2
 442 1264 l 1
 442 109 l 1
 469 103 506 100 535 100 c 0x6c
EndSplineSet
AlternateSubs2: "'ssty' Math Script Style lookup 4 subtable" glyph3685 glyph3711
EndChar

StartChar: E
Encoding: 69 69 39
Width: 1178
GlyphClass: 2
Flags: HMW
TopRightVertex: 1  1417,205
BottomRightVertex: 1  0,100
HStem: 0 76<61 74 74 74 74 1030> 0 119<442 879 442 1030> 645 105 1044 322<939 954> 1257 109<442 827 442 442> 1292 74<61 985>
VStem: 262 180<131 651 745 1237 1237 1237> 788 66<487 893 487 893> 967 73
AnchorPoint: "Anchor-3" 555 1366 basechar 0
AnchorPoint: "Anchor-2" 991 0 basechar 0
LayerCount: 2
Fore
SplineSet
61 0 m 1x6b80
 74 76 l 1
 142 84 229 106 262 131 c 1
 262 1237 l 1
 203 1268 129 1284 61 1292 c 1xa780
 72 1366 l 1
 985 1366 l 1x6b80
 1001 1055 l 1
 985 1049 964 1044 944 1044 c 0
 934 1044 923 1047 913 1049 c 1x7380
 901 1112 878 1194 827 1257 c 1
 442 1257 l 1
 442 745 l 1
 674 756 l 2
 737 758 768 821 788 893 c 1
 854 893 l 1
 854 487 l 1
 788 487 l 1
 757 600 738 635 668 639 c 2
 442 651 l 1
 442 119 l 1
 879 119 l 1
 932 193 955 282 967 350 c 1
 979 352 994 354 1006 354 c 0
 1020 354 1033 352 1049 350 c 1
 1030 0 l 1
 61 0 l 1x6b80
EndSplineSet
AlternateSubs2: "'ssty' Math Script Style lookup 4 subtable" glyph3686 glyph3712
EndChar

StartChar: F
Encoding: 70 70 40
Width: 1099
GlyphClass: 2
Flags: HMW
TopRightVertex: 1  1417,205
BottomRightVertex: 1  0,100
HStem: 0 76<61 74 74 74 74 633> 629 105 1044 322<941 956> 1257 109<442 817 442 442> 1292 74<61 985>
VStem: 262 180<131 635 729 1237 1237 1237> 788 66<473 879 473 879>
LayerCount: 2
Fore
SplineSet
61 0 m 1xd6
 74 76 l 1
 142 84 229 106 262 131 c 1
 262 1237 l 1
 203 1268 131 1284 61 1292 c 1xce
 72 1366 l 1
 985 1366 l 1xd6
 1001 1055 l 1
 985 1049 966 1044 946 1044 c 0
 936 1044 923 1045 913 1049 c 1xe6
 901 1112 872 1194 817 1257 c 1
 442 1257 l 1
 442 729 l 1
 674 739 l 2
 744 741 776 830 788 879 c 1
 854 879 l 1
 854 473 l 1
 788 473 l 1
 765 569 733 619 672 623 c 2
 442 635 l 1
 442 131 l 1
 495 98 573 84 641 76 c 1
 633 0 l 1
 61 0 l 1xd6
EndSplineSet
AlternateSubs2: "'ssty' Math Script Style lookup 4 subtable" glyph3687 glyph3713
EndChar

StartChar: G
Encoding: 71 71 41
Width: 1251
GlyphClass: 2
Flags: HMW
TopRightVertex: 1  1452,205
BottomRightVertex: 1  0,100
HStem: -14 109<459 673 459 683> 571 85 1274 111<462 677>
VStem: 53 207<528 841 528 898> 844 201<1119 1182> 862 182<170 528 528 528>
AnchorPoint: "Anchor-5" 590 0 basechar 0
AnchorPoint: "Anchor-3" 590 1366 basechar 0
LayerCount: 2
Fore
SplineSet
610 -14 m 0xf4
 188 -14 53 258 53 684 c 0
 53 1112 194 1384 612 1384 c 0
 800 1384 1044 1307 1044 1114 c 0
 1044 1016 987 952 924 952 c 0
 869 952 821 987 805 1032 c 1
 832 1071 844 1104 844 1135 c 0xf8
 844 1229 739 1274 614 1274 c 0
 309 1274 260 997 260 684 c 0
 260 373 307 94 610 94 c 0
 735 94 833 145 862 170 c 1
 862 528 l 1
 801 553 737 565 653 571 c 1
 662 647 l 1
 1044 666 l 1
 1044 86 l 1
 929 23 755 -14 610 -14 c 0xf4
EndSplineSet
AlternateSubs2: "'ssty' Math Script Style lookup 4 subtable" glyph3688 glyph3714
EndChar

StartChar: H
Encoding: 72 72 42
Width: 1406
GlyphClass: 2
Flags: HMW
TopRightVertex: 1  1417,268
BottomRightVertex: 1  0,100
HStem: 0 76<61 74 74 74 74 623> 649 104<432 995 432 995> 1292 74<61 633 621 621 1354 1354>
VStem: 252 180<131 649 754 1237> 995 180<131 649 649 649 754 1237 131 1237>
AnchorPoint: "Anchor-3" 713 1366 basechar 0
LayerCount: 2
Fore
SplineSet
61 0 m 1
 74 76 l 1
 140 84 193 96 252 131 c 1
 252 1237 l 1
 193 1268 131 1284 61 1292 c 1
 72 1366 l 1
 633 1366 l 1
 621 1292 l 1
 553 1284 491 1270 432 1237 c 1
 432 754 l 1
 995 754 l 1
 995 1237 l 1
 936 1268 865 1284 795 1292 c 1
 805 1366 l 1
 1364 1366 l 1
 1354 1292 l 1
 1288 1284 1235 1270 1176 1237 c 1
 1176 131 l 1
 1235 96 1296 84 1364 76 c 1
 1356 0 l 1
 795 0 l 1
 807 76 l 1
 875 84 936 96 995 131 c 1
 995 649 l 1
 432 649 l 1
 432 131 l 1
 491 98 563 84 633 76 c 1
 623 0 l 1
 61 0 l 1
EndSplineSet
AlternateSubs2: "'ssty' Math Script Style lookup 4 subtable" glyph3689 glyph3715
EndChar

StartChar: I
Encoding: 73 73 43
Width: 664
GlyphClass: 2
Flags: HMW
TopRightVertex: 1  1417,205
BottomRightVertex: 1  0,100
HStem: 0 76<61 74 74 74 74 631> 1292 74<61 639 629 629>
VStem: 262 180<131 1237 131 1237>
AnchorPoint: "Anchor-3" 352 1366 basechar 0
AnchorPoint: "Anchor-2" 395 0 basechar 0
LayerCount: 2
Fore
SplineSet
61 0 m 1
 74 76 l 1
 140 84 203 96 262 131 c 1
 262 1237 l 1
 203 1268 131 1284 61 1292 c 1
 72 1366 l 1
 639 1366 l 1
 629 1292 l 1
 563 1284 501 1270 442 1237 c 1
 442 131 l 1
 501 96 573 84 641 76 c 1
 631 0 l 1
 61 0 l 1
EndSplineSet
AlternateSubs2: "'ssty' Math Script Style lookup 4 subtable" glyph3690 glyph3716
EndChar

StartChar: J
Encoding: 74 74 44
Width: 628
GlyphClass: 2
Flags: HMW
TopRightVertex: 1  1417,205
BottomRightVertex: 1  0,-102
HStem: 1292 74<25 602 592 592>
VStem: 225 180<2 33 33 1237>
AnchorPoint: "Anchor-3" 324 1366 basechar 0
LayerCount: 2
Fore
SplineSet
6 -406 m 1
 -16 -344 l 1
 105 -289 225 -201 225 2 c 2
 225 1237 l 1
 166 1268 95 1284 25 1292 c 1
 35 1366 l 1
 602 1366 l 1
 592 1292 l 1
 524 1284 463 1270 406 1237 c 1
 406 33 l 2
 406 -219 246 -343 6 -406 c 1
EndSplineSet
AlternateSubs2: "'ssty' Math Script Style lookup 4 subtable" glyph3691 glyph3717
EndChar

StartChar: K
Encoding: 75 75 45
Width: 1289
GlyphClass: 2
Flags: HMW
TopRightVertex: 1  1417,254
BottomRightVertex: 1  0,100
HStem: 0 76<61 74 74 74 74 633> 0 78<932 1272> 1292 74<61 643 631 631 1219 1219>
VStem: 260 182<131 1237 131 1237>
AnchorPoint: "Anchor-5" 729 0 basechar 0
LayerCount: 2
Fore
SplineSet
61 0 m 1xb0
 74 76 l 1
 142 84 203 96 260 131 c 1
 260 1237 l 1
 203 1268 129 1284 61 1292 c 1
 72 1366 l 1
 643 1366 l 1
 631 1292 l 1
 561 1284 501 1270 442 1237 c 1
 442 131 l 1
 501 98 573 84 643 76 c 1
 633 0 l 1
 61 0 l 1xb0
932 0 m 1
 930 35 913 78 899 98 c 2xb0
 463 713 l 1
 848 1192 l 2
 856 1208 860 1223 860 1233 c 0
 860 1270 805 1290 733 1292 c 1
 745 1366 l 1
 1227 1366 l 1
 1219 1292 l 1
 1162 1288 1091 1282 1032 1227 c 1
 651 750 l 1
 1098 131 l 1
 1133 106 1186 86 1272 78 c 1x70
 1260 0 l 1
 932 0 l 1
EndSplineSet
AlternateSubs2: "'ssty' Math Script Style lookup 4 subtable" glyph3692 glyph3718
EndChar

StartChar: L
Encoding: 76 76 46
Width: 1099
GlyphClass: 2
Flags: HMW
TopRightVertex: 1  1417,-184
BottomRightVertex: 1  0,100
HStem: 0 76<61 74 74 74 74 975> 0 119<440 823 440 975> 1292 74<61 639 629 629>
VStem: 258 182<131 1237 119 1237> 911 73
AnchorPoint: "Anchor-5" 567 0 basechar 0
AnchorPoint: "Anchor-3" 352 1366 basechar 0
LayerCount: 2
Fore
SplineSet
61 0 m 1x78
 74 76 l 1
 140 84 203 96 258 131 c 1xb8
 258 1237 l 1
 201 1268 127 1284 61 1292 c 1
 72 1366 l 1
 639 1366 l 1
 629 1292 l 1
 561 1284 499 1270 440 1237 c 1
 440 119 l 1
 823 119 l 1
 876 193 899 276 911 350 c 1
 921 354 934 356 948 356 c 0
 962 356 977 354 993 350 c 1
 975 0 l 1
 61 0 l 1x78
EndSplineSet
AlternateSubs2: "'ssty' Math Script Style lookup 4 subtable" glyph3693 glyph3719
EndChar

StartChar: M
Encoding: 77 77 47
Width: 1670
GlyphClass: 2
Flags: HMW
TopRightVertex: 1  1417,205
BottomRightVertex: 1  0,100
HStem: 0 76<61 72 72 72 72 580> 1292 74<61 465 1747 1747>
VStem: 258 131<131 1102 131 1237> 1378 180<131 1083 1083 1083>
LayerCount: 2
Fore
SplineSet
61 0 m 1
 72 76 l 1
 150 84 209 100 258 131 c 1
 258 1237 l 1
 201 1268 127 1284 61 1292 c 1
 70 1366 l 1
 465 1366 l 1
 924 252 l 1
 1366 1366 l 1
 1757 1366 l 1
 1747 1292 l 1
 1677 1284 1618 1270 1559 1237 c 1
 1559 131 l 1
 1618 96 1689 84 1757 76 c 1
 1749 0 l 1
 1180 0 l 1
 1190 76 l 1
 1260 84 1319 96 1378 131 c 1
 1378 1083 l 1
 1370 1083 l 1
 954 0 l 1
 834 0 l 1
 397 1102 l 1
 389 1102 l 1
 389 131 l 1
 434 104 506 84 588 76 c 1
 580 0 l 1
 61 0 l 1
EndSplineSet
AlternateSubs2: "'ssty' Math Script Style lookup 4 subtable" glyph3694 glyph3720
EndChar

StartChar: N
Encoding: 78 78 48
Width: 1394
GlyphClass: 2
Flags: HMW
TopRightVertex: 1  1417,205
BottomRightVertex: 1  0,100
HStem: 0 76<61 74 74 74 74 582> 1292 74<61 397 1364 1364>
VStem: 262 129<131 1055 131 1237> 1042 133<391 1237 0 1237>
AnchorPoint: "Anchor-5" 758 0 basechar 0
AnchorPoint: "Anchor-3" 711 1366 basechar 0
LayerCount: 2
Fore
SplineSet
61 0 m 1
 74 76 l 1
 142 84 203 96 262 131 c 1
 262 1237 l 1
 203 1268 131 1284 61 1292 c 1
 72 1366 l 1
 397 1366 l 1
 1042 391 l 1
 1042 1237 l 1
 987 1268 912 1284 846 1292 c 1
 856 1366 l 1
 1374 1366 l 1
 1364 1292 l 1
 1294 1284 1235 1270 1176 1237 c 1
 1176 0 l 1
 1087 0 l 1
 391 1055 l 1
 391 131 l 1
 448 98 524 84 590 76 c 1
 582 0 l 1
 61 0 l 1
EndSplineSet
AlternateSubs2: "'ssty' Math Script Style lookup 4 subtable" glyph3695 glyph3721
EndChar

StartChar: O
Encoding: 79 79 49
Width: 1338
GlyphClass: 2
Flags: HMW
TopRightVertex: 1  1452,143
BottomRightVertex: 1  0,100
HStem: -14 100<461 768 461 823> 1282 102<461 768>
VStem: 53 207<527 842 527 898> 967 207<525 840>
AnchorPoint: "Anchor-3" 612 1366 basechar 0
LayerCount: 2
Fore
SplineSet
614 -14 m 0
 194 -14 53 258 53 684 c 0
 53 1112 194 1384 614 1384 c 0
 1032 1384 1174 1110 1174 682 c 0
 1174 256 1032 -14 614 -14 c 0
614 86 m 0
 921 86 967 369 967 682 c 0
 967 997 921 1282 614 1282 c 0
 307 1282 260 999 260 684 c 0
 260 371 307 86 614 86 c 0
EndSplineSet
AlternateSubs2: "'ssty' Math Script Style lookup 4 subtable" glyph3696 glyph3722
EndChar

StartChar: P
Encoding: 80 80 50
Width: 1163
GlyphClass: 2
Flags: HMW
TopRightVertex: 1  1417,205
BottomRightVertex: 1  0,100
HStem: 0 76<63 76 76 76 76 633> 600 92<442 508 442 508> 1280 86<557 598 598 664> 1292 74<61 598>
VStem: 262 180<131 600 692 1237 1237 1237> 868 184<886 1099>
LayerCount: 2
Fore
SplineSet
63 0 m 1xec
 76 76 l 1
 142 84 203 96 262 131 c 1
 262 1237 l 1
 203 1268 131 1284 61 1292 c 1xdc
 72 1366 l 1
 598 1366 l 2
 915 1366 1053 1225 1053 987 c 0
 1053 686 838 600 508 600 c 2
 442 600 l 1
 442 131 l 1
 501 96 573 84 641 76 c 1
 633 0 l 1
 63 0 l 1xec
442 692 m 1
 508 692 l 2
 729 692 868 780 868 991 c 0
 868 1206 750 1280 578 1280 c 0
 537 1280 489 1276 442 1268 c 1xec
 442 692 l 1
EndSplineSet
AlternateSubs2: "'ssty' Math Script Style lookup 4 subtable" glyph3697 glyph3723
EndChar

StartChar: Q
Encoding: 81 81 51
Width: 1338
GlyphClass: 2
Flags: HMW
TopRightVertex: 1  1452,205
BottomRightVertex: 1  0,231
HStem: -4 90 1282 102<461 768>
VStem: 53 207<527 842 527 898> 967 207<525 840> 1028 20
LayerCount: 2
Fore
SplineSet
1028 -348 m 1xe8
 782 -307 647 -168 567 -12 c 1
 184 6 53 274 53 684 c 0
 53 1112 194 1384 614 1384 c 0
 1032 1384 1174 1110 1174 682 c 0xf0
 1174 301 1059 45 733 -4 c 1
 782 -133 904 -238 1049 -287 c 1
 1049 -299 l 2
 1049 -317 1042 -336 1028 -348 c 1xe8
614 86 m 0xf0
 921 86 967 369 967 682 c 0
 967 997 921 1282 614 1282 c 0
 307 1282 260 999 260 684 c 0
 260 371 307 86 614 86 c 0xf0
EndSplineSet
AlternateSubs2: "'ssty' Math Script Style lookup 4 subtable" glyph3698 glyph3724
EndChar

StartChar: R
Encoding: 82 82 52
Width: 1272
GlyphClass: 2
Flags: HMW
TopRightVertex: 1  1417,205
BottomRightVertex: 1  0,100
HStem: 0 76<63 74 74 74 74 631> 0 78<924 1245> 637 94<442 483 442 506> 1282 84<568 598 598 690> 1292 74<61 598>
VStem: 262 180<131 637 731 1237 1237 1237> 883 184<915 1100>
AnchorPoint: "Anchor-5" 715 0 basechar 0
AnchorPoint: "Anchor-3" 602 1366 basechar 0
LayerCount: 2
Fore
SplineSet
63 0 m 1xb6
 74 76 l 1
 158 86 213 102 262 131 c 1
 262 1237 l 1
 215 1264 149 1282 61 1292 c 1xae
 72 1366 l 1
 598 1366 l 2
 907 1366 1067 1248 1067 1006 c 0
 1067 826 979 715 784 668 c 1
 837 633 874 576 911 492 c 2
 1073 131 l 1
 1112 104 1167 86 1245 78 c 1x76
 1233 0 l 1
 924 0 l 1
 745 457 l 2
 679 623 659 637 483 637 c 2
 442 637 l 1
 442 131 l 1
 481 106 532 90 641 76 c 1
 631 0 l 1
 63 0 l 1xb6
442 731 m 1
 506 731 l 2
 762 731 883 822 883 1010 c 0
 883 1190 784 1282 596 1282 c 0
 541 1282 514 1280 442 1268 c 1xb6
 442 731 l 1
EndSplineSet
AlternateSubs2: "'ssty' Math Script Style lookup 4 subtable" glyph3699 glyph3725
EndChar

StartChar: S
Encoding: 83 83 53
Width: 1016
GlyphClass: 2
Flags: HMW
TopRightVertex: 1  1452,205
BottomRightVertex: 1  0,100
HStem: -14 102<386 520 386 554> 1280 104<400 544>
VStem: 37 100<92 438 428 438> 55 176<995 1130> 684 178<1127 1189> 700 186<252 414>
AnchorPoint: "Anchor-5" 459 0 basechar 0
AnchorPoint: "Anchor-4" 471 0 basechar 0
AnchorPoint: "Anchor-3" 461 1366 basechar 0
LayerCount: 2
Fore
SplineSet
416 -14 m 0xd4
 260 -14 90 53 37 92 c 1
 37 428 l 1
 137 438 l 1
 151 327 166 237 211 135 c 1
 260 112 327 88 444 88 c 0
 596 88 700 176 700 328 c 0xe4
 700 500 556 564 406 627 c 0
 240 699 55 782 55 1022 c 0
 55 1239 209 1384 477 1384 c 0
 684 1384 862 1271 862 1124 c 0
 862 1038 828 993 760 993 c 0
 690 993 664 1020 641 1051 c 1
 661 1071 684 1100 684 1155 c 0xd8
 684 1223 612 1280 475 1280 c 0
 325 1280 231 1210 231 1073 c 0
 231 917 366 860 516 797 c 0
 692 721 887 637 887 371 c 0
 887 117 692 -14 416 -14 c 0xd4
EndSplineSet
AlternateSubs2: "'ssty' Math Script Style lookup 4 subtable" glyph3700 glyph3726
EndChar

StartChar: T
Encoding: 84 84 54
Width: 1214
GlyphClass: 2
Flags: HMW
TopRightVertex: 1  1417,238
BottomRightVertex: 1  0,0
HStem: 0 76<283 295 295 295 295 852> 1020 354<45 98> 1274 100
VStem: 45 90<1022 1022> 481 180<131 1274 131 1274> 1006 90<1022 1022>
CounterMasks: 1 38
AnchorPoint: "Anchor-5" 571 0 basechar 0
AnchorPoint: "Anchor-3" 569 1366 basechar 0
LayerCount: 2
Fore
SplineSet
283 0 m 1xbc
 295 76 l 1
 361 84 424 96 481 131 c 1
 481 1274 l 1
 352 1272 270 1266 213 1260 c 1xbc
 160 1186 137 1083 135 1022 c 1
 121 1020 104 1020 92 1020 c 0
 76 1020 59 1020 45 1022 c 1xdc
 45 1374 l 1
 45 1374 315 1366 569 1366 c 0
 764 1366 1076 1372 1096 1374 c 1xbc
 1096 1022 l 1
 1082 1020 1067 1020 1053 1020 c 0
 1037 1020 1022 1020 1006 1022 c 1xdc
 1000 1081 981 1183 932 1257 c 1
 875 1263 793 1272 662 1274 c 1
 662 131 l 1
 721 98 794 84 862 76 c 1
 852 0 l 1
 283 0 l 1xbc
EndSplineSet
AlternateSubs2: "'ssty' Math Script Style lookup 4 subtable" glyph3701 glyph3727
EndChar

StartChar: U
Encoding: 85 85 55
Width: 1327
GlyphClass: 2
Flags: HMW
TopRightVertex: 1  1417,205
BottomRightVertex: 1  0,47
HStem: -14 106<614 826 614 869> 1292 74<25 606 594 594 1372 1372>
VStem: 223 186<430 1237> 1053 131<442 1237>
AnchorPoint: "Anchor-3" 707 1366 basechar 0
AnchorPoint: "Anchor-2" 872 0 basechar 0
LayerCount: 2
Fore
SplineSet
721 -14 m 0
 369 -14 223 123 223 430 c 2
 223 1237 l 1
 176 1262 113 1282 25 1292 c 1
 33 1366 l 1
 606 1366 l 1
 594 1292 l 1
 510 1278 457 1262 410 1237 c 1
 410 430 l 2
 410 186 508 92 721 92 c 0
 932 92 1053 215 1053 442 c 2
 1053 1237 l 1
 1008 1262 942 1282 854 1292 c 1
 864 1366 l 1
 1382 1366 l 1
 1372 1292 l 1
 1284 1278 1231 1262 1184 1237 c 1
 1184 442 l 2
 1184 149 1018 -14 721 -14 c 0
EndSplineSet
AlternateSubs2: "'ssty' Math Script Style lookup 4 subtable" glyph3702 glyph3728
EndChar

StartChar: V
Encoding: 86 86 56
Width: 1236
GlyphClass: 2
Flags: HMW
TopRightVertex: 1  1417,205
BottomRightVertex: 1  0,0
HStem: 0 43G<575 575 575 674> 1292 74<8 514 502 502 1202 1202>
VStem: 8 1206<1292 1366>
LayerCount: 2
Fore
SplineSet
575 0 m 1
 133 1237 l 1
 104 1262 53 1282 8 1292 c 1
 18 1366 l 1
 514 1366 l 1
 502 1292 l 1
 439 1284 381 1270 326 1237 c 1
 647 313 l 1
 940 1237 l 1
 885 1266 820 1284 754 1292 c 1
 764 1366 l 1
 1214 1366 l 1
 1202 1292 l 1
 1157 1284 1116 1268 1075 1239 c 1
 674 0 l 1
 575 0 l 1
EndSplineSet
AlternateSubs2: "'ssty' Math Script Style lookup 4 subtable" glyph3703 glyph3729
EndChar

StartChar: W
Encoding: 87 87 57
Width: 1887
GlyphClass: 2
Flags: HMW
TopRightVertex: 1  1434,205
BottomRightVertex: 1  0,0
HStem: 0 43G<524 524 524 623 1225 1225 1225 1323> 1292 74<8 514 502 502 1800 1800>
VStem: 8 1804<1292 1366>
AnchorPoint: "Anchor-3" 932 1366 basechar 0
LayerCount: 2
Fore
SplineSet
524 0 m 1
 131 1239 l 1
 100 1264 53 1282 8 1292 c 1
 16 1366 l 1
 514 1366 l 1
 502 1292 l 1
 439 1284 381 1270 326 1237 c 1
 596 326 l 1
 901 1366 l 1
 967 1366 l 1
 1294 330 l 1
 1538 1237 l 1
 1483 1266 1420 1284 1352 1292 c 1
 1362 1366 l 1
 1812 1366 l 1
 1800 1292 l 1
 1757 1284 1716 1268 1677 1241 c 1
 1323 0 l 1
 1225 0 l 1
 909 946 l 1
 623 0 l 1
 524 0 l 1
EndSplineSet
AlternateSubs2: "'ssty' Math Script Style lookup 4 subtable" glyph3704 glyph3730
EndChar

StartChar: X
Encoding: 88 88 58
Width: 1170
GlyphClass: 2
Flags: HMW
TopRightVertex: 1  1434,205
BottomRightVertex: 1  0,100
HStem: 0 76<-51 -41 -41 -41 428 469 678 727> 1292 74<20 537 524 524 1137 1137>
VStem: -51 1274<0 76>
LayerCount: 2
Fore
SplineSet
-51 0 m 1
 -41 76 l 1
 22 80 86 90 139 125 c 1
 496 694 l 1
 145 1239 l 1
 116 1259 75 1278 20 1292 c 1
 31 1366 l 1
 537 1366 l 1
 524 1292 l 1
 456 1282 399 1262 360 1237 c 1
 610 844 l 1
 856 1237 l 1
 821 1257 762 1280 692 1292 c 1
 702 1366 l 1
 1147 1366 l 1
 1137 1292 l 1
 1080 1284 1039 1264 1006 1239 c 1
 686 727 l 1
 1071 125 l 1
 1122 90 1182 82 1223 76 c 1
 1212 0 l 1
 668 0 l 1
 678 76 l 1
 776 76 821 96 854 129 c 1
 567 580 l 1
 287 125 l 1
 314 90 379 76 477 76 c 1
 469 0 l 1
 -51 0 l 1
EndSplineSet
AlternateSubs2: "'ssty' Math Script Style lookup 4 subtable" glyph3705 glyph3731
EndChar

StartChar: Y
Encoding: 89 89 59
Width: 1168
GlyphClass: 2
Flags: HMW
TopRightVertex: 1  1444,205
BottomRightVertex: 1  0,0
HStem: 0 76<274 285 285 285 285 864> 1292 74<8 524 514 514 1120 1120>
VStem: 483 180<131 543 543 543>
AnchorPoint: "Anchor-3" 590 1366 basechar 0
LayerCount: 2
Fore
SplineSet
274 0 m 1
 285 76 l 1
 359 84 420 94 483 131 c 1
 483 543 l 1
 135 1239 l 1
 104 1262 55 1282 8 1292 c 1
 18 1366 l 1
 524 1366 l 1
 514 1292 l 1
 453 1284 393 1270 336 1237 c 1
 592 702 l 1
 854 1239 l 1
 803 1266 738 1284 672 1292 c 1
 682 1366 l 1
 1133 1366 l 1
 1120 1292 l 1
 1075 1284 1032 1268 995 1239 c 1
 664 567 l 1
 664 131 l 1
 725 96 800 84 872 76 c 1
 864 0 l 1
 274 0 l 1
EndSplineSet
AlternateSubs2: "'ssty' Math Script Style lookup 4 subtable" glyph3706 glyph3732
EndChar

StartChar: Z
Encoding: 90 90 60
Width: 1101
GlyphClass: 2
Flags: HMW
TopRightVertex: 1  1417,205
BottomRightVertex: 1  0,100
HStem: -6 43G<973 973> 0 106<360 546> 1026 350<123 136> 1262 115 1294 82 1327 49
VStem: 82 90
AnchorPoint: "Anchor-3" 565 1366 basechar 0
LayerCount: 2
Fore
SplineSet
55 -8 m 1x92
 49 94 l 1
 758 1260 l 1
 695 1262 620 1262 520 1262 c 0
 424 1262 362 1259 270 1257 c 1x92
 221 1214 186 1112 172 1028 c 1
 160 1028 143 1026 129 1026 c 0
 119 1026 104 1026 94 1028 c 1x62
 70 1327 l 1
 123 1376 l 1
 123 1376 369 1366 578 1366 c 0x46
 752 1366 920 1374 975 1376 c 1x52
 993 1294 l 1
 266 106 l 1
 327 104 676 104 768 106 c 1
 827 178 876 271 903 371 c 1
 915 373 934 375 946 375 c 0
 962 375 977 373 991 371 c 1
 973 -6 l 1
 879 -2 631 0 461 0 c 0x4a
 260 0 69 -6 55 -8 c 1x92
EndSplineSet
AlternateSubs2: "'ssty' Math Script Style lookup 4 subtable" glyph3707 glyph3733
EndChar

StartChar: bracketleft
Encoding: 91 91 61
Width: 717
GlyphClass: 2
Flags: HMW
GlyphVariantsVertical: bracketleft bracketBigl bracketbiggl bracketBiggl
GlyphCompositionVertical: 3  uni23A3%0,0,72,1819 uni23A2%1,31,31,664 uni23A1%0,72,0,1819
HStem: -287 80 1374 78
VStem: 227 139<-197 1364 -197 1452 -197 1452> 227 371<-287 -217 1384 1452>
LayerCount: 2
Fore
SplineSet
227 -287 m 1xe0
 227 1452 l 1xe0
 598 1452 l 1
 598 1384 l 1xd0
 367 1364 l 1
 367 -197 l 1xe0
 598 -217 l 1
 598 -287 l 1xd0
 227 -287 l 1xe0
EndSplineSet
EndChar

StartChar: backslash
Encoding: 92 92 62
Width: 1004
GlyphClass: 2
Flags: HW
HStem: -256 1673<215 727>
VStem: 100 741
LayerCount: 2
Fore
SplineSet
727 -256 m 1
 100 1374 l 1
 215 1417 l 1
 842 -213 l 1
 727 -256 l 1
EndSplineSet
EndChar

StartChar: bracketright
Encoding: 93 93 63
Width: 717
GlyphClass: 2
Flags: HMW
GlyphVariantsVertical: bracketright bracketBigr bracketbiggr bracketBiggr
GlyphCompositionVertical: 3  uni23A6%0,0,72,1819 uni23A5%1,31,31,664 uni23A4%0,72,0,1819
HStem: -287 80 1374 78
VStem: 119 371<-287 -217 -217 -217 1384 1452 -287 1452> 350 139<-197 1364 1364 1364>
LayerCount: 2
Fore
SplineSet
119 -287 m 1xe0
 119 -217 l 1xe0
 350 -197 l 1
 350 1364 l 1xd0
 119 1384 l 1
 119 1452 l 1xe0
 489 1452 l 1
 489 -287 l 1xd0
 119 -287 l 1xe0
EndSplineSet
EndChar

StartChar: asciicircum
Encoding: 94 94 64
Width: 1134
GlyphClass: 2
Flags: HMW
HStem: 1237 143<567 567> 1339 41G<514 621 621 621>
VStem: 143 848<729 729>
LayerCount: 2
Fore
SplineSet
248 678 m 1x60
 143 729 l 1
 514 1380 l 1
 621 1380 l 1
 991 729 l 1
 889 678 l 1
 567 1237 l 1xa0
 248 678 l 1x60
EndSplineSet
EndChar

StartChar: underscore
Encoding: 95 95 65
Width: 759
GlyphClass: 2
Flags: HMW
HStem: -229 111<0 760 0 760>
VStem: 0 760<-229 -119 -229 -119>
LayerCount: 2
Fore
SplineSet
0 -229 m 1
 0 -119 l 1
 760 -119 l 1
 760 -229 l 1
 0 -229 l 1
EndSplineSet
EndChar

StartChar: grave
Encoding: 96 96 66
Width: 583
GlyphClass: 2
Flags: HMW
HStem: 1118 322<54 260>
VStem: 0 309<1167 1386>
LayerCount: 2
Fore
SplineSet
260 1118 m 1
 51 1288 l 2
 20 1315 0 1335 0 1368 c 0
 0 1405 35 1440 74 1440 c 0
 103 1440 121 1430 139 1405 c 2
 309 1167 l 1
 260 1118 l 1
EndSplineSet
EndChar

StartChar: a
Encoding: 97 97 67
Width: 1000
GlyphClass: 2
Flags: HMW
TopRightVertex: 1  961,166
BottomRightVertex: 1  0,100
HStem: -14 84<325 375> 0 70 439 85 893 82<368 485>
VStem: 53 180<182 292 182 308> 78 174<783 815> 604 174<188 446 446 446 530 696 125 765>
AnchorPoint: "Anchor-3" 428 956 basechar 0
AnchorPoint: "Anchor-2" 774 0 basechar 0
LayerCount: 2
Fore
SplineSet
319 -14 m 0xba
 151 -14 53 72 53 219 c 0xba
 53 397 186 502 436 518 c 2
 604 530 l 1
 604 696 l 2
 604 833 549 893 422 893 c 0
 313 893 252 858 252 801 c 0
 252 766 274 739 313 725 c 1
 313 662 273 627 197 627 c 0
 125 627 78 673 78 745 c 0
 78 884 211 975 422 975 c 0
 645 975 778 872 778 696 c 2
 778 125 l 1
 803 107 863 82 922 70 c 1xb6
 913 0 l 1
 631 0 l 1x76
 610 92 l 1
 520 8 430 -14 319 -14 c 0xba
371 70 m 0
 449 70 516 104 604 188 c 1
 604 446 l 1
 440 432 l 2
 311 422 233 347 233 238 c 0
 233 127 279 70 371 70 c 0
EndSplineSet
AlternateSubs2: "'ssty' Math Script Style lookup 4 subtable" glyph3600 glyph3626
EndChar

StartChar: b
Encoding: 98 98 68
Width: 1121
GlyphClass: 2
Flags: HMW
TopRightVertex: 1  1487,-98
BottomRightVertex: 1  0,100
HStem: -14 86<531 685 531 713> 0 43G<188 287 188 188> 887 88<555 707> 1296 61<45 51>
VStem: 188 98<0 1161> 188 176<174 420 831 1161 1161 1212> 821 186<390 590>
LayerCount: 2
Fore
SplineSet
565 -14 m 0xb6
 465 -14 385 33 328 86 c 1xba
 308 55 295 33 287 0 c 1x7a
 188 0 l 1x76
 188 1161 l 2
 188 1263 151 1292 45 1296 c 1
 51 1358 l 1
 143 1372 240 1402 324 1427 c 1
 365 1407 l 1
 365 831 l 1
 406 909 504 975 606 975 c 0
 897 975 1008 770 1008 485 c 0
 1008 200 860 -14 565 -14 c 0xb6
575 72 m 0
 794 72 821 295 821 485 c 0
 821 694 803 887 610 887 c 0
 389 887 365 645 365 420 c 2
 365 174 l 1
 418 127 487 72 575 72 c 0
EndSplineSet
AlternateSubs2: "'ssty' Math Script Style lookup 4 subtable" glyph3601 glyph3627
EndChar

StartChar: c
Encoding: 99 99 69
Width: 903
GlyphClass: 2
Flags: HMW
TopRightVertex: 1  1018,270
BottomRightVertex: 1  0,100
HStem: -14 100<386 577 386 587> 901 74<391 536>
VStem: 57 190<373 487> 625 188<773 819>
AnchorPoint: "Anchor-4" 485 0 basechar 0
AnchorPoint: "Anchor-3" 475 956 basechar 0
LayerCount: 2
Fore
SplineSet
489 -14 m 0
 170 -14 57 168 57 487 c 0
 61 809 211 975 498 975 c 0
 686 975 813 887 813 758 c 0
 813 695 764 637 705 637 c 0
 654 637 610 668 598 711 c 1
 614 738 625 761 625 784 c 0
 625 854 574 901 498 901 c 0
 285 901 248 704 248 487 c 0
 248 258 273 86 500 86 c 0
 654 86 760 182 760 182 c 1
 813 121 l 1
 813 121 684 -14 489 -14 c 0
EndSplineSet
AlternateSubs2: "'ssty' Math Script Style lookup 4 subtable" glyph3602 glyph3628
EndChar

StartChar: d
Encoding: 100 100 70
Width: 1136
GlyphClass: 2
Flags: HMW
TopRightVertex: 1  1487,102
BottomRightVertex: 1  0,100
HStem: -14 88<378 492> 0 70<711 1012> 0 125<870 870 870 1006> 889 86<427 553 371 560> 1296 59<553 557>
VStem: 57 180<327 595 327 627> 694 176<121 1407 459 848 848 848 940 1161 1161 1212>
LayerCount: 2
Fore
SplineSet
432 -14 m 0x96
 184 -14 57 146 57 459 c 0
 57 795 221 975 520 975 c 0
 586 975 639 963 694 940 c 1
 694 1161 l 2
 694 1263 657 1292 553 1296 c 1
 557 1356 l 1
 649 1372 745 1402 829 1427 c 1
 870 1407 l 1
 870 125 l 1x3e
 903 100 953 82 1012 70 c 1
 1006 0 l 1
 711 0 l 1x56
 694 121 l 1
 637 31 551 -14 432 -14 c 0x96
451 74 m 0
 609 74 694 201 694 459 c 2
 694 848 l 1
 655 868 606 889 514 889 c 0
 340 889 238 731 238 459 c 0
 238 195 306 74 451 74 c 0
EndSplineSet
AlternateSubs2: "'ssty' Math Script Style lookup 4 subtable" glyph3603 glyph3629
EndChar

StartChar: e
Encoding: 101 101 71
Width: 999
GlyphClass: 2
Flags: HMW
TopRightVertex: 1  961,178
BottomRightVertex: 1  0,100
HStem: -14 100<383 561 383 571> 498 83 893 82<395 555>
VStem: 57 188<373 487 487 498 373 573 373 636> 674 184<553 690>
AnchorPoint: "Anchor-3" 457 956 basechar 0
AnchorPoint: "Anchor-2" 719 0 basechar 0
LayerCount: 2
Fore
SplineSet
485 -14 m 0
 168 -14 57 168 57 487 c 0
 57 784 200 975 485 975 c 0
 772 975 850 811 858 553 c 1
 815 498 l 1
 246 498 l 1
 246 487 l 2
 246 258 269 86 498 86 c 0
 625 86 723 153 760 182 c 1
 811 121 l 1
 774 86 657 -14 485 -14 c 0
246 573 m 1
 674 588 l 1
 674 793 633 893 477 893 c 0
 313 893 250 759 246 573 c 1
EndSplineSet
AlternateSubs2: "'ssty' Math Script Style lookup 4 subtable" glyph3604 glyph3630
EndChar

StartChar: f
Encoding: 102 102 72
Width: 620
GlyphClass: 2
Flags: HMW
TopRightVertex: 1  1509,324
BottomRightVertex: 1  0,100
HStem: 0 74<61 70 70 70 70 528> 854 72<43 205 43 53> 854 109<53 205 379 592> 1376 76<436 520>
VStem: 205 150<963 1252 1172 1177> 205 174<127 854 127 854 963 1000 127 1073> 590 162<1288 1321>
LayerCount: 2
Fore
SplineSet
61 0 m 1xb4
 70 74 l 1
 131 84 164 94 205 127 c 1
 205 854 l 1
 53 854 l 1xb4
 43 926 l 1xd4
 90 930 148 938 205 963 c 1
 205 1073 l 2xb4
 205 1280 281 1452 502 1452 c 0
 633 1452 752 1385 752 1274 c 0
 752 1186 696 1147 645 1147 c 0
 602 1147 561 1174 553 1225 c 1
 578 1250 590 1275 590 1300 c 0
 590 1341 553 1376 487 1376 c 0
 385 1376 354 1296 354 1208 c 0xba
 354 1136 379 1039 379 963 c 1
 592 963 l 1
 592 854 l 1
 379 854 l 1
 379 127 l 1
 414 100 476 82 535 70 c 1
 528 0 l 1
 61 0 l 1xb4
EndSplineSet
AlternateSubs2: "'ssty' Math Script Style lookup 4 subtable" glyph3605 glyph3631
EndChar

StartChar: g
Encoding: 103 103 73
Width: 1012
GlyphClass: 2
Flags: HMW
TopRightVertex: 1  961,338
BottomRightVertex: 1  0,100
HStem: -449 84<401 561 401 630> -2 139<463 500 326 549> 301 84<418 446 418 418> 891 82<380 494 322 513>
VStem: 45 188<-231 -130 -231 -118> 72 184<549 726 549 742> 637 186<549 680 530 726> 727 188<-232 -105> 750 141<1004 1018>
AnchorPoint: "Anchor-3" 453 956 basechar 0
LayerCount: 2
Fore
SplineSet
481 -449 m 0xf9
 184 -449 45 -344 45 -190 c 0
 45 -45 94 -2 203 57 c 1
 174 90 158 138 158 195 c 1xfa
 326 313 l 1
 164 352 72 467 72 631 c 0
 72 854 196 973 446 973 c 0
 540 973 617 957 676 924 c 1
 723 938 750 965 750 1004 c 0
 750 1033 727 1061 692 1077 c 1
 692 1118 729 1147 788 1147 c 0
 849 1147 891 1105 891 1044 c 0xf480
 891 962 842 899 748 866 c 1
 799 809 823 729 823 631 c 0xf6
 823 430 679 301 446 301 c 2
 418 301 l 1
 332 195 l 1
 338 156 365 139 463 137 c 2
 549 137 l 2
 817 137 915 -4 915 -164 c 0
 915 -344 778 -449 481 -449 c 0xf9
446 385 m 0xf6
 581 385 637 461 637 637 c 0
 637 815 579 891 446 891 c 0
 313 891 256 815 256 637 c 0
 256 461 311 385 446 385 c 0xf6
481 -365 m 0xf9
 641 -365 727 -301 727 -164 c 0
 727 -47 643 -2 500 -2 c 2
 326 -2 l 1
 267 -41 233 -96 233 -164 c 0
 233 -299 321 -365 481 -365 c 0xf9
EndSplineSet
AlternateSubs2: "'ssty' Math Script Style lookup 4 subtable" glyph3606 glyph3632
EndChar

StartChar: h
Encoding: 104 104 74
Width: 1130
GlyphClass: 2
Flags: HMW
TopRightVertex: 1  1487,-20
BottomRightVertex: 1  0,100
HStem: 0 70<635 641 641 641 641 1085> 0 72<53 514> 0 76<53 61 61 61 61 506> 877 98<584 659> 1296 61<53 59>
VStem: 197 174<127 705 836 1161 1161 1212> 776 174<127 674 674 692 127 742>
AnchorPoint: "Anchor-3" 614 1366 basechar 0
LayerCount: 2
Fore
SplineSet
53 0 m 1x96
 61 76 l 1
 122 84 156 94 197 127 c 1x36
 197 1161 l 2
 197 1263 157 1292 53 1296 c 1
 59 1358 l 1
 151 1372 248 1402 332 1427 c 1
 371 1407 l 1
 371 836 l 1
 437 920 533 975 635 975 c 0
 834 975 950 870 950 692 c 2
 950 127 l 1
 975 107 1035 82 1094 70 c 1
 1085 0 l 1
 635 0 l 1
 641 70 l 1
 692 78 737 96 776 127 c 1x9e
 776 674 l 2
 776 811 717 877 602 877 c 0
 508 877 414 807 371 705 c 1
 371 127 l 1
 406 100 455 82 514 72 c 1x56
 506 0 l 1
 53 0 l 1x96
EndSplineSet
AlternateSubs2: "'ssty' Math Script Style lookup 4 subtable" glyph3607 glyph3633
EndChar

StartChar: i
Encoding: 105 105 75
Width: 569
GlyphClass: 2
Flags: HMW
TopRightVertex: 1  1407,205
BottomRightVertex: 1  0,100
HStem: 0 74<61 70 70 70 70 514> 850 59<61 68> 918 41G<379 379> 1133 238<231 304>
VStem: 162 215<1213 1289> 205 174<125 715 715 766>
AnchorPoint: "Anchor-3" 268 956 basechar 0
AnchorPoint: "Anchor-2" 522 0 basechar 0
LayerCount: 2
Fore
SplineSet
268 1133 m 0xb8
 194 1133 162 1175 162 1251 c 0
 162 1327 194 1370 268 1370 c 0
 340 1370 377 1327 377 1251 c 0
 377 1175 340 1133 268 1133 c 0xb8
61 0 m 1
 70 74 l 1
 129 84 162 94 205 125 c 1
 205 715 l 2
 205 817 165 846 61 850 c 1
 68 909 l 1
 160 925 256 956 338 981 c 1xd4
 379 958 l 1
 379 125 l 1
 414 100 463 82 522 70 c 1
 514 0 l 1xb4
 61 0 l 1
EndSplineSet
AlternateSubs2: "'ssty' Math Script Style lookup 4 subtable" glyph3608 glyph3634
Substitution2: "'dtls' Dotless Forms lookup 2 subtable" dotlessi
EndChar

StartChar: j
Encoding: 106 106 76
Width: 545
GlyphClass: 2
Flags: HMW
TopRightVertex: 1  1409,205
BottomRightVertex: 1  0,100
HStem: -442 88<113 169 113 174> 850 59<51 57> 918 41G<369 369> 1133 238<229 302>
VStem: -86 147<-300 -267 -300 -255> 160 215<1213 1289> 195 174<150 715 715 766> 219 150<-258 -68>
AnchorPoint: "Anchor-3" 266 956 basechar 0
LayerCount: 2
Fore
SplineSet
266 1133 m 0xbc
 192 1133 160 1175 160 1251 c 0
 160 1327 192 1370 266 1370 c 0
 338 1370 375 1327 375 1251 c 0
 375 1175 338 1133 266 1133 c 0xbc
135 -442 m 0
 18 -442 -86 -402 -86 -285 c 0
 -86 -226 -47 -172 12 -172 c 0
 47 -172 76 -186 92 -213 c 1
 74 -227 61 -254 61 -281 c 0
 61 -320 88 -354 137 -354 c 0
 200 -354 219 -295 219 -221 c 0xb9
 219 -78 195 -32 195 150 c 2
 195 715 l 2
 195 817 155 846 51 850 c 1
 57 909 l 1
 149 925 246 954 330 981 c 1xd2
 369 958 l 1
 369 -68 l 2
 369 -181 356 -295 301 -367 c 0xb2
 266 -414 213 -442 135 -442 c 0
EndSplineSet
AlternateSubs2: "'ssty' Math Script Style lookup 4 subtable" glyph3609 glyph3635
Substitution2: "'dtls' Dotless Forms lookup 2 subtable" j.dtls
EndChar

StartChar: k
Encoding: 107 107 77
Width: 1074
GlyphClass: 2
Flags: HMW
TopRightVertex: 1  1487,143
BottomRightVertex: 1  0,100
HStem: 0 72<53 514> 0 76<53 61 61 61 61 506> 895 61<719 997> 1296 61<53 59>
VStem: 197 174<127 408 559 1161 1161 1212>
AnchorPoint: "Anchor-5" 565 0 basechar 0
LayerCount: 2
Fore
SplineSet
53 0 m 1x68
 61 76 l 1
 122 84 156 94 197 127 c 1x68
 197 1161 l 2
 197 1263 157 1292 53 1296 c 1
 59 1358 l 1
 151 1372 248 1402 332 1427 c 1
 371 1407 l 1
 371 559 l 1
 651 842 l 2
 698 891 713 929 719 956 c 1
 991 956 l 1
 997 895 l 1
 913 891 835 868 772 807 c 2
 584 618 l 1
 891 129 l 1
 938 102 1005 82 1079 72 c 1xb8
 1071 0 l 1
 778 0 l 1x68
 465 500 l 1
 371 408 l 1
 371 127 l 1
 406 100 455 82 514 72 c 1xa8
 506 0 l 1
 53 0 l 1x68
EndSplineSet
AlternateSubs2: "'ssty' Math Script Style lookup 4 subtable" glyph3610 glyph3636
EndChar

StartChar: l
Encoding: 108 108 78
Width: 556
GlyphClass: 2
Flags: HMW
TopRightVertex: 1  1487,164
BottomRightVertex: 1  0,100
HStem: 0 72<53 514> 0 76<53 61 61 61 61 506> 1296 61<53 59>
VStem: 197 174<127 1161 1161 1212>
AnchorPoint: "Anchor-5" 283 0 basechar 0
AnchorPoint: "Anchor-3" 283 1366 basechar 0
LayerCount: 2
Fore
SplineSet
53 0 m 1x50
 61 76 l 1
 122 84 156 94 197 127 c 1x50
 197 1161 l 2
 197 1263 159 1292 53 1296 c 1
 59 1358 l 1
 151 1372 248 1402 332 1427 c 1
 371 1407 l 1
 371 127 l 1
 406 100 455 82 514 72 c 1xb0
 506 0 l 1
 53 0 l 1x50
EndSplineSet
AlternateSubs2: "'ssty' Math Script Style lookup 4 subtable" glyph3611 glyph3637
EndChar

StartChar: m
Encoding: 109 109 79
Width: 1704
GlyphClass: 2
Flags: HMW
TopRightVertex: 1  961,129
BottomRightVertex: 1  0,100
HStem: 0 70<61 522> 0 74<61 70 70 70 70 514> 846 59<61 68> 877 98<550 653 1106 1199> 915 41G<356 356>
VStem: 205 176<127 711 711 717 127 762> 762 174<127 674 674 739 127 744> 1307 174<127 668 127 674 127 744>
CounterMasks: 1 1c
LayerCount: 2
Fore
SplineSet
61 0 m 1x97
 70 74 l 1
 131 84 164 94 205 127 c 1
 205 711 l 2
 205 813 167 842 61 846 c 1
 68 905 l 1x67
 156 921 241 952 319 975 c 1x97
 356 956 l 1x8f
 371 850 l 1
 385 866 480 975 621 975 c 0
 746 975 836 934 891 848 c 1
 961 911 1048 975 1163 975 c 0
 1331 975 1481 893 1481 668 c 2
 1481 127 l 1
 1508 107 1565 82 1624 70 c 1
 1616 0 l 1
 1167 0 l 1
 1171 70 l 1
 1222 78 1268 96 1307 127 c 1
 1307 674 l 2
 1307 815 1254 877 1145 877 c 0
 1053 877 971 805 936 739 c 1
 936 127 l 1
 961 107 1020 82 1079 70 c 1
 1071 0 l 1
 621 0 l 1
 627 70 l 1
 678 78 723 96 762 127 c 1
 762 674 l 2
 762 815 706 877 600 877 c 0
 498 877 406 789 381 717 c 1
 381 127 l 1
 414 100 463 82 522 70 c 1
 514 0 l 1
 61 0 l 1x97
EndSplineSet
AlternateSubs2: "'ssty' Math Script Style lookup 4 subtable" glyph3612 glyph3638
EndChar

StartChar: n
Encoding: 110 110 80
Width: 1143
GlyphClass: 2
Flags: HMW
TopRightVertex: 1  961,162
BottomRightVertex: 1  0,100
HStem: 0 70<61 522> 0 74<61 70 70 70 70 514> 846 59<61 68> 877 98<591 667> 915 41G<354 354>
VStem: 205 174<127 705 127 711 127 762> 784 174<127 674 674 692 127 742>
AnchorPoint: "Anchor-5" 582 0 basechar 0
AnchorPoint: "Anchor-3" 582 956 basechar 0
LayerCount: 2
Fore
SplineSet
61 0 m 1x96
 70 74 l 1
 129 84 164 94 205 127 c 1
 205 711 l 2
 205 813 165 842 61 846 c 1
 68 905 l 1x66
 156 921 239 952 317 975 c 1x96
 354 956 l 1x8e
 373 829 l 1
 436 917 539 975 643 975 c 0
 842 975 958 870 958 692 c 2
 958 127 l 1
 983 107 1043 82 1102 70 c 1
 1094 0 l 1
 643 0 l 1
 649 70 l 1
 700 78 745 96 784 127 c 1
 784 674 l 2
 784 811 725 877 608 877 c 0
 516 877 422 807 379 705 c 1
 379 127 l 1
 414 100 463 82 522 70 c 1
 514 0 l 1
 61 0 l 1x96
EndSplineSet
AlternateSubs2: "'ssty' Math Script Style lookup 4 subtable" glyph3613 glyph3639
EndChar

StartChar: o
Encoding: 111 111 81
Width: 1087
GlyphClass: 2
Flags: HMW
TopRightVertex: 1  961,174
BottomRightVertex: 1  0,100
HStem: -14 94<402 581 402 636> 881 94<402 581>
VStem: 57 184<339 624 339 642> 745 180<339 624>
AnchorPoint: "Anchor-3" 492 956 basechar 0
LayerCount: 2
Fore
SplineSet
492 -14 m 0
 205 -14 57 159 57 481 c 0
 57 803 205 975 492 975 c 0
 781 975 926 803 926 481 c 0
 926 159 781 -14 492 -14 c 0
492 80 m 0
 670 80 745 196 745 481 c 0
 745 766 670 881 492 881 c 0
 314 881 242 766 242 481 c 0
 242 196 314 80 492 80 c 0
EndSplineSet
AlternateSubs2: "'ssty' Math Script Style lookup 4 subtable" glyph3614 glyph3640
EndChar

StartChar: p
Encoding: 112 112 82
Width: 1139
GlyphClass: 2
Flags: HMW
TopRightVertex: 1  977,205
BottomRightVertex: 1  0,100
HStem: -430 70<53 512> -430 74<53 61 61 61 61 506> -14 86<511 638 505 694> 848 59<53 59> 887 88<571 688> 915 41G<346 346>
VStem: 195 176<-305 18 -305 113 113 502> 827 180<364 633>
LayerCount: 2
Fore
SplineSet
53 -430 m 1x6b
 61 -356 l 1
 120 -348 154 -336 195 -305 c 1
 195 713 l 2
 195 815 157 844 53 848 c 1
 59 907 l 1x73
 147 923 231 954 309 977 c 1x6b
 346 956 l 1x67
 365 831 l 1
 420 925 510 975 633 975 c 0
 881 975 1008 815 1008 500 c 0
 1008 166 844 -14 545 -14 c 0
 477 -14 424 -5 371 18 c 1
 371 -305 l 1
 406 -332 453 -350 512 -360 c 1xab
 506 -430 l 1
 53 -430 l 1x6b
551 72 m 0
 725 72 827 228 827 500 c 0
 827 766 759 887 616 887 c 0x6b
 456 887 371 758 371 502 c 2
 371 113 l 1
 408 93 459 72 551 72 c 0
EndSplineSet
AlternateSubs2: "'ssty' Math Script Style lookup 4 subtable" glyph3615 glyph3641
EndChar

StartChar: q
Encoding: 113 113 83
Width: 1120
GlyphClass: 2
Flags: HMW
TopRightVertex: 1  977,205
BottomRightVertex: 1  0,100
HStem: -434 74<535 543 543 543 543 987> -14 86<352 501> 889 86<364 518> 915 41G<743 852 852 852>
VStem: 57 184<371 566 371 618> 678 174<-309 121 121 121 492 784 784 784>
LayerCount: 2
Fore
SplineSet
535 -434 m 1xec
 543 -360 l 1
 604 -350 635 -340 678 -309 c 1
 678 121 l 1
 629 43 557 -14 444 -14 c 0
 159 -14 57 192 57 475 c 0
 57 762 174 975 481 975 c 0
 575 975 652 932 711 879 c 1xec
 743 956 l 1
 852 956 l 1xdc
 852 -309 l 1
 887 -334 936 -353 995 -365 c 1
 987 -434 l 1
 535 -434 l 1xec
444 72 m 0
 639 72 678 275 678 492 c 2
 678 784 l 1
 627 837 559 889 477 889 c 0
 250 889 242 657 242 475 c 0
 242 266 260 72 444 72 c 0
EndSplineSet
AlternateSubs2: "'ssty' Math Script Style lookup 4 subtable" glyph3616 glyph3642
EndChar

StartChar: r
Encoding: 114 114 84
Width: 847
GlyphClass: 2
Flags: HMW
TopRightVertex: 1  961,299
BottomRightVertex: 1  0,100
HStem: 0 74<61 70 70 70 70 532> 846 59<61 68> 862 113<570 572> 915 41G<354 354>
VStem: 205 174<127 602 127 711 127 762> 610 193<792 820>
AnchorPoint: "Anchor-5" 319 0 basechar 0
AnchorPoint: "Anchor-3" 432 956 basechar 0
LayerCount: 2
Fore
SplineSet
61 0 m 1x98
 70 74 l 1
 131 84 162 94 205 127 c 1
 205 711 l 2
 205 813 165 842 61 846 c 1
 68 905 l 1xc8
 156 921 239 952 317 975 c 1xa8
 354 956 l 1x98
 375 813 l 1
 432 899 521 975 621 975 c 0
 711 975 803 922 803 809 c 0
 803 746 764 680 694 680 c 0
 649 680 602 702 590 743 c 1
 600 753 610 783 610 801 c 0
 610 840 592 862 553 862 c 0xac
 479 862 379 731 379 602 c 2
 379 127 l 1
 418 100 475 82 541 70 c 1
 532 0 l 1
 61 0 l 1x98
EndSplineSet
AlternateSubs2: "'ssty' Math Script Style lookup 4 subtable" glyph3617 glyph3643
EndChar

StartChar: s
Encoding: 115 115 85
Width: 880
GlyphClass: 2
Flags: HMW
TopRightVertex: 1  961,205
BottomRightVertex: 1  0,100
HStem: -12 92<359 447 359 490> 891 82<347 445>
VStem: 70 109<66 332 317 332> 72 154<699 792> 561 170<780 823> 582 160<194 288>
AnchorPoint: "Anchor-5" 406 0 basechar 0
AnchorPoint: "Anchor-4" 428 0 basechar 0
AnchorPoint: "Anchor-3" 406 956 basechar 0
LayerCount: 2
Fore
SplineSet
375 -12 m 0xd4
 277 -12 131 27 70 66 c 1
 70 317 l 1
 178 332 l 1
 188 213 202 159 233 100 c 1
 272 88 328 80 391 80 c 0
 504 80 582 150 582 238 c 0xe4
 582 338 478 373 365 412 c 0
 226 461 72 516 72 711 c 0
 72 873 199 973 414 973 c 0
 590 973 731 883 731 772 c 0
 731 702 698 666 637 666 c 0
 586 666 553 682 526 721 c 1
 549 737 561 766 561 795 c 0xd8
 561 852 489 891 401 891 c 0
 292 891 225 838 225 754 c 0
 225 645 340 608 463 565 c 0
 598 516 741 459 741 279 c 0
 741 95 606 -12 375 -12 c 0xd4
EndSplineSet
AlternateSubs2: "'ssty' Math Script Style lookup 4 subtable" glyph3618 glyph3644
EndChar

StartChar: t
Encoding: 116 116 86
Width: 693
GlyphClass: 2
Flags: HMW
TopRightVertex: 1  1272,297
BottomRightVertex: 1  0,100
HStem: -20 96<421 488> 846 111<362 627 365 627 365 627>
VStem: 186 176<231 846> 186 178<231 1155 846 1155>
AnchorPoint: "Anchor-5" 422 0 basechar 0
LayerCount: 2
Fore
SplineSet
422 -20 m 0xe0
 234 -20 186 57 186 231 c 2
 186 846 l 1
 20 846 l 1
 20 907 l 1
 159 954 242 1038 283 1155 c 1xe0
 365 1155 l 1
 365 956 l 1xd0
 627 956 l 1
 627 846 l 1
 362 846 l 1
 362 217 l 2
 362 129 371 76 471 76 c 0
 539 76 581 99 614 117 c 1
 655 55 l 1
 624 32 555 -20 422 -20 c 0xe0
EndSplineSet
AlternateSubs2: "'ssty' Math Script Style lookup 4 subtable" glyph3619 glyph3645
EndChar

StartChar: u
Encoding: 117 117 87
Width: 1131
GlyphClass: 2
Flags: HMW
TopRightVertex: 1  961,205
BottomRightVertex: 1  0,100
HStem: -14 92<469 556> 0 72<786 1065> 850 59<39 43> 920 41G<356 356 924 924>
VStem: 180 176<315 715 715 766> 750 174<240 715 715 766>
AnchorPoint: "Anchor-3" 549 956 basechar 0
AnchorPoint: "Anchor-2" 928 0 basechar 0
LayerCount: 2
Fore
SplineSet
510 -14 m 0x9c
 291 -14 180 96 180 315 c 2
 180 715 l 2
 180 817 143 846 39 850 c 1
 43 909 l 1
 135 925 231 956 315 981 c 1xac
 356 961 l 1x9c
 356 293 l 2
 356 166 405 78 532 78 c 0
 593 78 684 121 750 240 c 1
 750 715 l 2
 750 817 710 846 606 850 c 1
 612 909 l 1
 704 925 801 956 885 981 c 1xac
 924 961 l 1
 924 127 l 1
 949 107 1008 82 1065 72 c 1
 1059 0 l 1
 786 0 l 1x5c
 766 129 l 1
 694 33 602 -14 510 -14 c 0x9c
EndSplineSet
AlternateSubs2: "'ssty' Math Script Style lookup 4 subtable" glyph3620 glyph3646
EndChar

StartChar: v
Encoding: 118 118 88
Width: 1032
GlyphClass: 2
Flags: HMW
TopRightVertex: 1  940,299
BottomRightVertex: 1  0,100
HStem: 0 43G<381 381 381 518> 0 197<381 483 483 483 483 518> 895 61<-61 399 393 393 967 967>
VStem: -61 1034<895 956>
LayerCount: 2
Fore
SplineSet
381 0 m 1xb0
 88 799 l 2
 70 850 41 875 -61 895 c 1
 -57 956 l 1
 399 956 l 1
 393 895 l 1
 348 889 303 883 266 850 c 1
 483 197 l 1x70
 700 850 l 1
 663 877 623 887 578 895 c 1
 584 956 l 1
 973 956 l 1
 967 895 l 1
 865 877 839 860 825 821 c 2
 518 0 l 1
 381 0 l 1xb0
EndSplineSet
AlternateSubs2: "'ssty' Math Script Style lookup 4 subtable" glyph3621 glyph3647
EndChar

StartChar: w
Encoding: 119 119 89
Width: 1586
GlyphClass: 2
Flags: HMW
TopRightVertex: 1  961,299
BottomRightVertex: 1  0,100
HStem: 0 43G<367 367 367 494 924 924 924 1049> 895 61<-61 399 393 393 1479 1479>
VStem: -61 1546<895 956>
AnchorPoint: "Anchor-3" 711 956 basechar 0
LayerCount: 2
Fore
SplineSet
367 0 m 1
 86 801 l 2
 68 854 41 872 -61 895 c 1
 -57 956 l 1
 399 956 l 1
 393 895 l 1
 348 889 303 883 266 850 c 1
 463 213 l 1
 692 922 l 1
 772 922 l 1
 1022 211 l 1
 1212 850 l 1
 1177 877 1137 887 1092 895 c 1
 1098 956 l 1
 1485 956 l 1
 1479 895 l 1
 1377 877 1349 858 1337 821 c 2
 1049 0 l 1
 924 0 l 1
 705 596 l 1
 494 0 l 1
 367 0 l 1
EndSplineSet
AlternateSubs2: "'ssty' Math Script Style lookup 4 subtable" glyph3622 glyph3648
EndChar

StartChar: x
Encoding: 120 120 90
Width: 990
GlyphClass: 2
Flags: HMW
TopRightVertex: 1  961,205
BottomRightVertex: 1  0,100
HStem: 0 74<-6 0 0 0 0 399> 0 76<539 989> 895 61<23 469 459 459 975 975>
VStem: -6 995<0 76>
LayerCount: 2
Fore
SplineSet
-6 0 m 1xb0
 0 74 l 1
 66 80 115 88 150 127 c 2xb0
 410 469 l 1
 150 823 l 2
 119 866 82 887 23 895 c 1
 29 956 l 1
 469 956 l 1
 459 895 l 1
 402 891 367 877 334 852 c 1
 522 598 l 1
 702 838 l 1
 665 867 631 887 565 895 c 1
 571 956 l 1
 983 956 l 1
 975 895 l 1
 891 885 852 866 823 829 c 2
 584 512 l 1
 868 127 l 2
 903 90 938 82 989 76 c 1x70
 981 0 l 1
 539 0 l 1
 547 74 l 1
 600 80 643 86 676 109 c 1
 471 385 l 1
 268 115 l 1
 305 86 349 80 406 74 c 1
 399 0 l 1
 -6 0 l 1xb0
EndSplineSet
AlternateSubs2: "'ssty' Math Script Style lookup 4 subtable" glyph3623 glyph3649
EndChar

StartChar: y
Encoding: 121 121 91
Width: 1032
GlyphClass: 2
Flags: HMW
TopRightVertex: 1  940,371
BottomRightVertex: 1  0,100
HStem: -446 111<225 275 225 282> 895 61<395 395 993 993>
VStem: 31 147<-286 -254 -286 -251> 596 399
AnchorPoint: "Anchor-3" 498 956 basechar 0
LayerCount: 2
Fore
SplineSet
217 -446 m 0
 111 -446 31 -381 31 -289 c 0
 31 -213 76 -172 131 -172 c 0
 154 -172 180 -181 203 -195 c 1
 187 -218 178 -241 178 -266 c 0
 178 -305 205 -336 246 -336 c 0
 305 -336 346 -281 389 -150 c 2
 432 -16 l 1
 98 803 l 2
 80 848 45 877 -49 893 c 1
 -45 956 l 1
 401 956 l 1
 395 895 l 1
 350 891 311 883 274 850 c 1
 512 225 l 1
 715 850 l 1
 680 877 639 889 594 895 c 1
 598 956 l 1
 997 956 l 1
 993 895 l 1
 878 877 854 860 842 827 c 2
 496 -172 l 2
 426 -373 346 -446 217 -446 c 0
EndSplineSet
AlternateSubs2: "'ssty' Math Script Style lookup 4 subtable" glyph3624 glyph3650
EndChar

StartChar: z
Encoding: 122 122 92
Width: 931
GlyphClass: 2
Flags: HMW
TopRightVertex: 1  946,225
BottomRightVertex: 1  0,100
HStem: -6 43G<748 748> 0 92<397 485 397 490> 870 90 918 43
VStem: 85 118
AnchorPoint: "Anchor-3" 455 956 basechar 0
LayerCount: 2
Fore
SplineSet
82 -8 m 1xa8
 66 78 l 1
 596 862 l 1
 567 864 495 870 440 870 c 0
 381 870 297 866 258 860 c 1
 231 827 209 751 203 694 c 1
 187 688 165 684 147 684 c 0
 129 684 110 686 94 692 c 1xa8
 76 918 l 1x58
 127 961 l 1
 180 961 360 956 481 956 c 0
 608 956 721 959 791 961 c 1
 805 887 l 1
 270 94 l 1
 301 92 342 92 453 92 c 0
 519 92 574 92 621 94 c 1
 656 141 684 213 702 283 c 1
 718 287 738 289 754 289 c 0
 770 289 785 287 801 285 c 1
 786 43 l 1
 748 -6 l 1
 695 -2 568 0 414 0 c 0x68
 236 0 150 -6 82 -8 c 1xa8
EndSplineSet
AlternateSubs2: "'ssty' Math Script Style lookup 4 subtable" glyph3625 glyph3651
EndChar

StartChar: braceleft
Encoding: 123 123 93
Width: 793
GlyphClass: 2
Flags: HMW
GlyphVariantsVertical: braceleft braceBigl bracebiggl braceBiggl
GlyphCompositionVertical: 5  uni23A9%0,0,72,1464 uni23AA%1,51,20,668 uni23A8%0,72,72,1550 uni23AA%1,20,51,668 uni23A7%0,72,0,1477
HStem: -291 72<556 649> 1382 68<556 649>
VStem: 293 152<-37 80 -37 81 1081 1198> 346 135<351 389 275 459 772 810>
LayerCount: 2
Fore
SplineSet
649 -291 m 1xe0
 463 -291 293 -149 293 37 c 0
 293 125 346 305 346 397 c 0
 346 520 246 547 246 547 c 1
 246 616 l 1
 246 616 346 641 346 764 c 0xd0
 346 856 293 1034 293 1124 c 0
 293 1310 463 1450 649 1450 c 1
 649 1382 l 1
 510 1372 444 1258 444 1139 c 0xe0
 444 1024 481 944 481 827 c 0
 481 716 442 629 387 582 c 1
 442 535 481 445 481 334 c 0xd0
 481 217 444 138 444 23 c 0
 444 -96 510 -213 649 -219 c 1
 649 -291 l 1xe0
EndSplineSet
EndChar

StartChar: bar
Encoding: 124 124 94
Width: 648
GlyphClass: 2
Flags: HMW
GlyphVariantsVertical: bar barbig barBig barbigg barBigg barbiggg barBiggg
GlyphCompositionVertical: 2  barBigg%1,1581,1581,4741 barBigg%0,1581,1581,4741
HStem: -299 1843<258 389 258 389>
VStem: 258 131<-299 1544 -299 1544>
LayerCount: 2
Fore
SplineSet
258 -299 m 1
 258 1544 l 1
 389 1544 l 1
 389 -299 l 1
 258 -299 l 1
EndSplineSet
EndChar

StartChar: braceright
Encoding: 125 125 95
Width: 793
GlyphClass: 2
Flags: HMW
GlyphVariantsVertical: braceright braceBigr bracebiggr braceBiggr
GlyphCompositionVertical: 5  uni23AD%0,0,72,1464 uni23AA%1,51,20,668 uni23AC%0,72,72,1550 uni23AA%1,20,51,668 uni23AB%0,72,0,1477
HStem: -291 72<143 237> 1382 68<143 237>
VStem: 311 135<351 389 772 810> 348 152<-37 80 1081 1198>
LayerCount: 2
Fore
SplineSet
143 -291 m 1xd0
 143 -219 l 1
 282 -213 348 -96 348 23 c 0xd0
 348 138 311 217 311 334 c 0
 311 445 351 535 406 582 c 1
 351 629 311 716 311 827 c 0xe0
 311 944 348 1024 348 1139 c 0
 348 1258 282 1372 143 1382 c 1
 143 1450 l 1xd0
 329 1450 500 1310 500 1124 c 0
 500 1034 446 856 446 764 c 0
 446 641 547 616 547 616 c 1
 547 547 l 1
 547 547 446 520 446 397 c 0xe0
 446 305 500 125 500 37 c 0
 500 -149 329 -291 143 -291 c 1xd0
EndSplineSet
EndChar

StartChar: asciitilde
Encoding: 126 126 96
Width: 1459
GlyphClass: 2
Flags: HMW
HStem: 473 127<926 1028 926 1034> 575 125<443 541>
VStem: 217 1024
LayerCount: 2
Fore
SplineSet
260 494 m 1x60
 242 504 227 519 217 537 c 1
 266 594 366 700 520 700 c 0x60
 649 700 868 600 983 600 c 0
 1073 600 1139 639 1198 682 c 1
 1216 672 1231 657 1241 643 c 1
 1202 584 1104 473 965 473 c 0xa0
 811 473 610 575 471 575 c 0
 385 575 319 539 260 494 c 1x60
EndSplineSet
EndChar

StartChar: exclamdown
Encoding: 161 161 98
Width: 585
GlyphClass: 2
Flags: HMW
HStem: 760 238<238 311>
VStem: 131 197 166 217<843 914 842 915>
LayerCount: 2
Fore
SplineSet
274 760 m 0xa0
 200 760 166 807 166 879 c 0
 166 953 200 997 274 997 c 0
 348 997 383 951 383 879 c 0
 383 805 348 760 274 760 c 0xa0
246 -403 m 0xc0
 156 -403 131 -340 131 -250 c 0
 131 -111 209 260 227 520 c 1
 334 539 l 1
 334 428 328 279 328 125 c 0
 328 -53 336 -238 367 -369 c 1
 367 -369 324 -403 246 -403 c 0xc0
EndSplineSet
EndChar

StartChar: cent
Encoding: 162 162 99
Width: 903
GlyphClass: 2
Flags: HMW
HStem: 895 74<532 532>
VStem: 86 190<429 605 429 642> 451 82<-119 66 -119 68 -119 68 174 887 887 887 969 1151 1151 1151> 651 190<772 815>
LayerCount: 2
Fore
SplineSet
520 -131 m 1
 495 -131 474 -127 451 -123 c 1
 451 68 l 1
 207 91 86 248 86 512 c 0
 86 772 213 936 451 965 c 1
 451 1151 l 1
 463 1165 l 1
 486 1165 509 1161 532 1155 c 1
 532 969 l 1
 716 967 842 875 842 756 c 0
 842 693 792 639 733 639 c 0
 682 639 639 668 627 709 c 1
 643 736 651 762 651 782 c 0
 651 852 598 891 532 895 c 1
 532 168 l 1
 684 174 788 264 788 264 c 1
 842 203 l 1
 842 203 716 72 532 66 c 1
 532 -119 l 1
 520 -131 l 1
451 174 m 1
 451 887 l 1
 304 852 276 698 276 512 c 0
 276 346 316 207 451 174 c 1
EndSplineSet
EndChar

StartChar: sterling
Encoding: 163 163 100
Width: 1082
GlyphClass: 2
Flags: HMW
HStem: -14 80<181 239 181 253> -14 170<710 808 709 843> 203 76<185 233> 631 82<113 264 113 285 109 264 473 473 473 752> 1284 98<545 671>
VStem: 31 94<103 151 103 170> 225 184<932 1068 932 1095> 344 162<295 444> 778 188<1148 1197> 858 143<102 309 102 309>
LayerCount: 2
Fore
SplineSet
205 -14 m 0xbe40
 113 -14 31 31 31 123 c 0
 31 217 111 279 213 279 c 0
 256 279 299 270 342 256 c 1
 344 270 344 287 344 303 c 0
 344 391 318 510 285 631 c 1xbd40
 109 631 l 1
 98 698 l 1
 113 713 l 1
 264 713 l 1
 244 803 225 890 225 958 c 0
 225 1230 375 1382 637 1382 c 0
 791 1382 967 1313 967 1141 c 0
 967 1055 913 997 854 997 c 0
 801 997 755 1026 741 1065 c 1
 766 1098 778 1132 778 1163 c 0
 778 1231 721 1284 621 1284 c 0
 469 1284 410 1161 410 975 c 0
 410 889 428 801 451 713 c 1xbe80
 756 713 l 1
 766 643 l 1
 752 631 l 1
 473 631 l 1
 491 555 506 482 506 408 c 0
 506 340 494 274 471 213 c 1
 555 182 649 156 768 156 c 0
 848 156 858 209 858 272 c 2
 858 309 l 1x7d40
 932 307 1001 256 1001 170 c 0
 1001 35 905 -14 780 -14 c 0
 639 -14 534 64 430 125 c 1
 377 43 301 -14 205 -14 c 0xbe40
203 66 m 0
 275 66 312 108 330 178 c 1
 293 192 254 203 213 203 c 0
 158 203 125 174 125 127 c 0
 125 80 160 66 203 66 c 0
EndSplineSet
EndChar

StartChar: currency
Encoding: 164 164 101
Width: 1114
GlyphClass: 2
Flags: HMW
HStem: 229 84<518 596> 891 84<520 594 520 638>
VStem: 186 133<550 655> 793 133<550 655 550 689>
LayerCount: 2
Fore
SplineSet
231 139 m 1
 152 215 l 1
 270 348 l 1
 215 411 186 498 186 602 c 0
 186 708 217 796 274 862 c 1
 152 995 l 1
 231 1073 l 1
 365 930 l 1
 418 959 483 975 557 975 c 0
 631 975 695 959 748 932 c 1
 883 1073 l 1
 963 995 l 1
 838 862 l 1
 893 796 926 708 926 602 c 0
 926 498 895 411 842 348 c 1
 963 215 l 1
 883 139 l 1
 758 279 l 1
 703 246 635 229 557 229 c 0
 479 229 411 246 354 279 c 1
 231 139 l 1
557 313 m 0
 719 313 793 426 793 602 c 0
 793 776 719 891 557 891 c 0
 385 891 319 768 319 602 c 0
 319 426 393 313 557 313 c 0
EndSplineSet
EndChar

StartChar: yen
Encoding: 165 165 102
Width: 1248
GlyphClass: 2
Flags: HMW
HStem: 0 76<328 328 328 907 317 328> 496 80<207 510 207 526 203 510 711 1040> 707 80<207 406 207 444 203 406 815 1040> 1292 74<51 567 557 557 1163 1163>
VStem: 526 180<131 496 131 496>
AnchorPoint: "Anchor-0" 633 1366 basechar 0
LayerCount: 2
Fore
SplineSet
1163 1292 m 1
 1118 1284 1075 1268 1038 1239 c 1
 815 786 l 1
 1044 786 l 1
 1050 763 1053 744 1053 719 c 1
 1040 707 l 1
 776 707 l 1
 711 575 l 1
 1044 575 l 1
 1050 555 1053 533 1053 508 c 1
 1040 496 l 1
 707 496 l 1
 707 131 l 1
 768 96 843 84 915 76 c 1
 907 0 l 1
 317 0 l 1
 328 76 l 1
 402 84 463 94 526 131 c 1
 526 496 l 1
 203 496 l 1
 197 516 193 538 193 563 c 1
 207 575 l 1
 510 575 l 1
 444 707 l 1
 203 707 l 1
 195 723 193 749 193 774 c 1
 207 786 l 1
 406 786 l 1
 178 1239 l 1
 147 1262 98 1282 51 1292 c 1
 61 1366 l 1
 567 1366 l 1
 557 1292 l 1
 496 1284 436 1270 379 1237 c 1
 635 702 l 1
 897 1239 l 1
 846 1266 781 1284 715 1292 c 1
 725 1366 l 1
 1176 1366 l 1
 1163 1292 l 1
EndSplineSet
EndChar

StartChar: brokenbar
Encoding: 166 166 103
Width: 648
GlyphClass: 2
Flags: HMW
HStem: -299 1843<258 389 258 389>
VStem: 258 131<-299 430 -299 430 815 1544>
LayerCount: 2
Fore
SplineSet
258 815 m 1
 258 1544 l 1
 389 1544 l 1
 389 815 l 1
 258 815 l 1
258 -299 m 1
 258 430 l 1
 389 430 l 1
 389 -299 l 1
 258 -299 l 1
EndSplineSet
EndChar

StartChar: section
Encoding: 167 167 104
Width: 1024
GlyphClass: 2
Flags: HMW
HStem: -63 88<458 549 458 618> 1337 90<518 606>
VStem: 160 111<970 1064 884 1171> 168 182<106 178 106 217> 645 111<166 253> 709 176<1186 1253 1138 1255> 799 109<288 403 190 496>
LayerCount: 2
Fore
SplineSet
500 -63 m 0xd2
 293 -63 168 33 168 178 c 0
 168 256 209 322 285 322 c 0
 348 322 375 293 395 262 c 1
 379 246 350 207 350 150 c 0
 350 64 416 25 500 25 c 0
 598 25 645 78 645 174 c 0xda
 645 332 522 465 401 600 c 0
 280 737 160 881 160 1059 c 0
 160 1284 323 1427 561 1427 c 0
 766 1427 885 1327 885 1180 c 0
 885 1096 844 1042 776 1042 c 0
 710 1042 684 1069 664 1100 c 1
 682 1118 709 1157 709 1214 c 0
 709 1296 651 1337 561 1337 c 0xe4
 475 1337 420 1288 420 1188 c 0
 420 991 566 903 705 727 c 0
 799 608 907 504 907 303 c 0
 907 78 738 -63 500 -63 c 0xd2
756 166 m 1xea
 781 197 799 254 799 322 c 0xe2
 799 670 329 807 313 1180 c 1
 286 1151 270 1095 270 1032 c 0
 270 735 756 541 756 166 c 1xea
EndSplineSet
EndChar

StartChar: dieresis
Encoding: 168 168 105
Width: 583
GlyphClass: 2
Flags: HMW
HStem: 1143 215<62 128 403 469>
VStem: 0 193<1217 1285> 342 193<1217 1285>
LayerCount: 2
Fore
SplineSet
96 1143 m 0
 28 1143 0 1181 0 1251 c 0
 0 1319 28 1358 96 1358 c 0
 159 1358 193 1319 193 1251 c 0
 193 1181 159 1143 96 1143 c 0
436 1143 m 0
 370 1143 342 1181 342 1251 c 0
 342 1319 370 1358 436 1358 c 0
 502 1358 535 1319 535 1251 c 0
 535 1181 502 1143 436 1143 c 0
EndSplineSet
EndChar

StartChar: copyright
Encoding: 169 169 106
Width: 1742
GlyphClass: 2
Flags: HMW
HStem: 33 76<733 1009 733 1036> 260 63<818 922 818 936> 920 55<824 913> 1137 76<733 1009>
VStem: 276 90<480 764 480 785> 565 141<511 722 511 735> 979 139<827 860> 1374 92<480 764>
LayerCount: 2
Fore
SplineSet
870 33 m 0
 538 33 276 297 276 623 c 0
 276 949 540 1212 870 1212 c 0
 1200 1212 1466 949 1466 623 c 0
 1466 297 1202 33 870 33 c 0
870 109 m 0
 1146 109 1374 338 1374 623 c 0
 1374 906 1146 1137 870 1137 c 0
 596 1137 367 906 367 623 c 0
 367 338 596 109 870 109 c 0
881 260 m 0
 662 260 565 370 565 616 c 0
 565 854 676 975 887 975 c 0
 1024 975 1118 911 1118 817 c 0
 1118 770 1081 727 1038 727 c 0
 999 727 966 749 958 782 c 1
 970 800 979 820 979 836 c 0
 979 885 940 920 887 920 c 0
 762 920 707 827 707 616 c 0
 707 405 756 324 881 324 c 0
 963 324 1020 367 1051 453 c 1
 1112 432 l 1
 1079 328 992 260 881 260 c 0
EndSplineSet
EndChar

StartChar: ordfeminine
Encoding: 170 170 107
Width: 854
GlyphClass: 2
Flags: HMW
HStem: 524 70<141 721 141 721> 696 66<338 355> 707 53<512 725> 996 65 1298 63<360 427>
VStem: 141 139<831 902 831 916> 156 137<1234 1252> 492 137<815 999 999 999 1065 1163 793 1210>
LayerCount: 2
Fore
SplineSet
322 696 m 0xdd
 207 696 141 756 141 856 c 0xdd
 141 977 229 1043 395 1057 c 2
 492 1065 l 1
 492 1163 l 2
 492 1257 465 1298 389 1298 c 0
 332 1298 293 1276 293 1241 c 0
 293 1227 299 1208 315 1190 c 1
 311 1147 277 1126 240 1126 c 0
 199 1126 156 1151 156 1204 c 0
 156 1300 252 1362 399 1362 c 0
 544 1362 629 1286 629 1163 c 2
 629 793 l 1
 647 781 686 768 725 760 c 1
 719 707 l 1
 512 707 l 1xbb
 500 756 l 1
 447 711 390 696 322 696 c 0xdd
365 762 m 0
 408 762 453 782 492 815 c 1
 492 999 l 1
 401 993 l 2
 327 987 281 938 281 866 c 0
 281 796 312 762 365 762 c 0
141 524 m 1
 141 594 l 1
 721 594 l 1
 721 524 l 1
 141 524 l 1
EndSplineSet
EndChar

StartChar: guillemotleft
Encoding: 171 171 108
Width: 999
GlyphClass: 2
Flags: HW
HStem: 88 811<451 451 451 834>
VStem: 123 791<139 494>
LayerCount: 2
Fore
SplineSet
451 88 m 1
 123 494 l 1
 451 899 l 1
 530 850 l 1
 326 494 l 1
 530 139 l 1
 451 88 l 1
834 88 m 1
 506 494 l 1
 834 899 l 1
 913 850 l 1
 709 494 l 1
 913 139 l 1
 834 88 l 1
EndSplineSet
EndChar

StartChar: logicalnot
Encoding: 172 172 109
Width: 1530
GlyphClass: 2
Flags: HMW
HStem: 707 109<80 856 80 979>
VStem: 856 123<362 707 707 707>
LayerCount: 2
Fore
SplineSet
856 362 m 1
 856 707 l 1
 80 707 l 1
 80 815 l 1
 979 815 l 1
 979 362 l 1
 856 362 l 1
EndSplineSet
EndChar

StartChar: registered
Encoding: 174 174 110
Width: 1742
GlyphClass: 2
Flags: HMW
HStem: 33 76<733 1009 733 1036> 328 51<602 608 608 608 608 887> 328 53<1001 1178> 608 68<807 836 836 841> 895 61<807 874 807 807> 1137 76<733 1009>
VStem: 276 90<480 764 480 785> 690 117<397 608 676 881 881 881> 985 119<749 820> 1374 92<480 764>
LayerCount: 2
Fore
SplineSet
870 33 m 0xdfc0
 538 33 276 297 276 623 c 0
 276 949 540 1212 870 1212 c 0
 1200 1212 1466 949 1466 623 c 0
 1466 297 1202 33 870 33 c 0xdfc0
870 109 m 0
 1146 109 1374 338 1374 623 c 0
 1374 906 1146 1137 870 1137 c 0
 596 1137 367 906 367 623 c 0
 367 338 596 109 870 109 c 0
602 328 m 1
 608 379 l 1
 690 397 l 1xdfc0
 690 881 l 1
 602 905 l 1
 608 956 l 1
 874 956 l 2
 1026 956 1104 897 1104 784 c 0
 1104 706 1067 656 977 631 c 1
 1004 613 1018 596 1030 563 c 2
 1106 397 l 1
 1178 381 l 1
 1169 328 l 1
 1001 328 l 1xbfc0
 922 535 l 2
 895 605 875 608 807 608 c 1
 807 397 l 1
 893 379 l 1
 887 328 l 1
 602 328 l 1
807 676 m 1
 836 676 l 2
 932 676 985 712 985 784 c 0
 985 856 942 895 874 895 c 2
 807 895 l 1
 807 676 l 1
EndSplineSet
EndChar

StartChar: degree
Encoding: 176 176 111
Width: 769
GlyphClass: 2
Flags: HMW
HStem: 799 72<335 432 335 467> 1288 74<335 432>
VStem: 96 141<1022 1137 1022 1157> 530 141<1022 1137>
LayerCount: 2
Fore
SplineSet
383 799 m 0
 217 799 96 925 96 1079 c 0
 96 1235 217 1362 383 1362 c 0
 551 1362 672 1235 672 1079 c 0
 672 925 551 799 383 799 c 0
383 870 m 0
 481 870 530 964 530 1079 c 0
 530 1194 481 1288 383 1288 c 0
 287 1288 238 1194 238 1079 c 0
 238 964 287 870 383 870 c 0
EndSplineSet
EndChar

StartChar: plusminus
Encoding: 177 177 112
Width: 1530
GlyphClass: 2
Flags: HMW
HStem: 55 109<154 973 154 973> 670 109<147 500 147 500 623 985>
VStem: 500 123<307 670 307 670 778 1143>
LayerCount: 2
Fore
SplineSet
147 670 m 1
 147 778 l 1
 500 778 l 1
 500 1143 l 1
 623 1143 l 1
 623 778 l 1
 985 778 l 1
 985 670 l 1
 623 670 l 1
 623 307 l 1
 500 307 l 1
 500 670 l 1
 147 670 l 1
154 55 m 1
 154 164 l 1
 973 164 l 1
 973 55 l 1
 154 55 l 1
EndSplineSet
EndChar

StartChar: uni00B2
Encoding: 178 178 113
Width: 834
GlyphClass: 2
Flags: HMW
HStem: 829 111<270 668 270 668> 1581 82<319 408>
VStem: 92 139<1473 1517 1473 1546> 492 141<1373 1482>
LayerCount: 2
Fore
SplineSet
94 829 m 1
 94 915 l 1
 401 1177 492 1307 492 1440 c 0
 492 1524 456 1581 358 1581 c 0
 280 1581 231 1546 231 1487 c 0
 231 1458 246 1435 266 1417 c 1
 241 1394 211 1380 182 1380 c 0
 139 1380 92 1409 92 1483 c 0
 92 1610 219 1663 360 1663 c 0
 534 1663 633 1580 633 1430 c 0
 633 1293 536 1149 270 940 c 1
 668 940 l 1
 668 829 l 1
 94 829 l 1
EndSplineSet
EndChar

StartChar: uni00B3
Encoding: 179 179 114
Width: 834
GlyphClass: 2
Flags: HMW
HStem: 821 80<338 424 338 457> 1227 74<291 364> 1581 82<346 422>
VStem: 96 145<966 999 966 1021> 131 131<1483 1518 1483 1546> 504 139<1412 1496> 520 133<1011 1111 988 1113>
LayerCount: 2
Fore
SplineSet
375 821 m 0xf2
 201 821 96 886 96 997 c 0
 96 1044 131 1075 182 1075 c 0
 202 1075 229 1067 256 1049 c 1
 246 1029 242 1005 242 993 c 0
 242 938 295 901 381 901 c 0
 467 901 520 961 520 1061 c 0xf2
 520 1165 436 1227 291 1227 c 1
 291 1300 l 1
 430 1304 504 1358 504 1456 c 0
 504 1536 461 1581 383 1581 c 0
 309 1581 262 1544 262 1491 c 0
 262 1475 271 1458 283 1442 c 1
 254 1422 226 1411 201 1411 c 0
 158 1411 131 1446 131 1501 c 0
 131 1591 242 1663 387 1663 c 0
 539 1663 643 1579 643 1456 c 0xec
 643 1368 592 1303 494 1266 c 1
 600 1231 653 1163 653 1059 c 0
 653 918 539 821 375 821 c 0xf2
EndSplineSet
EndChar

StartChar: acute
Encoding: 180 180 115
Width: 583
GlyphClass: 2
Flags: HW
HStem: 1118 322<45 255>
VStem: 0 309<1167 1386>
LayerCount: 2
Fore
SplineSet
45 1118 m 1
 0 1167 l 1
 170 1405 l 2
 188 1430 207 1440 236 1440 c 0
 275 1440 309 1405 309 1368 c 0
 309 1335 291 1313 258 1288 c 2
 45 1118 l 1
EndSplineSet
EndChar

StartChar: uni00B5
Encoding: 181 181 116
Width: 1114
GlyphClass: 2
Flags: HMW
HStem: -14 92<478 554> 0 72<784 1065> 850 59<37 43> 920 41G<354 354 922 922>
VStem: 178 176<-420 10 229 293 293 715 715 766> 748 174<240 715 715 766>
LayerCount: 2
Fore
SplineSet
178 -420 m 1x9c
 178 715 l 2
 178 817 141 846 37 850 c 1
 43 909 l 1
 133 925 229 956 313 981 c 1xac
 354 961 l 1x9c
 354 293 l 2
 354 166 403 78 530 78 c 0
 593 78 682 121 748 240 c 1
 748 715 l 2
 748 817 708 846 604 850 c 1
 610 909 l 1
 702 925 799 956 883 981 c 1xac
 922 961 l 1
 922 127 l 1
 947 107 1006 82 1065 72 c 1
 1057 0 l 1
 784 0 l 1x5c
 764 129 l 1
 692 35 600 -14 508 -14 c 0
 449 -14 397 -4 354 10 c 1
 354 -420 l 1
 178 -420 l 1x9c
EndSplineSet
EndChar

StartChar: paragraph
Encoding: 182 182 117
Width: 1204
GlyphClass: 2
Flags: HMW
HStem: -367 74<510 562 510 582> 643 90<532 616 532 616> 1255 90<527 1067> 1256 89 1270 76<1057 1057>
VStem: 137 203<909 1082 909 1128> 299 152<-234 -194 -234 -161> 616 98<-180 -160 -160 643 643 643 733 1255 1255 1255> 788 84<-96 0 0 1214>
LayerCount: 2
Fore
SplineSet
535 -367 m 0xcb80
 394 -367 299 -316 299 -199 c 0
 299 -123 349 -76 406 -76 c 0
 441 -76 471 -92 487 -127 c 1
 456 -154 451 -180 451 -207 c 0xe380
 451 -262 486 -293 535 -293 c 0
 590 -293 616 -243 616 -186 c 2
 616 643 l 1
 335 643 137 717 137 991 c 0
 137 1265 335 1346 616 1346 c 2
 1067 1346 l 1xe580
 1057 1270 l 1
 989 1262 927 1249 872 1214 c 1
 872 0 l 2
 872 -336 629 -367 535 -367 c 0xcb80
682 -270 m 1xd580
 745 -252 788 -202 788 -96 c 2
 788 1253 l 1
 715 1260 l 1
 715 -160 l 2
 715 -201 700 -252 682 -270 c 1xd580
616 733 m 1
 616 1255 l 1xe580
 438 1255 340 1171 340 993 c 0
 340 825 448 733 616 733 c 1
EndSplineSet
EndChar

StartChar: periodcentered
Encoding: 183 183 118
Width: 578
GlyphClass: 2
Flags: HMW
HStem: 481 238<72 145>
VStem: 0 217<564 636 563 637>
LayerCount: 2
Fore
SplineSet
109 481 m 0
 35 481 0 528 0 600 c 0
 0 674 35 719 109 719 c 0
 183 719 217 672 217 600 c 0
 217 526 183 481 109 481 c 0
EndSplineSet
EndChar

StartChar: cedilla
Encoding: 184 184 119
Width: 583
GlyphClass: 2
Flags: HMW
HStem: -418 68<256 311 256 335>
VStem: 92 96<-283 -262> 369 104<-282 -217>
LayerCount: 2
Fore
SplineSet
279 -418 m 0
 146 -418 92 -344 92 -283 c 0
 92 -242 117 -203 160 -203 c 0
 172 -203 183 -205 197 -211 c 1
 193 -225 188 -240 188 -254 c 0
 188 -311 232 -350 281 -350 c 0
 342 -350 369 -316 369 -248 c 0
 369 -187 315 -164 256 -156 c 1
 219 -115 l 1
 301 18 l 1
 354 8 l 1
 317 -94 l 1
 411 -112 473 -152 473 -256 c 0
 473 -346 392 -418 279 -418 c 0
EndSplineSet
EndChar

StartChar: uni00B9
Encoding: 185 185 120
Width: 834
GlyphClass: 2
Flags: HMW
HStem: 829 61<182 186 186 186 186 664> 1522 74<188 369 188 188>
VStem: 369 133<926 1522 1522 1522>
LayerCount: 2
Fore
SplineSet
182 829 m 1
 186 891 l 1
 262 899 326 910 369 926 c 1
 369 1522 l 1
 188 1522 l 1
 188 1595 l 1
 284 1603 371 1626 449 1663 c 1
 502 1642 l 1
 502 926 l 1
 541 908 639 893 670 891 c 1
 664 829 l 1
 182 829 l 1
EndSplineSet
EndChar

StartChar: ordmasculine
Encoding: 186 186 121
Width: 876
GlyphClass: 2
Flags: HMW
HStem: 524 70<135 723 135 723> 696 72<374 479 374 523> 1288 74<374 479>
VStem: 135 141<936 1120 936 1136> 580 141<936 1120>
LayerCount: 2
Fore
SplineSet
426 696 m 0
 233 696 135 811 135 1028 c 0
 135 1243 233 1362 426 1362 c 0
 621 1362 721 1243 721 1028 c 0
 721 811 621 696 426 696 c 0
426 768 m 0
 532 768 580 844 580 1028 c 0
 580 1212 532 1288 426 1288 c 0
 322 1288 276 1212 276 1028 c 0
 276 844 322 768 426 768 c 0
135 524 m 1
 135 594 l 1
 723 594 l 1
 723 524 l 1
 135 524 l 1
EndSplineSet
EndChar

StartChar: guillemotright
Encoding: 187 187 122
Width: 999
GlyphClass: 2
Flags: HW
HStem: 88 811<172 172 172 555>
VStem: 92 791<139 494 494 850>
LayerCount: 2
Fore
SplineSet
172 88 m 1
 92 139 l 1
 295 494 l 1
 92 850 l 1
 172 899 l 1
 500 494 l 1
 172 88 l 1
555 88 m 1
 475 139 l 1
 678 494 l 1
 475 850 l 1
 555 899 l 1
 883 494 l 1
 555 88 l 1
EndSplineSet
EndChar

StartChar: onequarter
Encoding: 188 188 123
Width: 1772
GlyphClass: 2
Flags: HMW
HStem: -12 43G<434 434> 0 268<1104 1350 1104 1479> 186 71 186 82<1104 1350 1104 1350> 604 57<154 160 160 160 160 555> 1247 57<143 301 143 143> 1335 41G<379 379>
VStem: 301 129<694 1247 1247 1247> 1350 129<0 186 0 186 0 473> 1350 133<0 524 186 524 268 473 473 473>
LayerCount: 2
Fore
SplineSet
537 -66 m 1x9f40
 434 -12 l 1
 1069 1393 l 1
 1174 1346 l 1
 537 -66 l 1x9f40
154 604 m 1
 160 662 l 1
 215 672 266 686 301 694 c 1
 301 1247 l 1
 143 1247 l 1
 143 1305 l 1
 227 1319 309 1341 379 1376 c 1
 430 1356 l 1
 430 694 l 1
 461 684 502 674 559 662 c 1
 555 604 l 1
 154 604 l 1
1350 0 m 1x4f40
 1350 186 l 1
 989 186 l 1
 977 238 l 1
 1245 760 l 1
 1298 760 1339 750 1370 725 c 1
 1104 268 l 1
 1350 268 l 1
 1350 473 l 1x9f40
 1391 473 1428 493 1438 524 c 1
 1483 524 l 1
 1483 266 l 1
 1595 248 l 1xaf40
 1595 186 l 1x9f40
 1479 186 l 1x9f80
 1479 0 l 1x4f80
 1350 0 l 1x4f40
EndSplineSet
EndChar

StartChar: onehalf
Encoding: 189 189 124
Width: 1822
GlyphClass: 2
Flags: HMW
HStem: -12 43G<479 479> 0 106<1272 1653 1272 1653> 604 57<154 160 160 160 160 555> 692 80<1321 1400> 1247 57<143 301 143 143> 1335 41G<379 379>
VStem: 301 129<694 1247 1247 1247> 1106 137<581 620 581 634> 1481 139<501 606>
LayerCount: 2
Fore
SplineSet
582 -66 m 1x5f80
 479 -12 l 1xbf80
 1114 1393 l 1
 1219 1346 l 1
 582 -66 l 1x5f80
154 604 m 1
 160 662 l 1
 215 672 266 686 301 694 c 1
 301 1247 l 1
 143 1247 l 1
 143 1305 l 1
 227 1319 309 1341 379 1376 c 1
 430 1356 l 1
 430 694 l 1
 461 684 502 674 559 662 c 1
 555 604 l 1
 154 604 l 1
1104 0 m 1x5f80
 1104 82 l 1
 1395 322 1481 438 1481 563 c 0
 1481 649 1440 692 1360 692 c 0
 1282 692 1243 645 1243 594 c 0
 1243 567 1252 545 1270 518 c 1
 1252 500 1223 485 1192 485 c 0
 1149 485 1106 512 1106 586 c 0
 1106 682 1221 772 1360 772 c 0
 1522 772 1620 690 1620 553 c 0
 1620 428 1530 299 1272 106 c 1
 1653 106 l 1
 1653 0 l 1
 1104 0 l 1x5f80
EndSplineSet
EndChar

StartChar: threequarters
Encoding: 190 190 125
Width: 1772
GlyphClass: 2
Flags: HMW
HStem: -12 43G<541 541> 0 268<1180 1425 1180 1554> 186 71 186 82<1180 1425 1180 1425> 590 80<404 486 404 520> 967 63<356 356> 1290 80<412 483>
VStem: 174 143<738 775 738 800> 205 133<1191 1223 1191 1254> 561 133<1150 1217> 575 137<764 853 746 858> 1425 129<0 186 0 186 0 473> 1425 133<0 524 186 524 268 473 473 473>
LayerCount: 2
Fore
SplineSet
643 -66 m 1x9f28
 541 -12 l 1
 1176 1393 l 1
 1280 1346 l 1
 643 -66 l 1x9f28
438 590 m 0
 274 590 174 665 174 774 c 0
 174 825 215 850 258 850 c 0
 281 850 307 839 330 823 c 1
 322 803 317 782 317 768 c 0
 317 709 364 670 444 670 c 0
 528 670 575 719 575 809 c 0x9f28
 575 907 499 965 356 967 c 1
 356 1030 l 1
 485 1034 561 1086 561 1182 c 0
 561 1252 519 1290 449 1290 c 0
 375 1290 338 1245 338 1200 c 0
 338 1182 342 1167 352 1151 c 1
 325 1131 301 1122 276 1122 c 0
 231 1122 205 1157 205 1210 c 0
 205 1298 308 1370 451 1370 c 0
 601 1370 694 1293 694 1182 c 0x9ec8
 694 1119 672 1048 547 1001 c 1
 664 968 713 897 713 809 c 0
 713 684 602 590 438 590 c 0
1425 0 m 1x4f28
 1425 186 l 1
 1065 186 l 1
 1053 238 l 1
 1321 760 l 1
 1374 760 1415 750 1446 725 c 1
 1180 268 l 1
 1425 268 l 1
 1425 473 l 1x9f28
 1466 473 1503 493 1513 524 c 1
 1559 524 l 1
 1559 266 l 1
 1671 248 l 1xaf28
 1671 186 l 1x9f28
 1554 186 l 1x9f30
 1554 0 l 1x4f30
 1425 0 l 1x4f28
EndSplineSet
EndChar

StartChar: questiondown
Encoding: 191 191 126
Width: 865
GlyphClass: 2
Flags: HMW
HStem: -391 88<372 456 372 500> 760 238<442 516>
VStem: 88 162<-202 -24 -202 11> 371 217<843 914 842 915> 418 178<322 428> 561 176<-237 -188>
LayerCount: 2
Fore
SplineSet
479 760 m 0xf0
 405 760 371 807 371 879 c 0
 371 953 405 997 479 997 c 0
 553 997 588 951 588 879 c 0
 588 805 553 760 479 760 c 0xf0
426 -391 m 0
 236 -391 88 -321 88 -131 c 0
 88 154 418 228 418 416 c 0
 418 441 414 471 406 504 c 1
 426 520 461 539 496 539 c 0
 562 539 596 478 596 412 c 0xa8
 596 138 250 108 250 -156 c 0
 250 -248 326 -303 418 -303 c 0
 494 -303 561 -275 561 -199 c 0
 561 -179 555 -152 539 -125 c 1
 566 -86 594 -63 637 -63 c 0
 709 -63 737 -110 737 -182 c 0xa4
 737 -327 573 -391 426 -391 c 0
EndSplineSet
EndChar

StartChar: Agrave
Encoding: 192 192 127
Width: 1276
GlyphClass: 2
Flags: HMW
HStem: 0 76<2 12 12 12 12 477> 440 106<414 760 414 795 381 760> 1325 41G<541 664 664 664>
VStem: 2 1219<0 76>
AnchorPoint: "Anchor-3" 600 1366 basechar 0
AnchorPoint: "Anchor-2" 1212 0 basechar 0
LayerCount: 2
Fore
SplineSet
655 1425 m 1
 446 1595 l 2
 415 1622 395 1642 395 1675 c 0
 395 1712 430 1747 469 1747 c 0
 498 1747 517 1737 535 1712 c 2
 705 1475 l 1
 655 1425 l 1
2 0 m 1
 12 76 l 1
 65 84 111 94 158 129 c 1
 541 1366 l 1
 664 1366 l 1
 1085 127 l 1
 1128 96 1174 84 1221 76 c 1
 1212 0 l 1
 700 0 l 1
 711 76 l 1
 779 84 840 96 899 131 c 1
 795 440 l 1
 381 440 l 1
 287 131 l 1
 346 96 417 84 485 76 c 1
 477 0 l 1
 2 0 l 1
414 547 m 1
 760 547 l 1
 580 1081 l 1
 414 547 l 1
EndSplineSet
EndChar

StartChar: Aacute
Encoding: 193 193 128
Width: 1276
GlyphClass: 2
Flags: HMW
HStem: 0 76<2 12 12 12 12 477> 440 106<414 760 414 795 381 760> 1325 41G<541 664 664 664>
VStem: 2 1219<0 76>
AnchorPoint: "Anchor-3" 600 1366 basechar 0
AnchorPoint: "Anchor-2" 1212 0 basechar 0
LayerCount: 2
Fore
SplineSet
543 1423 m 1
 498 1473 l 1
 668 1710 l 2
 686 1735 704 1745 733 1745 c 0
 772 1745 807 1710 807 1673 c 0
 807 1640 789 1618 756 1593 c 2
 543 1423 l 1
2 0 m 1
 12 76 l 1
 65 84 111 94 158 129 c 1
 541 1366 l 1
 664 1366 l 1
 1085 127 l 1
 1128 96 1174 84 1221 76 c 1
 1212 0 l 1
 700 0 l 1
 711 76 l 1
 779 84 840 96 899 131 c 1
 795 440 l 1
 381 440 l 1
 287 131 l 1
 346 96 417 84 485 76 c 1
 477 0 l 1
 2 0 l 1
414 547 m 1
 760 547 l 1
 580 1081 l 1
 414 547 l 1
EndSplineSet
EndChar

StartChar: Acircumflex
Encoding: 194 194 129
Width: 1276
GlyphClass: 2
Flags: HMW
HStem: 0 76<2 12 12 12 12 477> 440 106<414 760 414 795 381 760> 1325 41G<541 664 664 664>
VStem: 2 1219<0 76>
AnchorPoint: "Anchor-3" 600 1366 basechar 0
AnchorPoint: "Anchor-2" 1212 0 basechar 0
LayerCount: 2
Fore
SplineSet
393 1427 m 1
 348 1477 l 1
 539 1696 l 2
 557 1716 577 1729 602 1729 c 0
 627 1729 648 1719 666 1696 c 2
 854 1477 l 1
 807 1427 l 1
 600 1585 l 1
 393 1427 l 1
2 0 m 1
 12 76 l 1
 65 84 111 94 158 129 c 1
 541 1366 l 1
 664 1366 l 1
 1085 127 l 1
 1128 96 1174 84 1221 76 c 1
 1212 0 l 1
 700 0 l 1
 711 76 l 1
 779 84 840 96 899 131 c 1
 795 440 l 1
 381 440 l 1
 287 131 l 1
 346 96 417 84 485 76 c 1
 477 0 l 1
 2 0 l 1
414 547 m 1
 760 547 l 1
 580 1081 l 1
 414 547 l 1
EndSplineSet
EndChar

StartChar: Atilde
Encoding: 195 195 130
Width: 1276
GlyphClass: 2
Flags: HMW
HStem: 0 76<2 12 12 12 12 477> 440 106<414 760 414 795 381 760> 1325 41G<541 664 664 664> 1497 127<679 748 679 772> 1569 127<453 521>
VStem: 2 1219<0 76>
AnchorPoint: "Anchor-3" 600 1366 basechar 0
AnchorPoint: "Anchor-2" 1212 0 basechar 0
LayerCount: 2
Fore
SplineSet
346 1497 m 1xec
 317 1505 299 1520 281 1536 c 1
 304 1591 372 1696 485 1696 c 0xec
 575 1696 639 1624 719 1624 c 0
 776 1624 815 1661 854 1700 c 1
 883 1690 902 1677 922 1661 c 1
 897 1606 823 1497 721 1497 c 0xf4
 621 1497 563 1569 479 1569 c 0
 426 1569 385 1536 346 1497 c 1xec
2 0 m 1
 12 76 l 1
 65 84 111 94 158 129 c 1
 541 1366 l 1
 664 1366 l 1
 1085 127 l 1
 1128 96 1174 84 1221 76 c 1
 1212 0 l 1
 700 0 l 1
 711 76 l 1
 779 84 840 96 899 131 c 1
 795 440 l 1
 381 440 l 1
 287 131 l 1
 346 96 417 84 485 76 c 1
 477 0 l 1
 2 0 l 1
414 547 m 1
 760 547 l 1
 580 1081 l 1
 414 547 l 1
EndSplineSet
EndChar

StartChar: Adieresis
Encoding: 196 196 131
Width: 1276
GlyphClass: 2
Flags: HMW
HStem: 0 76<2 12 12 12 12 477> 440 106<414 760 414 795 381 760> 1325 41G<541 664 664 664> 1481 215<396 462 737 803>
VStem: 334 193<1554 1623> 676 193<1554 1623>
AnchorPoint: "Anchor-3" 600 1366 basechar 0
AnchorPoint: "Anchor-2" 1212 0 basechar 0
LayerCount: 2
Fore
SplineSet
430 1481 m 0
 362 1481 334 1519 334 1589 c 0
 334 1657 362 1696 430 1696 c 0
 493 1696 526 1657 526 1589 c 0
 526 1519 493 1481 430 1481 c 0
770 1481 m 0
 704 1481 676 1519 676 1589 c 0
 676 1657 704 1696 770 1696 c 0
 836 1696 868 1657 868 1589 c 0
 868 1519 836 1481 770 1481 c 0
2 0 m 1
 12 76 l 1
 65 84 111 94 158 129 c 1
 541 1366 l 1
 664 1366 l 1
 1085 127 l 1
 1128 96 1174 84 1221 76 c 1
 1212 0 l 1
 700 0 l 1
 711 76 l 1
 779 84 840 96 899 131 c 1
 795 440 l 1
 381 440 l 1
 287 131 l 1
 346 96 417 84 485 76 c 1
 477 0 l 1
 2 0 l 1
414 547 m 1
 760 547 l 1
 580 1081 l 1
 414 547 l 1
EndSplineSet
EndChar

StartChar: Aring
Encoding: 197 197 132
Width: 1276
GlyphClass: 2
Flags: HMW
HStem: 0 76<2 12 12 12 12 477> 440 106<414 760 414 795 381 760> 1325 41G<541 664 664 664> 1421 80<574 625 574 652> 1681 78<574 625>
VStem: 426 86<1566 1614 1566 1638> 692 84<1566 1614>
AnchorPoint: "Anchor-3" 600 1366 basechar 0
AnchorPoint: "Anchor-2" 1212 0 basechar 0
LayerCount: 2
Fore
SplineSet
600 1421 m 0
 494 1421 426 1493 426 1589 c 0
 426 1687 494 1759 600 1759 c 0
 704 1759 776 1687 776 1589 c 0
 776 1493 704 1421 600 1421 c 0
600 1501 m 0
 649 1501 692 1542 692 1589 c 0
 692 1638 649 1681 600 1681 c 0
 549 1681 512 1638 512 1589 c 0
 512 1542 549 1501 600 1501 c 0
2 0 m 1
 12 76 l 1
 65 84 111 94 158 129 c 1
 541 1366 l 1
 664 1366 l 1xee
 1085 127 l 1
 1128 96 1174 84 1221 76 c 1
 1212 0 l 1
 700 0 l 1
 711 76 l 1
 779 84 840 96 899 131 c 1
 795 440 l 1
 381 440 l 1
 287 131 l 1
 346 96 417 84 485 76 c 1
 477 0 l 1
 2 0 l 1
414 547 m 1
 760 547 l 1
 580 1081 l 1
 414 547 l 1
EndSplineSet
EndChar

StartChar: AE
Encoding: 198 198 133
Width: 1774
GlyphClass: 2
Flags: HMW
HStem: 0 76<39 51 51 51 51 516> 0 119<1067 1503 1067 1655> 555 96<594 887 594 887 543 887> 645 105 1257 109<1067 1454 1067 1067>
VStem: 887 180<131 555 555 555 745 1208 1208 1208> 1415 61<487 893 487 893> 1591 73
AnchorPoint: "Anchor-5" 1040 0 basechar 0
AnchorPoint: "Anchor-3" 1165 1366 basechar 0
LayerCount: 2
Fore
SplineSet
39 0 m 1x6f
 51 76 l 1
 100 84 141 98 180 125 c 1xaf
 831 1366 l 1
 1608 1366 l 1
 1626 1055 l 1
 1610 1049 1589 1044 1569 1044 c 0
 1561 1044 1550 1047 1540 1049 c 1
 1528 1112 1503 1194 1454 1257 c 1
 1067 1257 l 1
 1067 745 l 1
 1296 756 l 2
 1370 758 1401 842 1415 893 c 1
 1477 893 l 1
 1477 487 l 1
 1415 487 l 1
 1384 593 1357 635 1294 639 c 2
 1067 651 l 1
 1067 119 l 1
 1503 119 l 1
 1556 193 1579 282 1591 350 c 1
 1605 352 1618 354 1632 354 c 0
 1644 354 1659 352 1673 350 c 1
 1655 0 l 1
 686 0 l 1x5f
 698 76 l 1
 766 84 826 96 887 131 c 1
 887 555 l 1
 543 555 l 1
 322 131 l 1
 369 102 444 84 524 76 c 1xaf
 516 0 l 1
 39 0 l 1x6f
594 651 m 1
 887 651 l 1
 887 1208 l 1
 594 651 l 1
EndSplineSet
EndChar

StartChar: Ccedilla
Encoding: 199 199 134
Width: 1152
GlyphClass: 2
Flags: HMW
HStem: -418 68<518 573 518 597> -14 123<543 543 608 608> 1274 111<473 647>
VStem: 53 205<486 886 486 922> 354 96<-283 -262> 631 104<-282 -217> 793 199<1118 1177>
AnchorPoint: "Anchor-4" 590 0 basechar 0
AnchorPoint: "Anchor-3" 559 1366 basechar 0
LayerCount: 2
Fore
SplineSet
1016 199 m 1
 961 133 819 -2 608 -14 c 1
 580 -94 l 1
 674 -112 735 -152 735 -256 c 0
 735 -346 654 -418 541 -418 c 0
 408 -418 354 -344 354 -283 c 0
 354 -242 379 -203 422 -203 c 0
 434 -203 445 -205 459 -211 c 1
 455 -225 451 -240 451 -254 c 0
 451 -311 494 -350 543 -350 c 0
 604 -350 631 -316 631 -248 c 0
 631 -187 577 -164 518 -156 c 1
 481 -115 l 1xfc
 543 -14 l 1
 211 0 53 223 53 684 c 0
 53 1159 224 1384 584 1384 c 0
 820 1384 991 1270 991 1114 c 0
 991 1024 938 952 872 952 c 0
 819 952 770 985 754 1032 c 1
 781 1069 793 1102 793 1135 c 0xfe
 793 1219 711 1274 584 1274 c 0
 363 1274 258 1087 258 684 c 0
 258 289 361 109 584 109 c 0
 736 109 881 194 944 276 c 1
 1016 199 l 1
EndSplineSet
EndChar

StartChar: Egrave
Encoding: 200 200 135
Width: 1178
GlyphClass: 2
Flags: HMW
HStem: 0 76<61 74 74 74 74 1030> 0 119<442 879 442 1030> 645 105 1044 322<939 954> 1257 109<442 827 442 442> 1292 74<61 985>
VStem: 262 180<131 651 745 1237 1237 1237> 788 66<487 893 487 893> 967 73
AnchorPoint: "Anchor-3" 555 1366 basechar 0
AnchorPoint: "Anchor-2" 991 0 basechar 0
LayerCount: 2
Fore
SplineSet
610 1425 m 1x6b80
 401 1595 l 2
 370 1622 350 1642 350 1675 c 0
 350 1712 385 1747 424 1747 c 0
 453 1747 471 1737 489 1712 c 2
 659 1475 l 1
 610 1425 l 1x6b80
61 0 m 1
 74 76 l 1
 142 84 229 106 262 131 c 1
 262 1237 l 1
 203 1268 129 1284 61 1292 c 1xa780
 72 1366 l 1
 985 1366 l 1x6b80
 1001 1055 l 1
 985 1049 964 1044 944 1044 c 0
 934 1044 923 1047 913 1049 c 1x7380
 901 1112 878 1194 827 1257 c 1
 442 1257 l 1
 442 745 l 1
 674 756 l 2
 737 758 768 821 788 893 c 1
 854 893 l 1
 854 487 l 1
 788 487 l 1
 757 600 738 635 668 639 c 2
 442 651 l 1
 442 119 l 1
 879 119 l 1
 932 193 955 282 967 350 c 1
 979 352 994 354 1006 354 c 0
 1020 354 1033 352 1049 350 c 1
 1030 0 l 1
 61 0 l 1
EndSplineSet
EndChar

StartChar: Eacute
Encoding: 201 201 136
Width: 1178
GlyphClass: 2
Flags: HMW
HStem: 0 76<61 74 74 74 74 1030> 0 119<442 879 442 1030> 645 105 1044 322<939 954> 1257 109<442 827 442 442> 1292 74<61 985>
VStem: 262 180<131 651 745 1237 1237 1237> 788 66<487 893 487 893> 967 73
AnchorPoint: "Anchor-3" 555 1366 basechar 0
AnchorPoint: "Anchor-2" 991 0 basechar 0
LayerCount: 2
Fore
SplineSet
498 1423 m 1x6b80
 453 1473 l 1
 623 1710 l 2
 641 1735 659 1745 688 1745 c 0
 727 1745 762 1710 762 1673 c 0
 762 1640 744 1618 711 1593 c 2
 498 1423 l 1x6b80
61 0 m 1
 74 76 l 1
 142 84 229 106 262 131 c 1
 262 1237 l 1
 203 1268 129 1284 61 1292 c 1xa780
 72 1366 l 1
 985 1366 l 1x6b80
 1001 1055 l 1
 985 1049 964 1044 944 1044 c 0
 934 1044 923 1047 913 1049 c 1x7380
 901 1112 878 1194 827 1257 c 1
 442 1257 l 1
 442 745 l 1
 674 756 l 2
 737 758 768 821 788 893 c 1
 854 893 l 1
 854 487 l 1
 788 487 l 1
 757 600 738 635 668 639 c 2
 442 651 l 1
 442 119 l 1
 879 119 l 1
 932 193 955 282 967 350 c 1
 979 352 994 354 1006 354 c 0
 1020 354 1033 352 1049 350 c 1
 1030 0 l 1
 61 0 l 1
EndSplineSet
EndChar

StartChar: Ecircumflex
Encoding: 202 202 137
Width: 1178
GlyphClass: 2
Flags: HMW
HStem: 0 76<61 74 74 74 74 1030> 0 119<442 879 442 1030> 645 105 1044 322<939 954> 1257 109<442 827 442 442> 1292 74<61 985>
VStem: 262 180<131 651 745 1237 1237 1237> 788 66<487 893 487 893> 967 73
AnchorPoint: "Anchor-3" 555 1366 basechar 0
AnchorPoint: "Anchor-2" 991 0 basechar 0
LayerCount: 2
Fore
SplineSet
348 1427 m 1x6b80
 303 1477 l 1
 494 1696 l 2
 512 1716 532 1729 557 1729 c 0
 582 1729 603 1719 621 1696 c 2
 809 1477 l 1
 762 1427 l 1
 555 1585 l 1
 348 1427 l 1x6b80
61 0 m 1
 74 76 l 1
 142 84 229 106 262 131 c 1
 262 1237 l 1
 203 1268 129 1284 61 1292 c 1xa780
 72 1366 l 1
 985 1366 l 1x6b80
 1001 1055 l 1
 985 1049 964 1044 944 1044 c 0
 934 1044 923 1047 913 1049 c 1x7380
 901 1112 878 1194 827 1257 c 1
 442 1257 l 1
 442 745 l 1
 674 756 l 2
 737 758 768 821 788 893 c 1
 854 893 l 1
 854 487 l 1
 788 487 l 1
 757 600 738 635 668 639 c 2
 442 651 l 1
 442 119 l 1
 879 119 l 1
 932 193 955 282 967 350 c 1
 979 352 994 354 1006 354 c 0
 1020 354 1033 352 1049 350 c 1
 1030 0 l 1
 61 0 l 1
EndSplineSet
EndChar

StartChar: Edieresis
Encoding: 203 203 138
Width: 1178
GlyphClass: 2
Flags: HMW
HStem: 0 76<61 74 74 74 74 1030> 0 119<442 879 442 1030> 645 105 1044 322<939 954> 1257 109<442 827 442 442> 1292 74<61 985> 1481 215<351 417 692 758>
VStem: 262 180<131 651 745 1237 1237 1237> 289 193<1554 1623> 631 193<1554 1623> 788 66<487 893 487 893> 967 73
AnchorPoint: "Anchor-3" 555 1366 basechar 0
AnchorPoint: "Anchor-2" 991 0 basechar 0
LayerCount: 2
Fore
SplineSet
385 1481 m 0x6ad0
 317 1481 289 1519 289 1589 c 0
 289 1657 317 1696 385 1696 c 0
 448 1696 481 1657 481 1589 c 0
 481 1519 448 1481 385 1481 c 0x6ad0
725 1481 m 0
 659 1481 631 1519 631 1589 c 0
 631 1657 659 1696 725 1696 c 0
 791 1696 823 1657 823 1589 c 0
 823 1519 791 1481 725 1481 c 0
61 0 m 1
 74 76 l 1
 142 84 229 106 262 131 c 1
 262 1237 l 1
 203 1268 129 1284 61 1292 c 1xa530
 72 1366 l 1
 985 1366 l 1x6930
 1001 1055 l 1
 985 1049 964 1044 944 1044 c 0
 934 1044 923 1047 913 1049 c 1x7130
 901 1112 878 1194 827 1257 c 1
 442 1257 l 1
 442 745 l 1
 674 756 l 2
 737 758 768 821 788 893 c 1
 854 893 l 1
 854 487 l 1
 788 487 l 1
 757 600 738 635 668 639 c 2
 442 651 l 1
 442 119 l 1x6930
 879 119 l 1
 932 193 955 282 967 350 c 1
 979 352 994 354 1006 354 c 0
 1020 354 1033 352 1049 350 c 1
 1030 0 l 1
 61 0 l 1
EndSplineSet
EndChar

StartChar: Igrave
Encoding: 204 204 139
Width: 664
GlyphClass: 2
Flags: HMW
HStem: 0 76<61 74 74 74 74 631> 1292 74<61 639 629 629>
VStem: 262 180<131 1237 131 1237>
AnchorPoint: "Anchor-3" 352 1366 basechar 0
AnchorPoint: "Anchor-2" 395 0 basechar 0
LayerCount: 2
Fore
SplineSet
408 1425 m 1
 199 1595 l 2
 168 1622 147 1642 147 1675 c 0
 147 1712 182 1747 221 1747 c 0
 250 1747 269 1737 287 1712 c 2
 457 1475 l 1
 408 1425 l 1
61 0 m 1
 74 76 l 1
 140 84 203 96 262 131 c 1
 262 1237 l 1
 203 1268 131 1284 61 1292 c 1
 72 1366 l 1
 639 1366 l 1
 629 1292 l 1
 563 1284 501 1270 442 1237 c 1
 442 131 l 1
 501 96 573 84 641 76 c 1
 631 0 l 1
 61 0 l 1
EndSplineSet
EndChar

StartChar: Iacute
Encoding: 205 205 140
Width: 664
GlyphClass: 2
Flags: HMW
HStem: 0 76<61 74 74 74 74 631> 1292 74<61 639 629 629>
VStem: 262 180<131 1237 131 1237>
AnchorPoint: "Anchor-3" 352 1366 basechar 0
AnchorPoint: "Anchor-2" 395 0 basechar 0
LayerCount: 2
Fore
SplineSet
295 1423 m 1
 250 1473 l 1
 420 1710 l 2
 438 1735 456 1745 485 1745 c 0
 524 1745 559 1710 559 1673 c 0
 559 1640 541 1618 508 1593 c 2
 295 1423 l 1
61 0 m 1
 74 76 l 1
 140 84 203 96 262 131 c 1
 262 1237 l 1
 203 1268 131 1284 61 1292 c 1
 72 1366 l 1
 639 1366 l 1
 629 1292 l 1
 563 1284 501 1270 442 1237 c 1
 442 131 l 1
 501 96 573 84 641 76 c 1
 631 0 l 1
 61 0 l 1
EndSplineSet
EndChar

StartChar: Icircumflex
Encoding: 206 206 141
Width: 664
GlyphClass: 2
Flags: HMW
HStem: 0 76<61 74 74 74 74 631> 1292 74<61 639 629 629>
VStem: 262 180<131 1237 131 1237>
AnchorPoint: "Anchor-3" 352 1366 basechar 0
AnchorPoint: "Anchor-2" 395 0 basechar 0
LayerCount: 2
Fore
SplineSet
145 1427 m 1
 100 1477 l 1
 291 1696 l 2
 309 1716 329 1729 354 1729 c 0
 379 1729 400 1719 418 1696 c 2
 606 1477 l 1
 559 1427 l 1
 352 1585 l 1
 145 1427 l 1
61 0 m 1
 74 76 l 1
 140 84 203 96 262 131 c 1
 262 1237 l 1
 203 1268 131 1284 61 1292 c 1
 72 1366 l 1
 639 1366 l 1
 629 1292 l 1
 563 1284 501 1270 442 1237 c 1
 442 131 l 1
 501 96 573 84 641 76 c 1
 631 0 l 1
 61 0 l 1
EndSplineSet
EndChar

StartChar: Idieresis
Encoding: 207 207 142
Width: 664
GlyphClass: 2
Flags: HMW
HStem: 0 76<61 74 74 74 74 631> 1292 74<61 639 629 629> 1481 215<148 214 489 555>
VStem: 86 193<1554 1623> 262 180<131 1237 131 1237> 428 193<1554 1623>
CounterMasks: 1 1c
AnchorPoint: "Anchor-3" 352 1366 basechar 0
AnchorPoint: "Anchor-2" 395 0 basechar 0
LayerCount: 2
Fore
SplineSet
182 1481 m 0xf4
 114 1481 86 1519 86 1589 c 0
 86 1657 114 1696 182 1696 c 0
 245 1696 279 1657 279 1589 c 0
 279 1519 245 1481 182 1481 c 0xf4
522 1481 m 0
 456 1481 428 1519 428 1589 c 0
 428 1657 456 1696 522 1696 c 0
 588 1696 621 1657 621 1589 c 0
 621 1519 588 1481 522 1481 c 0
61 0 m 1
 74 76 l 1
 140 84 203 96 262 131 c 1
 262 1237 l 1
 203 1268 131 1284 61 1292 c 1
 72 1366 l 1
 639 1366 l 1
 629 1292 l 1
 563 1284 501 1270 442 1237 c 1
 442 131 l 1
 501 96 573 84 641 76 c 1
 631 0 l 1xc8
 61 0 l 1
EndSplineSet
EndChar

StartChar: Eth
Encoding: 208 208 143
Width: 1361
GlyphClass: 2
Flags: HMW
HStem: 0 76<74 74 74 500 63 74> 0 100<63 690> 623 90<123 260 123 260 442 692> 1264 102<442 512 512 541 442 442> 1292 74<61 512>
VStem: 260 182<129 623 109 623 713 1237 1237 1237> 1022 205<462 903>
AnchorPoint: "Anchor-3" 643 1366 basechar 0
LayerCount: 2
Fore
SplineSet
512 1366 m 2x76
 981 1366 1227 1165 1227 682 c 0
 1227 197 983 0 500 0 c 2
 63 0 l 1x76
 74 76 l 1
 140 84 203 94 260 129 c 1
 260 623 l 1
 123 623 l 1
 123 713 l 1
 260 713 l 1
 260 1237 l 1
 201 1270 127 1284 61 1292 c 1xae
 72 1366 l 1
 512 1366 l 2x76
535 100 m 0
 846 100 1022 240 1022 684 c 0
 1022 1122 850 1264 541 1264 c 2
 442 1264 l 1
 442 713 l 1
 692 713 l 1
 692 623 l 1
 442 623 l 1
 442 109 l 1
 469 103 506 100 535 100 c 0
EndSplineSet
EndChar

StartChar: Ntilde
Encoding: 209 209 144
Width: 1394
GlyphClass: 2
Flags: HMW
HStem: 0 76<61 74 74 74 74 582> 1292 74<61 397 1364 1364> 1497 127<790 858 790 883> 1569 127<563 632>
VStem: 262 129<131 1055 131 1237> 1042 133<391 1237 0 1237>
AnchorPoint: "Anchor-5" 758 0 basechar 0
AnchorPoint: "Anchor-3" 711 1366 basechar 0
LayerCount: 2
Fore
SplineSet
457 1497 m 1xdc
 428 1505 409 1520 391 1536 c 1
 414 1591 483 1696 596 1696 c 0xdc
 686 1696 749 1624 829 1624 c 0
 886 1624 926 1661 965 1700 c 1
 994 1690 1012 1677 1032 1661 c 1
 1007 1606 933 1497 831 1497 c 0xec
 731 1497 674 1569 590 1569 c 0
 537 1569 496 1536 457 1497 c 1xdc
61 0 m 1
 74 76 l 1
 142 84 203 96 262 131 c 1
 262 1237 l 1
 203 1268 131 1284 61 1292 c 1
 72 1366 l 1
 397 1366 l 1
 1042 391 l 1
 1042 1237 l 1
 987 1268 912 1284 846 1292 c 1
 856 1366 l 1
 1374 1366 l 1
 1364 1292 l 1
 1294 1284 1235 1270 1176 1237 c 1
 1176 0 l 1
 1087 0 l 1
 391 1055 l 1
 391 131 l 1
 448 98 524 84 590 76 c 1
 582 0 l 1
 61 0 l 1
EndSplineSet
EndChar

StartChar: Ograve
Encoding: 210 210 145
Width: 1338
GlyphClass: 2
Flags: HMW
HStem: -14 100<461 768 461 823> 1282 102<461 768>
VStem: 53 207<527 842 527 898> 967 207<525 840>
AnchorPoint: "Anchor-3" 612 1366 basechar 0
LayerCount: 2
Fore
SplineSet
668 1425 m 1
 459 1595 l 2
 428 1622 408 1642 408 1675 c 0
 408 1712 442 1747 481 1747 c 0
 510 1747 529 1737 547 1712 c 2
 717 1475 l 1
 668 1425 l 1
614 -14 m 0
 194 -14 53 258 53 684 c 0
 53 1112 194 1384 614 1384 c 0
 1032 1384 1174 1110 1174 682 c 0
 1174 256 1032 -14 614 -14 c 0
614 86 m 0
 921 86 967 369 967 682 c 0
 967 997 921 1282 614 1282 c 0
 307 1282 260 999 260 684 c 0
 260 371 307 86 614 86 c 0
EndSplineSet
EndChar

StartChar: Oacute
Encoding: 211 211 146
Width: 1338
GlyphClass: 2
Flags: HMW
HStem: -14 100<461 768 461 823> 1282 102<461 768>
VStem: 53 207<527 842 527 898> 967 207<525 840>
AnchorPoint: "Anchor-3" 612 1366 basechar 0
LayerCount: 2
Fore
SplineSet
555 1423 m 1
 510 1473 l 1
 680 1710 l 2
 698 1735 716 1745 745 1745 c 0
 784 1745 819 1710 819 1673 c 0
 819 1640 801 1618 768 1593 c 2
 555 1423 l 1
614 -14 m 0
 194 -14 53 258 53 684 c 0
 53 1112 194 1384 614 1384 c 0
 1032 1384 1174 1110 1174 682 c 0
 1174 256 1032 -14 614 -14 c 0
614 86 m 0
 921 86 967 369 967 682 c 0
 967 997 921 1282 614 1282 c 0
 307 1282 260 999 260 684 c 0
 260 371 307 86 614 86 c 0
EndSplineSet
EndChar

StartChar: Ocircumflex
Encoding: 212 212 147
Width: 1338
GlyphClass: 2
Flags: HMW
HStem: -14 100<461 768 461 823> 1282 102<461 768>
VStem: 53 207<527 842 527 898> 967 207<525 840>
AnchorPoint: "Anchor-3" 612 1366 basechar 0
LayerCount: 2
Fore
SplineSet
406 1427 m 1
 360 1477 l 1
 551 1696 l 2
 569 1716 589 1729 614 1729 c 0
 639 1729 660 1719 678 1696 c 2
 866 1477 l 1
 819 1427 l 1
 612 1585 l 1
 406 1427 l 1
614 -14 m 0
 194 -14 53 258 53 684 c 0
 53 1112 194 1384 614 1384 c 0
 1032 1384 1174 1110 1174 682 c 0
 1174 256 1032 -14 614 -14 c 0
614 86 m 0
 921 86 967 369 967 682 c 0
 967 997 921 1282 614 1282 c 0
 307 1282 260 999 260 684 c 0
 260 371 307 86 614 86 c 0
EndSplineSet
EndChar

StartChar: Otilde
Encoding: 213 213 148
Width: 1338
GlyphClass: 2
Flags: HMW
HStem: -14 100<461 768 461 823> 1282 102<461 768> 1497 127<691 760 691 784> 1569 127<465 534>
VStem: 53 207<527 842 527 898> 967 207<525 840>
AnchorPoint: "Anchor-3" 612 1366 basechar 0
LayerCount: 2
Fore
SplineSet
358 1497 m 1xdc
 329 1505 311 1520 293 1536 c 1
 316 1591 385 1696 498 1696 c 0xdc
 588 1696 651 1624 731 1624 c 0
 788 1624 827 1661 866 1700 c 1
 895 1690 914 1677 934 1661 c 1
 909 1606 835 1497 733 1497 c 0xec
 633 1497 576 1569 492 1569 c 0
 439 1569 397 1536 358 1497 c 1xdc
614 -14 m 0
 194 -14 53 258 53 684 c 0
 53 1112 194 1384 614 1384 c 0
 1032 1384 1174 1110 1174 682 c 0
 1174 256 1032 -14 614 -14 c 0
614 86 m 0
 921 86 967 369 967 682 c 0
 967 997 921 1282 614 1282 c 0
 307 1282 260 999 260 684 c 0
 260 371 307 86 614 86 c 0
EndSplineSet
EndChar

StartChar: Odieresis
Encoding: 214 214 149
Width: 1338
GlyphClass: 2
Flags: HMW
HStem: -14 100<461 768 461 823> 1282 102<461 768> 1481 215<409 474 750 815>
VStem: 53 207<527 842 527 898> 346 193<1554 1623> 688 193<1554 1623> 967 207<525 840>
AnchorPoint: "Anchor-3" 612 1366 basechar 0
LayerCount: 2
Fore
SplineSet
442 1481 m 0
 374 1481 346 1519 346 1589 c 0
 346 1657 374 1696 442 1696 c 0
 505 1696 539 1657 539 1589 c 0
 539 1519 505 1481 442 1481 c 0
782 1481 m 0
 716 1481 688 1519 688 1589 c 0
 688 1657 716 1696 782 1696 c 0
 848 1696 881 1657 881 1589 c 0
 881 1519 848 1481 782 1481 c 0
614 -14 m 0
 194 -14 53 258 53 684 c 0
 53 1112 194 1384 614 1384 c 0
 1032 1384 1174 1110 1174 682 c 0
 1174 256 1032 -14 614 -14 c 0
614 86 m 0
 921 86 967 369 967 682 c 0
 967 997 921 1282 614 1282 c 0
 307 1282 260 999 260 684 c 0
 260 371 307 86 614 86 c 0
EndSplineSet
EndChar

StartChar: multiply
Encoding: 215 215 150
Width: 1463
GlyphClass: 2
Flags: HMW
HStem: 938 41G<256 256 877 877>
VStem: 166 803<274 274>
LayerCount: 2
Fore
SplineSet
250 188 m 1
 166 274 l 1
 481 586 l 1
 172 893 l 1
 256 979 l 1
 565 672 l 1
 877 979 l 1
 961 893 l 1
 653 586 l 1
 969 274 l 1
 885 188 l 1
 565 500 l 1
 250 188 l 1
EndSplineSet
EndChar

StartChar: Oslash
Encoding: 216 216 151
Width: 1338
GlyphClass: 2
Flags: HMW
HStem: -14 100<609 834 609 889> -8 43G<117 117> 1282 102<526 748>
VStem: 119 207<620 842 620 898> 1032 207<525 750>
AnchorPoint: "Anchor-5" 670 0 basechar 0
AnchorPoint: "Anchor-3" 670 1366 basechar 0
LayerCount: 2
Fore
SplineSet
180 -61 m 1xb8
 155 -49 131 -28 117 -8 c 1
 246 168 l 1x78
 154 291 119 467 119 684 c 0
 119 1112 260 1384 680 1384 c 0
 840 1384 959 1344 1047 1270 c 1
 1147 1405 l 1
 1172 1393 1192 1379 1210 1352 c 1
 1106 1208 l 1
 1200 1085 1239 903 1239 682 c 0
 1239 256 1098 -14 680 -14 c 0
 512 -14 389 28 303 106 c 1
 180 -61 l 1xb8
362 330 m 1
 950 1139 l 1
 899 1227 815 1282 680 1282 c 0
 373 1282 326 999 326 684 c 0
 326 555 331 432 362 330 c 1
680 86 m 0
 987 86 1032 369 1032 682 c 0
 1032 817 1024 947 989 1049 c 1
 399 240 l 1
 452 146 539 86 680 86 c 0
EndSplineSet
EndChar

StartChar: Ugrave
Encoding: 217 217 152
Width: 1327
GlyphClass: 2
Flags: HMW
HStem: -14 106<614 826 614 869> 1292 74<25 606 594 594 1372 1372>
VStem: 223 186<430 1237> 1053 131<442 1237>
AnchorPoint: "Anchor-3" 707 1366 basechar 0
AnchorPoint: "Anchor-2" 872 0 basechar 0
LayerCount: 2
Fore
SplineSet
762 1425 m 1
 553 1595 l 2
 522 1622 502 1642 502 1675 c 0
 502 1712 536 1747 575 1747 c 0
 604 1747 623 1737 641 1712 c 2
 811 1475 l 1
 762 1425 l 1
721 -14 m 0
 369 -14 223 123 223 430 c 2
 223 1237 l 1
 176 1262 113 1282 25 1292 c 1
 33 1366 l 1
 606 1366 l 1
 594 1292 l 1
 510 1278 457 1262 410 1237 c 1
 410 430 l 2
 410 186 508 92 721 92 c 0
 932 92 1053 215 1053 442 c 2
 1053 1237 l 1
 1008 1262 942 1282 854 1292 c 1
 864 1366 l 1
 1382 1366 l 1
 1372 1292 l 1
 1284 1278 1231 1262 1184 1237 c 1
 1184 442 l 2
 1184 149 1018 -14 721 -14 c 0
EndSplineSet
EndChar

StartChar: Uacute
Encoding: 218 218 153
Width: 1327
GlyphClass: 2
Flags: HMW
HStem: -14 106<614 826 614 869> 1292 74<25 606 594 594 1372 1372>
VStem: 223 186<430 1237> 1053 131<442 1237>
AnchorPoint: "Anchor-3" 707 1366 basechar 0
AnchorPoint: "Anchor-2" 872 0 basechar 0
LayerCount: 2
Fore
SplineSet
649 1423 m 1
 604 1473 l 1
 774 1710 l 2
 792 1735 811 1745 840 1745 c 0
 879 1745 913 1710 913 1673 c 0
 913 1640 895 1618 862 1593 c 2
 649 1423 l 1
721 -14 m 0
 369 -14 223 123 223 430 c 2
 223 1237 l 1
 176 1262 113 1282 25 1292 c 1
 33 1366 l 1
 606 1366 l 1
 594 1292 l 1
 510 1278 457 1262 410 1237 c 1
 410 430 l 2
 410 186 508 92 721 92 c 0
 932 92 1053 215 1053 442 c 2
 1053 1237 l 1
 1008 1262 942 1282 854 1292 c 1
 864 1366 l 1
 1382 1366 l 1
 1372 1292 l 1
 1284 1278 1231 1262 1184 1237 c 1
 1184 442 l 2
 1184 149 1018 -14 721 -14 c 0
EndSplineSet
EndChar

StartChar: Ucircumflex
Encoding: 219 219 154
Width: 1327
GlyphClass: 2
Flags: HMW
HStem: -14 106<614 826 614 869> 1292 74<25 606 594 594 1372 1372>
VStem: 223 186<430 1237> 1053 131<442 1237>
AnchorPoint: "Anchor-3" 707 1366 basechar 0
AnchorPoint: "Anchor-2" 872 0 basechar 0
LayerCount: 2
Fore
SplineSet
500 1427 m 1
 455 1477 l 1
 645 1696 l 2
 663 1716 684 1729 709 1729 c 0
 734 1729 754 1719 772 1696 c 2
 961 1477 l 1
 913 1427 l 1
 707 1585 l 1
 500 1427 l 1
721 -14 m 0
 369 -14 223 123 223 430 c 2
 223 1237 l 1
 176 1262 113 1282 25 1292 c 1
 33 1366 l 1
 606 1366 l 1
 594 1292 l 1
 510 1278 457 1262 410 1237 c 1
 410 430 l 2
 410 186 508 92 721 92 c 0
 932 92 1053 215 1053 442 c 2
 1053 1237 l 1
 1008 1262 942 1282 854 1292 c 1
 864 1366 l 1
 1382 1366 l 1
 1372 1292 l 1
 1284 1278 1231 1262 1184 1237 c 1
 1184 442 l 2
 1184 149 1018 -14 721 -14 c 0
EndSplineSet
EndChar

StartChar: Udieresis
Encoding: 220 220 155
Width: 1327
GlyphClass: 2
Flags: HMW
HStem: -14 106<614 826 614 869> 1292 74<25 606 594 594 1372 1372> 1481 215<503 568 844 909>
VStem: 223 186<430 1237> 440 193<1554 1623> 782 193<1554 1623> 1053 131<442 1237>
AnchorPoint: "Anchor-3" 707 1366 basechar 0
AnchorPoint: "Anchor-2" 872 0 basechar 0
LayerCount: 2
Fore
SplineSet
537 1481 m 0
 469 1481 440 1519 440 1589 c 0
 440 1657 469 1696 537 1696 c 0
 600 1696 633 1657 633 1589 c 0
 633 1519 600 1481 537 1481 c 0
877 1481 m 0
 811 1481 782 1519 782 1589 c 0
 782 1657 811 1696 877 1696 c 0
 943 1696 975 1657 975 1589 c 0
 975 1519 943 1481 877 1481 c 0
721 -14 m 0xd2
 369 -14 223 123 223 430 c 2
 223 1237 l 1
 176 1262 113 1282 25 1292 c 1
 33 1366 l 1
 606 1366 l 1
 594 1292 l 1
 510 1278 457 1262 410 1237 c 1
 410 430 l 2
 410 186 508 92 721 92 c 0
 932 92 1053 215 1053 442 c 2
 1053 1237 l 1
 1008 1262 942 1282 854 1292 c 1
 864 1366 l 1
 1382 1366 l 1
 1372 1292 l 1
 1284 1278 1231 1262 1184 1237 c 1
 1184 442 l 2
 1184 149 1018 -14 721 -14 c 0xd2
EndSplineSet
EndChar

StartChar: Yacute
Encoding: 221 221 156
Width: 1168
GlyphClass: 2
Flags: HMW
HStem: 0 76<274 285 285 285 285 864> 1292 74<8 524 514 514 1120 1120>
VStem: 483 180<131 543 543 543>
AnchorPoint: "Anchor-3" 590 1366 basechar 0
LayerCount: 2
Fore
SplineSet
532 1423 m 1
 487 1473 l 1
 657 1710 l 2
 675 1735 694 1745 723 1745 c 0
 762 1745 797 1710 797 1673 c 0
 797 1640 778 1618 745 1593 c 2
 532 1423 l 1
274 0 m 1
 285 76 l 1
 359 84 420 94 483 131 c 1
 483 543 l 1
 135 1239 l 1
 104 1262 55 1282 8 1292 c 1
 18 1366 l 1
 524 1366 l 1
 514 1292 l 1
 453 1284 393 1270 336 1237 c 1
 592 702 l 1
 854 1239 l 1
 803 1266 738 1284 672 1292 c 1
 682 1366 l 1
 1133 1366 l 1
 1120 1292 l 1
 1075 1284 1032 1268 995 1239 c 1
 664 567 l 1
 664 131 l 1
 725 96 800 84 872 76 c 1
 864 0 l 1
 274 0 l 1
EndSplineSet
EndChar

StartChar: Thorn
Encoding: 222 222 157
Width: 1175
GlyphClass: 2
Flags: HMW
HStem: 0 76<113 113 113 670 100 113> 317 92<481 549 481 549> 987 86<599 637 637 720> 1292 74<100 678 668 668>
VStem: 301 180<131 317 131 410 410 975 1073 1237> 901 184<599 799>
LayerCount: 2
Fore
SplineSet
549 317 m 2
 481 317 l 1
 481 131 l 1
 540 96 612 84 680 76 c 1
 670 0 l 1
 100 0 l 1
 113 76 l 1
 179 84 242 96 301 131 c 1
 301 1237 l 1
 242 1268 170 1284 100 1292 c 1
 111 1366 l 1
 678 1366 l 1
 668 1292 l 1
 602 1284 540 1270 481 1237 c 1
 481 1073 l 1
 637 1073 l 2
 950 1073 1085 936 1085 698 c 0
 1085 401 873 317 549 317 c 2
481 975 m 1
 481 410 l 1
 549 410 l 2
 764 410 901 495 901 702 c 0
 901 895 803 987 637 987 c 0
 561 987 516 981 481 975 c 1
EndSplineSet
EndChar

StartChar: germandbls
Encoding: 223 223 158
Width: 1240
GlyphClass: 2
Flags: HMW
HStem: -10 88<753 838 753 883> 0 74<113 113 113 422 104 113> 1325 80<531 694>
VStem: 248 174<127 963 0 1055 0 1171> 508 172<147 189 147 191> 825 180<1036 1169> 950 180<267 450>
LayerCount: 2
Fore
SplineSet
782 -10 m 0xba
 602 -10 508 45 508 156 c 0
 508 228 558 274 621 274 c 0
 646 274 671 268 698 254 c 1
 686 225 680 201 680 178 c 0
 680 117 718 78 786 78 c 0
 888 78 950 184 950 350 c 0xba
 950 549 835 653 569 692 c 1
 569 801 l 1
 700 824 825 971 825 1102 c 0
 825 1237 762 1325 627 1325 c 0
 437 1325 422 1151 422 963 c 2
 422 0 l 1
 104 0 l 1
 113 74 l 1
 176 84 209 94 248 127 c 1
 248 1055 l 2
 248 1288 392 1405 625 1405 c 0
 842 1405 1006 1315 1006 1096 c 0x7c
 1006 965 889 832 723 760 c 1
 973 705 1130 553 1130 352 c 0
 1130 143 983 -10 782 -10 c 0xba
EndSplineSet
EndChar

StartChar: agrave
Encoding: 224 224 159
Width: 1000
GlyphClass: 2
Flags: HMW
HStem: -14 84<325 375> 0 70 439 85 893 82<368 485>
VStem: 53 180<182 292 182 308> 78 174<783 815> 604 174<188 446 446 446 530 696 125 765>
AnchorPoint: "Anchor-3" 428 956 basechar 0
AnchorPoint: "Anchor-2" 774 0 basechar 0
LayerCount: 2
Fore
SplineSet
483 1118 m 1xb6
 274 1288 l 2
 243 1315 223 1335 223 1368 c 0
 223 1405 258 1440 297 1440 c 0
 326 1440 344 1430 362 1405 c 2
 532 1167 l 1
 483 1118 l 1xb6
319 -14 m 0xba
 151 -14 53 72 53 219 c 0xba
 53 397 186 502 436 518 c 2
 604 530 l 1
 604 696 l 2
 604 833 549 893 422 893 c 0
 313 893 252 858 252 801 c 0
 252 766 274 739 313 725 c 1
 313 662 273 627 197 627 c 0
 125 627 78 673 78 745 c 0
 78 884 211 975 422 975 c 0
 645 975 778 872 778 696 c 2
 778 125 l 1
 803 107 863 82 922 70 c 1xb6
 913 0 l 1
 631 0 l 1x76
 610 92 l 1
 520 8 430 -14 319 -14 c 0xba
371 70 m 0
 449 70 516 104 604 188 c 1
 604 446 l 1
 440 432 l 2
 311 422 233 347 233 238 c 0
 233 127 279 70 371 70 c 0
EndSplineSet
EndChar

StartChar: aacute
Encoding: 225 225 160
Width: 1000
GlyphClass: 2
Flags: HMW
HStem: -14 84<325 375> 0 70 439 85 893 82<368 485>
VStem: 53 180<182 292 182 308> 78 174<783 815> 604 174<188 446 446 446 530 696 125 765>
AnchorPoint: "Anchor-3" 428 956 basechar 0
AnchorPoint: "Anchor-2" 774 0 basechar 0
LayerCount: 2
Fore
SplineSet
371 1118 m 1xb6
 326 1167 l 1
 496 1405 l 2
 514 1430 532 1440 561 1440 c 0
 600 1440 635 1405 635 1368 c 0
 635 1335 617 1313 584 1288 c 2
 371 1118 l 1xb6
319 -14 m 0xba
 151 -14 53 72 53 219 c 0xba
 53 397 186 502 436 518 c 2
 604 530 l 1
 604 696 l 2
 604 833 549 893 422 893 c 0
 313 893 252 858 252 801 c 0
 252 766 274 739 313 725 c 1
 313 662 273 627 197 627 c 0
 125 627 78 673 78 745 c 0
 78 884 211 975 422 975 c 0
 645 975 778 872 778 696 c 2
 778 125 l 1
 803 107 863 82 922 70 c 1xb6
 913 0 l 1
 631 0 l 1x76
 610 92 l 1
 520 8 430 -14 319 -14 c 0xba
371 70 m 0
 449 70 516 104 604 188 c 1
 604 446 l 1
 440 432 l 2
 311 422 233 347 233 238 c 0
 233 127 279 70 371 70 c 0
EndSplineSet
EndChar

StartChar: acircumflex
Encoding: 226 226 161
Width: 1000
GlyphClass: 2
Flags: HMW
HStem: -14 84<325 375> 0 70 439 85 893 82<368 485>
VStem: 53 180<182 292 182 308> 78 174<783 815> 604 174<188 446 446 446 530 696 125 765>
AnchorPoint: "Anchor-3" 428 956 basechar 0
AnchorPoint: "Anchor-2" 774 0 basechar 0
LayerCount: 2
Fore
SplineSet
221 1120 m 1xb6
 176 1169 l 1
 367 1389 l 2
 385 1409 405 1421 430 1421 c 0
 455 1421 476 1412 494 1389 c 2
 682 1169 l 1
 635 1120 l 1
 428 1278 l 1
 221 1120 l 1xb6
319 -14 m 0xba
 151 -14 53 72 53 219 c 0xba
 53 397 186 502 436 518 c 2
 604 530 l 1
 604 696 l 2
 604 833 549 893 422 893 c 0
 313 893 252 858 252 801 c 0
 252 766 274 739 313 725 c 1
 313 662 273 627 197 627 c 0
 125 627 78 673 78 745 c 0
 78 884 211 975 422 975 c 0
 645 975 778 872 778 696 c 2
 778 125 l 1
 803 107 863 82 922 70 c 1xb6
 913 0 l 1
 631 0 l 1x76
 610 92 l 1
 520 8 430 -14 319 -14 c 0xba
371 70 m 0
 449 70 516 104 604 188 c 1
 604 446 l 1
 440 432 l 2
 311 422 233 347 233 238 c 0
 233 127 279 70 371 70 c 0
EndSplineSet
EndChar

StartChar: atilde
Encoding: 227 227 162
Width: 1000
GlyphClass: 2
Flags: HMW
HStem: -14 84<325 375> 0 70 439 85 893 82<368 485> 1137 127<507 575 507 600> 1208 127<281 349>
VStem: 53 180<182 292 182 308> 78 174<783 815> 604 174<188 446 446 446 530 696 125 765>
AnchorPoint: "Anchor-3" 428 956 basechar 0
AnchorPoint: "Anchor-2" 774 0 basechar 0
LayerCount: 2
Fore
SplineSet
174 1137 m 1xb580
 145 1145 127 1160 109 1176 c 1
 132 1231 200 1335 313 1335 c 0xb580
 403 1335 467 1264 547 1264 c 0
 604 1264 643 1300 682 1339 c 1
 711 1329 730 1316 750 1300 c 1
 725 1245 651 1137 549 1137 c 0xb980
 449 1137 391 1208 307 1208 c 0
 254 1208 213 1176 174 1137 c 1xb580
319 -14 m 0xb680
 151 -14 53 72 53 219 c 0xb680
 53 397 186 502 436 518 c 2
 604 530 l 1
 604 696 l 2
 604 833 549 893 422 893 c 0
 313 893 252 858 252 801 c 0
 252 766 274 739 313 725 c 1
 313 662 273 627 197 627 c 0
 125 627 78 673 78 745 c 0
 78 884 211 975 422 975 c 0
 645 975 778 872 778 696 c 2
 778 125 l 1
 803 107 863 82 922 70 c 1xb580
 913 0 l 1
 631 0 l 1x7580
 610 92 l 1
 520 8 430 -14 319 -14 c 0xb680
371 70 m 0
 449 70 516 104 604 188 c 1
 604 446 l 1
 440 432 l 2
 311 422 233 347 233 238 c 0
 233 127 279 70 371 70 c 0
EndSplineSet
EndChar

StartChar: adieresis
Encoding: 228 228 163
Width: 1000
GlyphClass: 2
Flags: HMW
HStem: -14 84<325 375> 0 70 439 85 893 82<368 485> 1143 215<224 290 565 631>
VStem: 53 180<182 292 182 308> 78 174<783 815> 162 193<1217 1285> 504 193<1217 1285> 604 174<188 446 446 446 530 696 125 765>
AnchorPoint: "Anchor-3" 428 956 basechar 0
AnchorPoint: "Anchor-2" 774 0 basechar 0
LayerCount: 2
Fore
SplineSet
258 1143 m 0xb980
 190 1143 162 1181 162 1251 c 0
 162 1319 190 1358 258 1358 c 0
 321 1358 354 1319 354 1251 c 0
 354 1181 321 1143 258 1143 c 0xb980
598 1143 m 0
 532 1143 504 1181 504 1251 c 0
 504 1319 532 1358 598 1358 c 0
 664 1358 696 1319 696 1251 c 0
 696 1181 664 1143 598 1143 c 0
319 -14 m 0xbc40
 151 -14 53 72 53 219 c 0xbc40
 53 397 186 502 436 518 c 2
 604 530 l 1
 604 696 l 2
 604 833 549 893 422 893 c 0
 313 893 252 858 252 801 c 0
 252 766 274 739 313 725 c 1
 313 662 273 627 197 627 c 0
 125 627 78 673 78 745 c 0
 78 884 211 975 422 975 c 0
 645 975 778 872 778 696 c 2
 778 125 l 1
 803 107 863 82 922 70 c 1xba40
 913 0 l 1
 631 0 l 1x7a40
 610 92 l 1
 520 8 430 -14 319 -14 c 0xbc40
371 70 m 0
 449 70 516 104 604 188 c 1
 604 446 l 1
 440 432 l 2
 311 422 233 347 233 238 c 0
 233 127 279 70 371 70 c 0
EndSplineSet
EndChar

StartChar: aring
Encoding: 229 229 164
Width: 1000
GlyphClass: 2
Flags: HMW
HStem: -14 84<325 375> 0 70 439 85 893 82<368 485> 1106 80<402 453 402 480> 1366 78<402 453>
VStem: 53 180<182 292 182 308> 78 174<783 815> 254 86<1250 1298 1250 1323> 520 84<1250 1298> 604 174<188 446 446 446 530 696 125 765>
AnchorPoint: "Anchor-3" 428 956 basechar 0
AnchorPoint: "Anchor-2" 774 0 basechar 0
LayerCount: 2
Fore
SplineSet
428 1106 m 0xbcc0
 322 1106 254 1178 254 1274 c 0
 254 1372 322 1444 428 1444 c 0
 532 1444 604 1372 604 1274 c 0
 604 1178 532 1106 428 1106 c 0xbcc0
428 1186 m 0
 477 1186 520 1227 520 1274 c 0
 520 1323 477 1366 428 1366 c 0
 377 1366 340 1323 340 1274 c 0
 340 1227 377 1186 428 1186 c 0
319 -14 m 0xbe20
 151 -14 53 72 53 219 c 0xbe20
 53 397 186 502 436 518 c 2
 604 530 l 1
 604 696 l 2
 604 833 549 893 422 893 c 0
 313 893 252 858 252 801 c 0
 252 766 274 739 313 725 c 1
 313 662 273 627 197 627 c 0
 125 627 78 673 78 745 c 0
 78 884 211 975 422 975 c 0
 645 975 778 872 778 696 c 2
 778 125 l 1
 803 107 863 82 922 70 c 1xbd20
 913 0 l 1
 631 0 l 1x7d20
 610 92 l 1
 520 8 430 -14 319 -14 c 0xbe20
371 70 m 0
 449 70 516 104 604 188 c 1
 604 446 l 1
 440 432 l 2
 311 422 233 347 233 238 c 0
 233 127 279 70 371 70 c 0
EndSplineSet
EndChar

StartChar: ae
Encoding: 230 230 165
Width: 1541
GlyphClass: 2
Flags: HMW
HStem: -14 84<325 404> -14 100<949 1121 930 1133> 439 85 498 90<1221 1221 1221 1362> 893 82<368 485 966 1102>
VStem: 53 180<182 292 182 308> 78 172<783 815> 602 190<373 446 446 446 373 696> 1221 184<553 689>
AnchorPoint: "Anchor-5" 729 0 basechar 0
AnchorPoint: "Anchor-3" 729 956 basechar 0
LayerCount: 2
Fore
SplineSet
319 -14 m 0x5d80
 151 -14 53 72 53 219 c 0x6d80
 53 397 186 502 436 518 c 2
 602 530 l 1
 602 696 l 2
 602 833 549 893 422 893 c 0
 313 893 250 858 250 801 c 0
 250 766 274 739 313 725 c 1
 313 662 273 627 197 627 c 0
 125 627 78 673 78 745 c 0x6b80
 78 884 211 975 422 975 c 0
 563 975 668 934 725 858 c 1
 797 934 899 975 1032 975 c 0
 1319 975 1397 811 1405 553 c 1
 1362 498 l 1
 793 498 l 1
 793 487 l 2
 793 258 815 86 1044 86 c 0
 1198 86 1307 182 1307 182 c 1
 1358 121 l 1
 1358 121 1229 -14 1036 -14 c 0
 862 -14 750 39 684 139 c 1
 594 55 489 -14 319 -14 c 0x5d80
793 573 m 1
 955 575 1221 588 1221 588 c 1
 1221 791 1180 893 1024 893 c 0
 860 893 797 757 793 573 c 1
371 70 m 0xad80
 449 70 514 104 602 188 c 1
 602 446 l 1
 440 432 l 2
 311 422 233 347 233 238 c 0
 233 127 279 70 371 70 c 0xad80
EndSplineSet
EndChar

StartChar: ccedilla
Encoding: 231 231 166
Width: 903
GlyphClass: 2
Flags: HMW
HStem: -418 68<414 469 414 493> -12 98<440 440> 901 74<391 536>
VStem: 57 190<373 487> 250 96<-283 -262> 526 104<-282 -217> 625 188<773 819>
AnchorPoint: "Anchor-4" 485 0 basechar 0
AnchorPoint: "Anchor-3" 475 956 basechar 0
LayerCount: 2
Fore
SplineSet
500 86 m 0xf4
 654 86 760 182 760 182 c 1
 813 121 l 1
 813 121 690 -8 504 -14 c 1
 475 -94 l 1
 569 -112 631 -152 631 -256 c 0
 631 -346 549 -418 436 -418 c 0
 303 -418 250 -344 250 -283 c 0
 250 -242 274 -203 317 -203 c 0
 329 -203 340 -205 354 -211 c 1
 350 -225 346 -240 346 -254 c 0
 346 -311 389 -350 438 -350 c 0
 499 -350 526 -316 526 -248 c 0
 526 -187 473 -164 414 -156 c 1
 377 -115 l 1xec
 440 -12 l 1
 157 6 57 184 57 487 c 0
 61 809 211 975 498 975 c 0
 686 975 813 887 813 758 c 0
 813 695 764 637 705 637 c 0
 654 637 610 668 598 711 c 1
 614 738 625 761 625 784 c 0xf2
 625 854 574 901 498 901 c 0
 285 901 248 704 248 487 c 0
 248 258 273 86 500 86 c 0xf4
EndSplineSet
EndChar

StartChar: egrave
Encoding: 232 232 167
Width: 999
GlyphClass: 2
Flags: HMW
HStem: -14 100<383 561 383 571> 498 83 893 82<395 555>
VStem: 57 188<373 487 487 498 373 573 373 636> 674 184<553 690>
AnchorPoint: "Anchor-3" 457 956 basechar 0
AnchorPoint: "Anchor-2" 719 0 basechar 0
LayerCount: 2
Fore
SplineSet
512 1118 m 1
 303 1288 l 2
 272 1315 252 1335 252 1368 c 0
 252 1405 287 1440 326 1440 c 0
 355 1440 373 1430 391 1405 c 2
 561 1167 l 1
 512 1118 l 1
485 -14 m 0
 168 -14 57 168 57 487 c 0
 57 784 200 975 485 975 c 0
 772 975 850 811 858 553 c 1
 815 498 l 1
 246 498 l 1
 246 487 l 2
 246 258 269 86 498 86 c 0
 625 86 723 153 760 182 c 1
 811 121 l 1
 774 86 657 -14 485 -14 c 0
246 573 m 1
 674 588 l 1
 674 793 633 893 477 893 c 0
 313 893 250 759 246 573 c 1
EndSplineSet
EndChar

StartChar: eacute
Encoding: 233 233 168
Width: 999
GlyphClass: 2
Flags: HMW
HStem: -14 100<383 561 383 571> 498 83 893 82<395 555>
VStem: 57 188<373 487 487 498 373 573 373 636> 674 184<553 690>
AnchorPoint: "Anchor-3" 457 956 basechar 0
AnchorPoint: "Anchor-2" 719 0 basechar 0
LayerCount: 2
Fore
SplineSet
399 1118 m 1
 354 1167 l 1
 524 1405 l 2
 542 1430 561 1440 590 1440 c 0
 629 1440 664 1405 664 1368 c 0
 664 1335 645 1313 612 1288 c 2
 399 1118 l 1
485 -14 m 0
 168 -14 57 168 57 487 c 0
 57 784 200 975 485 975 c 0
 772 975 850 811 858 553 c 1
 815 498 l 1
 246 498 l 1
 246 487 l 2
 246 258 269 86 498 86 c 0
 625 86 723 153 760 182 c 1
 811 121 l 1
 774 86 657 -14 485 -14 c 0
246 573 m 1
 674 588 l 1
 674 793 633 893 477 893 c 0
 313 893 250 759 246 573 c 1
EndSplineSet
EndChar

StartChar: ecircumflex
Encoding: 234 234 169
Width: 999
GlyphClass: 2
Flags: HMW
HStem: -14 100<383 561 383 571> 498 83 893 82<395 555>
VStem: 57 188<373 487 487 498 373 573 373 636> 674 184<553 690>
AnchorPoint: "Anchor-3" 457 956 basechar 0
AnchorPoint: "Anchor-2" 719 0 basechar 0
LayerCount: 2
Fore
SplineSet
250 1120 m 1
 205 1169 l 1
 395 1389 l 2
 413 1409 434 1421 459 1421 c 0
 484 1421 504 1412 522 1389 c 2
 711 1169 l 1
 664 1120 l 1
 457 1278 l 1
 250 1120 l 1
485 -14 m 0
 168 -14 57 168 57 487 c 0
 57 784 200 975 485 975 c 0
 772 975 850 811 858 553 c 1
 815 498 l 1
 246 498 l 1
 246 487 l 2
 246 258 269 86 498 86 c 0
 625 86 723 153 760 182 c 1
 811 121 l 1
 774 86 657 -14 485 -14 c 0
246 573 m 1
 674 588 l 1
 674 793 633 893 477 893 c 0
 313 893 250 759 246 573 c 1
EndSplineSet
EndChar

StartChar: edieresis
Encoding: 235 235 170
Width: 999
GlyphClass: 2
Flags: HMW
HStem: -14 100<383 561 383 571> 498 83 893 82<395 555> 1143 215<253 318 594 659>
VStem: 57 188<373 487 487 498 373 573 373 636> 190 193<1217 1285> 532 193<1217 1285> 674 184<553 690>
AnchorPoint: "Anchor-3" 457 956 basechar 0
AnchorPoint: "Anchor-2" 719 0 basechar 0
LayerCount: 2
Fore
SplineSet
287 1143 m 0xf6
 219 1143 190 1181 190 1251 c 0
 190 1319 219 1358 287 1358 c 0
 350 1358 383 1319 383 1251 c 0
 383 1181 350 1143 287 1143 c 0xf6
627 1143 m 0
 561 1143 532 1181 532 1251 c 0
 532 1319 561 1358 627 1358 c 0
 693 1358 725 1319 725 1251 c 0
 725 1181 693 1143 627 1143 c 0
485 -14 m 0xe9
 168 -14 57 168 57 487 c 0
 57 784 200 975 485 975 c 0
 772 975 850 811 858 553 c 1
 815 498 l 1
 246 498 l 1
 246 487 l 2
 246 258 269 86 498 86 c 0
 625 86 723 153 760 182 c 1
 811 121 l 1
 774 86 657 -14 485 -14 c 0xe9
246 573 m 1
 674 588 l 1
 674 793 633 893 477 893 c 0
 313 893 250 759 246 573 c 1
EndSplineSet
EndChar

StartChar: igrave
Encoding: 236 236 171
Width: 569
GlyphClass: 2
Flags: HMW
HStem: 0 74<61 70 70 70 70 514> 850 59<61 68> 918 41G<379 379>
VStem: 205 174<125 715 715 766>
AnchorPoint: "Anchor-3" 268 956 basechar 0
LayerCount: 2
Fore
SplineSet
324 1118 m 1
 115 1288 l 2
 84 1315 63 1335 63 1368 c 0
 63 1405 98 1440 137 1440 c 0
 166 1440 185 1430 203 1405 c 2
 373 1167 l 1
 324 1118 l 1
61 0 m 1
 70 74 l 1
 129 84 162 94 205 125 c 1
 205 715 l 2
 205 817 165 846 61 850 c 1
 68 909 l 1
 160 925 256 956 338 981 c 1xd0
 379 958 l 1
 379 125 l 1
 414 100 463 82 522 70 c 1
 514 0 l 1
 61 0 l 1
EndSplineSet
EndChar

StartChar: iacute
Encoding: 237 237 172
Width: 569
GlyphClass: 2
Flags: HMW
HStem: 0 74<61 70 70 70 70 514> 850 59<61 68> 918 41G<379 379>
VStem: 205 174<125 715 715 766>
AnchorPoint: "Anchor-3" 268 956 basechar 0
LayerCount: 2
Fore
SplineSet
211 1118 m 1
 166 1167 l 1
 336 1405 l 2
 354 1430 372 1440 401 1440 c 0
 440 1440 475 1405 475 1368 c 0
 475 1335 457 1313 424 1288 c 2
 211 1118 l 1
61 0 m 1
 70 74 l 1
 129 84 162 94 205 125 c 1
 205 715 l 2
 205 817 165 846 61 850 c 1
 68 909 l 1
 160 925 256 956 338 981 c 1xd0
 379 958 l 1
 379 125 l 1
 414 100 463 82 522 70 c 1
 514 0 l 1
 61 0 l 1
EndSplineSet
EndChar

StartChar: icircumflex
Encoding: 238 238 173
Width: 569
GlyphClass: 2
Flags: HMW
HStem: 0 74<61 70 70 70 70 514> 850 59<61 68> 918 41G<379 379>
VStem: 205 174<125 715 715 766>
AnchorPoint: "Anchor-3" 268 956 basechar 0
LayerCount: 2
Fore
SplineSet
61 1120 m 1
 16 1169 l 1
 207 1389 l 2
 225 1409 245 1421 270 1421 c 0
 295 1421 316 1412 334 1389 c 2
 522 1169 l 1
 475 1120 l 1
 268 1278 l 1
 61 1120 l 1
61 0 m 1
 70 74 l 1
 129 84 162 94 205 125 c 1
 205 715 l 2
 205 817 165 846 61 850 c 1
 68 909 l 1
 160 925 256 956 338 981 c 1xd0
 379 958 l 1
 379 125 l 1
 414 100 463 82 522 70 c 1
 514 0 l 1
 61 0 l 1
EndSplineSet
EndChar

StartChar: idieresis
Encoding: 239 239 174
Width: 569
GlyphClass: 2
Flags: HMW
HStem: 0 74<61 70 70 70 70 514> 850 59<61 68> 918 41G<379 379> 1145 215<77 142 352 418>
VStem: 14 193<1219 1287> 205 174<125 715 715 766> 291 193<1219 1287>
AnchorPoint: "Anchor-3" 268 956 basechar 0
LayerCount: 2
Fore
SplineSet
111 1145 m 0xba
 43 1145 14 1183 14 1253 c 0
 14 1321 43 1360 111 1360 c 0
 174 1360 207 1321 207 1253 c 0
 207 1183 174 1145 111 1145 c 0xba
385 1145 m 0
 319 1145 291 1183 291 1253 c 0
 291 1321 319 1360 385 1360 c 0
 451 1360 483 1321 483 1253 c 0
 483 1183 451 1145 385 1145 c 0
61 0 m 1
 70 74 l 1
 129 84 162 94 205 125 c 1
 205 715 l 2
 205 817 165 846 61 850 c 1
 68 909 l 1
 160 925 256 956 338 981 c 1xd4
 379 958 l 1
 379 125 l 1
 414 100 463 82 522 70 c 1
 514 0 l 1xb4
 61 0 l 1
EndSplineSet
EndChar

StartChar: eth
Encoding: 240 240 175
Width: 1086
GlyphClass: 2
Flags: HMW
HStem: -14 94<452 623 452 677> 889 86<476 596 420 613> 1343 41G<840 840>
VStem: 115 180<333 596 333 628> 780 180<481 539 539 539>
LayerCount: 2
Fore
SplineSet
537 -14 m 0
 256 -14 115 160 115 461 c 0
 115 795 274 975 565 975 c 0
 626 975 678 964 727 944 c 1
 692 1040 641 1113 569 1174 c 1
 268 1059 l 1
 233 1141 l 1
 477 1239 l 1
 424 1274 353 1304 283 1333 c 1
 317 1421 l 1
 423 1382 530 1339 606 1290 c 1
 840 1384 l 1
 881 1292 l 1
 705 1227 l 1
 879 1086 961 889 961 567 c 2
 961 481 l 2
 961 159 818 -14 537 -14 c 0
537 80 m 0
 709 80 780 198 780 481 c 2
 780 539 l 2
 778 695 770 770 758 836 c 1
 715 863 668 889 559 889 c 0
 393 889 295 731 295 461 c 0
 295 205 367 80 537 80 c 0
EndSplineSet
EndChar

StartChar: ntilde
Encoding: 241 241 176
Width: 1143
GlyphClass: 2
Flags: HMW
HStem: 0 70<61 522> 0 74<61 70 70 70 70 514> 846 59<61 68> 877 98<591 667> 915 41G<354 354> 1137 127<660 729 660 754> 1208 127<434 503>
VStem: 205 174<127 705 127 711 127 762> 784 174<127 674 674 692 127 742>
AnchorPoint: "Anchor-5" 582 0 basechar 0
AnchorPoint: "Anchor-3" 582 956 basechar 0
LayerCount: 2
Fore
SplineSet
328 1137 m 1x9380
 299 1145 280 1160 262 1176 c 1
 285 1231 354 1335 467 1335 c 0x9380
 557 1335 620 1264 700 1264 c 0
 757 1264 797 1300 836 1339 c 1
 865 1329 883 1316 903 1300 c 1
 878 1245 804 1137 702 1137 c 0x9580
 602 1137 545 1208 461 1208 c 0
 408 1208 367 1176 328 1137 c 1x9380
61 0 m 1
 70 74 l 1
 129 84 164 94 205 127 c 1
 205 711 l 2
 205 813 165 842 61 846 c 1
 68 905 l 1x6380
 156 921 239 952 317 975 c 1x9380
 354 956 l 1x8b80
 373 829 l 1
 436 917 539 975 643 975 c 0
 842 975 958 870 958 692 c 2
 958 127 l 1
 983 107 1043 82 1102 70 c 1
 1094 0 l 1
 643 0 l 1
 649 70 l 1
 700 78 745 96 784 127 c 1
 784 674 l 2
 784 811 725 877 608 877 c 0
 516 877 422 807 379 705 c 1
 379 127 l 1
 414 100 463 82 522 70 c 1
 514 0 l 1
 61 0 l 1
EndSplineSet
EndChar

StartChar: ograve
Encoding: 242 242 177
Width: 1087
GlyphClass: 2
Flags: HMW
HStem: -14 94<402 581 402 636> 881 94<402 581>
VStem: 57 184<339 624 339 642> 745 180<339 624>
AnchorPoint: "Anchor-3" 492 956 basechar 0
LayerCount: 2
Fore
SplineSet
547 1118 m 1
 338 1288 l 2
 307 1315 287 1335 287 1368 c 0
 287 1405 321 1440 360 1440 c 0
 389 1440 408 1430 426 1405 c 2
 596 1167 l 1
 547 1118 l 1
492 -14 m 0
 205 -14 57 159 57 481 c 0
 57 803 205 975 492 975 c 0
 781 975 926 803 926 481 c 0
 926 159 781 -14 492 -14 c 0
492 80 m 0
 670 80 745 196 745 481 c 0
 745 766 670 881 492 881 c 0
 314 881 242 766 242 481 c 0
 242 196 314 80 492 80 c 0
EndSplineSet
EndChar

StartChar: oacute
Encoding: 243 243 178
Width: 1087
GlyphClass: 2
Flags: HMW
HStem: -14 94<402 581 402 636> 881 94<402 581>
VStem: 57 184<339 624 339 642> 745 180<339 624>
AnchorPoint: "Anchor-3" 492 956 basechar 0
LayerCount: 2
Fore
SplineSet
434 1118 m 1
 389 1167 l 1
 559 1405 l 2
 577 1430 596 1440 625 1440 c 0
 664 1440 698 1405 698 1368 c 0
 698 1335 680 1313 647 1288 c 2
 434 1118 l 1
492 -14 m 0
 205 -14 57 159 57 481 c 0
 57 803 205 975 492 975 c 0
 781 975 926 803 926 481 c 0
 926 159 781 -14 492 -14 c 0
492 80 m 0
 670 80 745 196 745 481 c 0
 745 766 670 881 492 881 c 0
 314 881 242 766 242 481 c 0
 242 196 314 80 492 80 c 0
EndSplineSet
EndChar

StartChar: ocircumflex
Encoding: 244 244 179
Width: 1087
GlyphClass: 2
Flags: HMW
HStem: -14 94<402 581 402 636> 881 94<402 581>
VStem: 57 184<339 624 339 642> 745 180<339 624>
AnchorPoint: "Anchor-3" 492 956 basechar 0
LayerCount: 2
Fore
SplineSet
285 1120 m 1
 240 1169 l 1
 430 1389 l 2
 448 1409 469 1421 494 1421 c 0
 519 1421 539 1412 557 1389 c 2
 745 1169 l 1
 698 1120 l 1
 492 1278 l 1
 285 1120 l 1
492 -14 m 0
 205 -14 57 159 57 481 c 0
 57 803 205 975 492 975 c 0
 781 975 926 803 926 481 c 0
 926 159 781 -14 492 -14 c 0
492 80 m 0
 670 80 745 196 745 481 c 0
 745 766 670 881 492 881 c 0
 314 881 242 766 242 481 c 0
 242 196 314 80 492 80 c 0
EndSplineSet
EndChar

StartChar: otilde
Encoding: 245 245 180
Width: 1087
GlyphClass: 2
Flags: HMW
HStem: -14 94<402 581 402 636> 881 94<402 581> 1137 127<570 639 570 664> 1208 127<344 413>
VStem: 57 184<339 624 339 642> 745 180<339 624>
AnchorPoint: "Anchor-3" 492 956 basechar 0
LayerCount: 2
Fore
SplineSet
238 1137 m 1xdc
 209 1145 190 1160 172 1176 c 1
 195 1231 264 1335 377 1335 c 0xdc
 467 1335 530 1264 610 1264 c 0
 667 1264 706 1300 745 1339 c 1
 774 1329 793 1316 813 1300 c 1
 788 1245 714 1137 612 1137 c 0xec
 512 1137 455 1208 371 1208 c 0
 318 1208 277 1176 238 1137 c 1xdc
492 -14 m 0
 205 -14 57 159 57 481 c 0
 57 803 205 975 492 975 c 0
 781 975 926 803 926 481 c 0
 926 159 781 -14 492 -14 c 0
492 80 m 0
 670 80 745 196 745 481 c 0
 745 766 670 881 492 881 c 0
 314 881 242 766 242 481 c 0
 242 196 314 80 492 80 c 0
EndSplineSet
EndChar

StartChar: odieresis
Encoding: 246 246 181
Width: 1087
GlyphClass: 2
Flags: HMW
HStem: -14 94<402 581 402 636> 881 94<402 581> 1143 215<288 353 629 694>
VStem: 57 184<339 624 339 642> 225 193<1217 1285> 567 193<1217 1285> 745 180<339 624>
AnchorPoint: "Anchor-3" 492 956 basechar 0
LayerCount: 2
Fore
SplineSet
322 1143 m 0xec
 254 1143 225 1181 225 1251 c 0
 225 1319 254 1358 322 1358 c 0
 385 1358 418 1319 418 1251 c 0
 418 1181 385 1143 322 1143 c 0xec
662 1143 m 0
 596 1143 567 1181 567 1251 c 0
 567 1319 596 1358 662 1358 c 0
 728 1358 760 1319 760 1251 c 0
 760 1181 728 1143 662 1143 c 0
492 -14 m 0xd2
 205 -14 57 159 57 481 c 0
 57 803 205 975 492 975 c 0
 781 975 926 803 926 481 c 0
 926 159 781 -14 492 -14 c 0xd2
492 80 m 0
 670 80 745 196 745 481 c 0
 745 766 670 881 492 881 c 0
 314 881 242 766 242 481 c 0
 242 196 314 80 492 80 c 0
EndSplineSet
EndChar

StartChar: divide
Encoding: 247 247 182
Width: 1530
GlyphClass: 2
Flags: HMW
HStem: 160 215<529 595> 530 109<127 1006 127 1006> 795 215<529 595>
VStem: 467 195<234 303 869 938>
CounterMasks: 1 e0
LayerCount: 2
Fore
SplineSet
561 795 m 0
 498 795 467 835 467 903 c 0
 467 973 498 1010 561 1010 c 0
 629 1010 662 973 662 903 c 0
 662 835 629 795 561 795 c 0
127 530 m 1
 127 639 l 1
 1006 639 l 1
 1006 530 l 1
 127 530 l 1
561 160 m 0
 498 160 467 200 467 268 c 0
 467 338 498 375 561 375 c 0
 629 375 662 338 662 268 c 0
 662 200 629 160 561 160 c 0
EndSplineSet
EndChar

StartChar: oslash
Encoding: 248 248 183
Width: 1087
GlyphClass: 2
Flags: HMW
HStem: -14 94<462 601 462 656> 881 94<423 556>
VStem: 78 184<440 624 440 642> 766 180<339 530>
AnchorPoint: "Anchor-5" 512 0 basechar 0
AnchorPoint: "Anchor-3" 512 956 basechar 0
LayerCount: 2
Fore
SplineSet
102 -35 m 1
 86 -23 69 -6 57 6 c 1
 166 139 l 1
 107 221 78 336 78 481 c 0
 78 803 225 975 512 975 c 0
 627 975 721 946 791 893 c 1
 872 991 l 1
 889 991 l 1
 905 981 922 964 932 950 c 1
 842 842 l 1
 912 760 946 637 946 481 c 0
 946 159 801 -14 512 -14 c 0
 385 -14 285 18 213 84 c 1
 115 -35 l 1
 102 -35 l 1
281 276 m 1
 705 788 l 1
 664 851 600 881 512 881 c 0
 334 881 262 766 262 481 c 0
 262 399 269 331 281 276 c 1
512 80 m 0
 690 80 766 196 766 481 c 0
 766 579 757 656 737 717 c 1
 307 197 l 1
 346 117 412 80 512 80 c 0
EndSplineSet
EndChar

StartChar: ugrave
Encoding: 249 249 184
Width: 1131
GlyphClass: 2
Flags: HMW
HStem: -14 92<469 556> 0 72<786 1065> 850 59<39 43> 920 41G<356 356 924 924>
VStem: 180 176<315 715 715 766> 750 174<240 715 715 766>
AnchorPoint: "Anchor-3" 549 956 basechar 0
AnchorPoint: "Anchor-2" 928 0 basechar 0
LayerCount: 2
Fore
SplineSet
604 1118 m 1x9c
 395 1288 l 2
 364 1315 344 1335 344 1368 c 0
 344 1405 379 1440 418 1440 c 0
 447 1440 465 1430 483 1405 c 2
 653 1167 l 1
 604 1118 l 1x9c
510 -14 m 0
 291 -14 180 96 180 315 c 2
 180 715 l 2
 180 817 143 846 39 850 c 1
 43 909 l 1
 135 925 231 956 315 981 c 1xac
 356 961 l 1x9c
 356 293 l 2
 356 166 405 78 532 78 c 0
 593 78 684 121 750 240 c 1
 750 715 l 2
 750 817 710 846 606 850 c 1
 612 909 l 1
 704 925 801 956 885 981 c 1xac
 924 961 l 1
 924 127 l 1
 949 107 1008 82 1065 72 c 1
 1059 0 l 1
 786 0 l 1x5c
 766 129 l 1
 694 33 602 -14 510 -14 c 0
EndSplineSet
EndChar

StartChar: uacute
Encoding: 250 250 185
Width: 1131
GlyphClass: 2
Flags: HMW
HStem: -14 92<469 556> 0 72<786 1065> 850 59<39 43> 920 41G<356 356 924 924>
VStem: 180 176<315 715 715 766> 750 174<240 715 715 766>
AnchorPoint: "Anchor-3" 549 956 basechar 0
AnchorPoint: "Anchor-2" 928 0 basechar 0
LayerCount: 2
Fore
SplineSet
492 1118 m 1x9c
 446 1167 l 1
 616 1405 l 2
 634 1430 653 1440 682 1440 c 0
 721 1440 756 1405 756 1368 c 0
 756 1335 738 1313 705 1288 c 2
 492 1118 l 1x9c
510 -14 m 0
 291 -14 180 96 180 315 c 2
 180 715 l 2
 180 817 143 846 39 850 c 1
 43 909 l 1
 135 925 231 956 315 981 c 1xac
 356 961 l 1x9c
 356 293 l 2
 356 166 405 78 532 78 c 0
 593 78 684 121 750 240 c 1
 750 715 l 2
 750 817 710 846 606 850 c 1
 612 909 l 1
 704 925 801 956 885 981 c 1xac
 924 961 l 1
 924 127 l 1
 949 107 1008 82 1065 72 c 1
 1059 0 l 1
 786 0 l 1x5c
 766 129 l 1
 694 33 602 -14 510 -14 c 0
EndSplineSet
EndChar

StartChar: ucircumflex
Encoding: 251 251 186
Width: 1131
GlyphClass: 2
Flags: HMW
HStem: -14 92<469 556> 0 72<786 1065> 850 59<39 43> 920 41G<356 356 924 924>
VStem: 180 176<315 715 715 766> 750 174<240 715 715 766>
AnchorPoint: "Anchor-3" 549 956 basechar 0
AnchorPoint: "Anchor-2" 928 0 basechar 0
LayerCount: 2
Fore
SplineSet
342 1120 m 1x9c
 297 1169 l 1
 487 1389 l 2
 505 1409 526 1421 551 1421 c 0
 576 1421 596 1412 614 1389 c 2
 803 1169 l 1
 756 1120 l 1
 549 1278 l 1
 342 1120 l 1x9c
510 -14 m 0
 291 -14 180 96 180 315 c 2
 180 715 l 2
 180 817 143 846 39 850 c 1
 43 909 l 1
 135 925 231 956 315 981 c 1xac
 356 961 l 1x9c
 356 293 l 2
 356 166 405 78 532 78 c 0
 593 78 684 121 750 240 c 1
 750 715 l 2
 750 817 710 846 606 850 c 1
 612 909 l 1
 704 925 801 956 885 981 c 1xac
 924 961 l 1
 924 127 l 1
 949 107 1008 82 1065 72 c 1
 1059 0 l 1
 786 0 l 1x5c
 766 129 l 1
 694 33 602 -14 510 -14 c 0
EndSplineSet
EndChar

StartChar: udieresis
Encoding: 252 252 187
Width: 1131
GlyphClass: 2
Flags: HMW
HStem: -14 92<469 556> 0 72<786 1065> 850 59<39 43> 920 41G<356 356 924 924> 1143 215<345 411 686 752>
VStem: 180 176<315 715 715 766> 283 193<1217 1285> 625 193<1217 1285> 750 174<240 715 715 766>
AnchorPoint: "Anchor-3" 549 956 basechar 0
AnchorPoint: "Anchor-2" 928 0 basechar 0
LayerCount: 2
Fore
SplineSet
379 1143 m 0x9b
 311 1143 283 1181 283 1251 c 0
 283 1319 311 1358 379 1358 c 0
 442 1358 475 1319 475 1251 c 0
 475 1181 442 1143 379 1143 c 0x9b
719 1143 m 0
 653 1143 625 1181 625 1251 c 0
 625 1319 653 1358 719 1358 c 0
 785 1358 817 1319 817 1251 c 0
 817 1181 785 1143 719 1143 c 0
510 -14 m 0x9c80
 291 -14 180 96 180 315 c 2
 180 715 l 2
 180 817 143 846 39 850 c 1
 43 909 l 1
 135 925 231 956 315 981 c 1xac80
 356 961 l 1x9c80
 356 293 l 2
 356 166 405 78 532 78 c 0
 593 78 684 121 750 240 c 1
 750 715 l 2
 750 817 710 846 606 850 c 1
 612 909 l 1
 704 925 801 956 885 981 c 1xac80
 924 961 l 1
 924 127 l 1
 949 107 1008 82 1065 72 c 1
 1059 0 l 1
 786 0 l 1x5c80
 766 129 l 1
 694 33 602 -14 510 -14 c 0x9c80
EndSplineSet
EndChar

StartChar: yacute
Encoding: 253 253 188
Width: 1032
GlyphClass: 2
Flags: HMW
HStem: -446 111<225 275 225 282> 895 61<395 395 993 993>
VStem: 31 147<-286 -254 -286 -251> 596 399
AnchorPoint: "Anchor-3" 498 956 basechar 0
LayerCount: 2
Fore
SplineSet
440 1118 m 1
 395 1167 l 1
 565 1405 l 2
 583 1430 602 1440 631 1440 c 0
 670 1440 705 1405 705 1368 c 0
 705 1335 686 1313 653 1288 c 2
 440 1118 l 1
217 -446 m 0
 111 -446 31 -381 31 -289 c 0
 31 -213 76 -172 131 -172 c 0
 154 -172 180 -181 203 -195 c 1
 187 -218 178 -241 178 -266 c 0
 178 -305 205 -336 246 -336 c 0
 305 -336 346 -281 389 -150 c 2
 432 -16 l 1
 98 803 l 2
 80 848 45 877 -49 893 c 1
 -45 956 l 1
 401 956 l 1
 395 895 l 1
 350 891 311 883 274 850 c 1
 512 225 l 1
 715 850 l 1
 680 877 639 889 594 895 c 1
 598 956 l 1
 997 956 l 1
 993 895 l 1
 878 877 854 860 842 827 c 2
 496 -172 l 2
 426 -373 346 -446 217 -446 c 0
EndSplineSet
EndChar

StartChar: thorn
Encoding: 254 254 189
Width: 1121
GlyphClass: 2
Flags: HMW
HStem: -430 70<49 508> -430 74<49 55 55 55 55 502> -14 86<507 634 501 690> 887 88<569 683> 1296 59<49 53>
VStem: 190 176<-305 18 -305 111 111 502 840 1161 1161 1212> 823 180<364 633>
LayerCount: 2
Fore
SplineSet
49 -430 m 1x76
 55 -356 l 1
 116 -348 149 -336 190 -305 c 1x76
 190 1161 l 2
 190 1263 153 1292 49 1296 c 1
 53 1356 l 1
 145 1372 242 1402 326 1427 c 1
 367 1407 l 1
 367 840 l 1
 424 930 510 975 629 975 c 0
 877 975 1004 815 1004 500 c 0
 1004 166 840 -14 541 -14 c 0
 473 -14 420 -5 367 18 c 1
 367 -305 l 1
 400 -332 449 -350 508 -360 c 1xbe
 502 -430 l 1
 49 -430 l 1x76
547 72 m 0
 721 72 823 228 823 500 c 0
 823 766 755 887 610 887 c 0
 452 887 367 758 367 502 c 2
 367 111 l 1
 406 91 455 72 547 72 c 0
EndSplineSet
EndChar

StartChar: ydieresis
Encoding: 255 255 190
Width: 1032
GlyphClass: 2
Flags: HMW
HStem: -446 111<225 275 225 282> 895 61<395 395 993 993> 1143 215<294 359 635 700>
VStem: 31 147<-286 -254 -286 -251> 231 193<1217 1285> 573 193<1217 1285> 596 399
AnchorPoint: "Anchor-3" 498 956 basechar 0
LayerCount: 2
Fore
SplineSet
328 1143 m 0xec
 260 1143 231 1181 231 1251 c 0
 231 1319 260 1358 328 1358 c 0
 391 1358 424 1319 424 1251 c 0
 424 1181 391 1143 328 1143 c 0xec
668 1143 m 0
 602 1143 573 1181 573 1251 c 0
 573 1319 602 1358 668 1358 c 0
 734 1358 766 1319 766 1251 c 0
 766 1181 734 1143 668 1143 c 0
217 -446 m 0xfa
 111 -446 31 -381 31 -289 c 0
 31 -213 76 -172 131 -172 c 0
 154 -172 180 -181 203 -195 c 1
 187 -218 178 -241 178 -266 c 0
 178 -305 205 -336 246 -336 c 0
 305 -336 346 -281 389 -150 c 2
 432 -16 l 1
 98 803 l 2
 80 848 45 877 -49 893 c 1
 -45 956 l 1
 401 956 l 1
 395 895 l 1
 350 891 311 883 274 850 c 1
 512 225 l 1
 715 850 l 1
 680 877 639 889 594 895 c 1
 598 956 l 1
 997 956 l 1
 993 895 l 1
 878 877 854 860 842 827 c 2
 496 -172 l 2
 426 -373 346 -446 217 -446 c 0xfa
EndSplineSet
EndChar

StartChar: dotlessi
Encoding: 305 305 191
Width: 569
GlyphClass: 2
Flags: HMW
HStem: 0 74<61 70 70 70 70 514> 850 59<61 68> 918 41G<379 379>
VStem: 205 174<125 715 715 766>
AnchorPoint: "Anchor-3" 268 956 basechar 0
LayerCount: 2
Fore
SplineSet
61 0 m 1
 70 74 l 1
 129 84 162 94 205 125 c 1
 205 715 l 2
 205 817 165 846 61 850 c 1
 68 909 l 1
 160 925 256 956 338 981 c 1xd0
 379 958 l 1
 379 125 l 1
 414 100 463 82 522 70 c 1
 514 0 l 1
 61 0 l 1
EndSplineSet
EndChar

StartChar: circumflex
Encoding: 710 710 192
Width: 583
GlyphClass: 2
Flags: HMW
HStem: 1120 301<45 266 242 459>
VStem: 0 506<1169 1169>
LayerCount: 2
Fore
SplineSet
45 1120 m 1
 0 1169 l 1
 190 1389 l 2
 208 1409 229 1421 254 1421 c 0
 279 1421 299 1412 317 1389 c 2
 506 1169 l 1
 459 1120 l 1
 252 1278 l 1
 45 1120 l 1
EndSplineSet
EndChar

StartChar: caron
Encoding: 711 711 193
Width: 583
GlyphClass: 2
Flags: HMW
HStem: 1329 41G<0 0 506 506>
VStem: 0 506<1370 1370>
LayerCount: 2
Fore
SplineSet
252 1120 m 0
 227 1120 206 1133 188 1153 c 2
 0 1370 l 1
 45 1421 l 1
 252 1264 l 1
 461 1421 l 1
 506 1370 l 1
 315 1153 l 2
 297 1130 277 1120 252 1120 c 0
EndSplineSet
EndChar

StartChar: uni02C9
Encoding: 713 713 194
Width: 583
GlyphClass: 2
Flags: HMW
HStem: 1167 90<6 575 6 575>
VStem: 6 569<1167 1257 1167 1257>
LayerCount: 2
Fore
SplineSet
6 1167 m 1
 6 1257 l 1
 575 1257 l 1
 575 1167 l 1
 6 1167 l 1
EndSplineSet
EndChar

StartChar: breve
Encoding: 728 728 195
Width: 583
GlyphClass: 2
Flags: HMW
HStem: 1130 111<194 287 194 308> 1333 41G 1346 41G<63 80 401 418>
VStem: 0 80 401 78
LayerCount: 2
Fore
SplineSet
240 1130 m 0xb8
 103 1130 8 1227 0 1372 c 1
 25 1380 47 1386 80 1386 c 1
 86 1300 148 1241 240 1241 c 0
 334 1241 395 1300 401 1386 c 1xb8
 434 1386 456 1382 479 1374 c 1xd8
 473 1227 377 1130 240 1130 c 0xb8
EndSplineSet
EndChar

StartChar: dotaccent
Encoding: 729 729 196
Width: 583
GlyphClass: 2
Flags: HMW
HStem: 1133 238<70 142>
VStem: 0 215<1213 1289>
LayerCount: 2
Fore
SplineSet
106 1133 m 0
 32 1133 0 1175 0 1251 c 0
 0 1327 32 1370 106 1370 c 0
 178 1370 215 1327 215 1251 c 0
 215 1175 178 1133 106 1133 c 0
EndSplineSet
EndChar

StartChar: ring
Encoding: 730 730 197
Width: 583
GlyphClass: 2
Flags: HMW
HStem: 1106 80<148 199 148 226> 1366 78<148 199>
VStem: 0 86<1250 1298 1250 1323> 266 84<1250 1298>
LayerCount: 2
Fore
SplineSet
174 1106 m 0
 68 1106 0 1178 0 1274 c 0
 0 1372 68 1444 174 1444 c 0
 278 1444 350 1372 350 1274 c 0
 350 1178 278 1106 174 1106 c 0
174 1186 m 0
 223 1186 266 1227 266 1274 c 0
 266 1323 223 1366 174 1366 c 0
 123 1366 86 1323 86 1274 c 0
 86 1227 123 1186 174 1186 c 0
EndSplineSet
EndChar

StartChar: ogonek
Encoding: 731 731 198
Width: 583
GlyphClass: 2
Flags: HMW
HStem: -418 92<200 210> 0 43G<322 322>
VStem: 0 139<-261 -229>
LayerCount: 2
Fore
SplineSet
176 25 m 1
 270 51 l 1
 322 0 l 1
 199 -31 139 -147 139 -227 c 0
 139 -295 174 -326 225 -326 c 0
 252 -326 285 -318 326 -295 c 1
 360 -338 l 1
 311 -391 241 -418 178 -418 c 0
 80 -418 0 -358 0 -264 c 0
 0 -194 47 -135 82 -98 c 0
 117 -59 153 -16 176 25 c 1
EndSplineSet
EndChar

StartChar: tilde
Encoding: 732 732 199
Width: 583
GlyphClass: 2
Flags: HMW
HStem: 1137 127<398 467 398 492> 1208 127<172 241>
VStem: 0 641
LayerCount: 2
Fore
SplineSet
66 1137 m 1x60
 37 1145 18 1160 0 1176 c 1
 23 1231 92 1335 205 1335 c 0x60
 295 1335 358 1264 438 1264 c 0
 495 1264 534 1300 573 1339 c 1
 602 1329 621 1316 641 1300 c 1
 616 1245 542 1137 440 1137 c 0xa0
 340 1137 283 1208 199 1208 c 0
 146 1208 105 1176 66 1137 c 1x60
EndSplineSet
EndChar

StartChar: gravecomb
Encoding: 768 768 200
Width: 0
GlyphClass: 2
Flags: HMW
TopAccentHorizontal: -389
HStem: 1118 322<-255 -49>
VStem: -309 309<1167 1386>
AnchorPoint: "Anchor-3" -104 956 mark 0
AnchorPoint: "Anchor-0" -104 956 mark 0
LayerCount: 2
Fore
SplineSet
-49 1118 m 1
 -258 1288 l 2
 -289 1315 -309 1335 -309 1368 c 0
 -309 1405 -275 1440 -236 1440 c 0
 -207 1440 -188 1430 -170 1405 c 2
 0 1167 l 1
 -49 1118 l 1
EndSplineSet
EndChar

StartChar: acutecomb
Encoding: 769 769 201
Width: 0
GlyphClass: 2
Flags: HMW
TopAccentHorizontal: -293
HStem: 1118 322<-264 -54>
VStem: -309 309<1167 1386>
AnchorPoint: "Anchor-3" -207 956 mark 0
AnchorPoint: "Anchor-0" -207 956 mark 0
LayerCount: 2
Fore
SplineSet
-264 1118 m 1
 -309 1167 l 1
 -139 1405 l 2
 -121 1430 -103 1440 -74 1440 c 0
 -35 1440 0 1405 0 1368 c 0
 0 1335 -18 1313 -51 1288 c 2
 -264 1118 l 1
EndSplineSet
EndChar

StartChar: uni0302
Encoding: 770 770 202
Width: 0
GlyphClass: 2
Flags: HMW
TopAccentHorizontal: -319
GlyphVariantsHorizontal: uni0302 hatwide1 hatwide2 hatwide3 hatwide4 glyph3599
HStem: 1120 301<-461 -240 -264 -47>
VStem: -506 506<1169 1169>
AnchorPoint: "Anchor-3" -254 956 mark 0
AnchorPoint: "Anchor-0" -254 956 mark 0
LayerCount: 2
Fore
SplineSet
-461 1120 m 1
 -506 1169 l 1
 -315 1389 l 2
 -297 1409 -277 1421 -252 1421 c 0
 -227 1421 -206 1412 -188 1389 c 2
 0 1169 l 1
 -47 1120 l 1
 -254 1278 l 1
 -461 1120 l 1
EndSplineSet
EndChar

StartChar: tildecomb
Encoding: 771 771 203
Width: 0
GlyphClass: 2
Flags: HMW
TopAccentHorizontal: -440
GlyphVariantsHorizontal: tildecomb tildewide1 tildewide2 tildewide3 tildewide4 glyph3598
HStem: 1137 127<-243 -174 -243 -150> 1208 127<-469 -400>
VStem: -641 641
AnchorPoint: "Anchor-3" -322 956 mark 0
AnchorPoint: "Anchor-0" -322 956 mark 0
LayerCount: 2
Fore
SplineSet
-575 1137 m 1x60
 -604 1145 -623 1160 -641 1176 c 1
 -618 1231 -549 1335 -436 1335 c 0x60
 -346 1335 -283 1264 -203 1264 c 0
 -146 1264 -107 1300 -68 1339 c 1
 -39 1329 -20 1316 0 1300 c 1
 -25 1245 -99 1137 -201 1137 c 0xa0
 -301 1137 -358 1208 -442 1208 c 0
 -495 1208 -536 1176 -575 1137 c 1x60
EndSplineSet
EndChar

StartChar: uni0304
Encoding: 772 772 204
Width: 0
GlyphClass: 2
Flags: HMW
TopAccentHorizontal: -340
HStem: 1184 90<-569 0 -569 0>
VStem: -569 569<1184 1274 1184 1274>
AnchorPoint: "Anchor-3" -285 956 mark 0
AnchorPoint: "Anchor-0" -285 956 mark 0
LayerCount: 2
Fore
SplineSet
-569 1184 m 1
 -569 1274 l 1
 0 1274 l 1
 0 1184 l 1
 -569 1184 l 1
EndSplineSet
EndChar

StartChar: uni0305
Encoding: 773 773 205
Width: 0
GlyphClass: 2
Flags: HMW
TopAccentHorizontal: -442
GlyphVariantsHorizontal: uni0305 glyph3886 glyph3881 glyph3877
GlyphCompositionHorizontal: 2  glyph3886%1,348,348,1047 glyph3886%0,348,348,1047
HStem: 1110 92<-887 0 -887 0>
LayerCount: 2
Fore
SplineSet
0 1110 m 1
 -887 1110 l 1
 -887 1202 l 1
 0 1202 l 1
 0 1110 l 1
EndSplineSet
EndChar

StartChar: uni0306
Encoding: 774 774 206
Width: 0
GlyphClass: 2
Flags: HMW
TopAccentHorizontal: -340
GlyphVariantsHorizontal: uni0306 widebreve1 widebreve2 widebreve3 widebreve4
HStem: 1135 111<-261 -168 -261 -146> 1337 41G 1350 41G<-391 -375 -53 -37>
VStem: -455 80 -53 78
AnchorPoint: "Anchor-3" -240 956 mark 0
AnchorPoint: "Anchor-0" -240 956 mark 0
LayerCount: 2
Fore
SplineSet
-215 1135 m 0xb8
 -352 1135 -447 1231 -455 1376 c 1
 -430 1384 -408 1391 -375 1391 c 1
 -369 1305 -307 1245 -215 1245 c 0
 -121 1245 -59 1305 -53 1391 c 1xb8
 -20 1391 2 1386 25 1378 c 1xd8
 19 1231 -78 1135 -215 1135 c 0xb8
EndSplineSet
EndChar

StartChar: uni0307
Encoding: 775 775 207
Width: 0
GlyphClass: 2
Flags: HMW
TopAccentHorizontal: -256
HStem: 1133 238<-145 -73>
VStem: -215 215<1213 1289>
AnchorPoint: "Anchor-3" -109 956 mark 0
AnchorPoint: "Anchor-0" -109 956 mark 0
LayerCount: 2
Fore
SplineSet
-109 1133 m 0
 -183 1133 -215 1175 -215 1251 c 0
 -215 1327 -183 1370 -109 1370 c 0
 -37 1370 0 1327 0 1251 c 0
 0 1175 -37 1133 -109 1133 c 0
EndSplineSet
EndChar

StartChar: uni0308
Encoding: 776 776 208
Width: 0
GlyphClass: 2
Flags: HMW
TopAccentHorizontal: -344
HStem: 1143 215<-472 -407 -131 -66>
VStem: -535 193<1217 1285> -193 193<1217 1285>
AnchorPoint: "Anchor-3" -268 956 mark 0
AnchorPoint: "Anchor-0" -268 956 mark 0
LayerCount: 2
Fore
SplineSet
-438 1143 m 0
 -506 1143 -535 1181 -535 1251 c 0
 -535 1319 -506 1358 -438 1358 c 0
 -375 1358 -342 1319 -342 1251 c 0
 -342 1181 -375 1143 -438 1143 c 0
-98 1143 m 0
 -164 1143 -193 1181 -193 1251 c 0
 -193 1319 -164 1358 -98 1358 c 0
 -32 1358 0 1319 0 1251 c 0
 0 1181 -32 1143 -98 1143 c 0
EndSplineSet
EndChar

StartChar: uni030A
Encoding: 778 778 209
Width: 0
GlyphClass: 2
Flags: HMW
TopAccentHorizontal: -276
HStem: 1106 80<-202 -152 -202 -124> 1366 78<-202 -152>
VStem: -350 86<1250 1298 1250 1323> -84 84<1250 1298>
AnchorPoint: "Anchor-3" -176 956 mark 0
AnchorPoint: "Anchor-0" -176 956 mark 0
LayerCount: 2
Fore
SplineSet
-176 1106 m 0
 -282 1106 -350 1178 -350 1274 c 0
 -350 1372 -282 1444 -176 1444 c 0
 -72 1444 0 1372 0 1274 c 0
 0 1178 -72 1106 -176 1106 c 0
-176 1186 m 0
 -127 1186 -84 1227 -84 1274 c 0
 -84 1323 -127 1366 -176 1366 c 0
 -227 1366 -264 1323 -264 1274 c 0
 -264 1227 -227 1186 -176 1186 c 0
EndSplineSet
EndChar

StartChar: uni030C
Encoding: 780 780 210
Width: 0
GlyphClass: 2
Flags: HMW
TopAccentHorizontal: -340
GlyphVariantsHorizontal: uni030C caronwide1 caronwide2 caronwide3 caronwide4 glyph3597
HStem: 1329 41G<-506 -506 0 0>
VStem: -506 506<1370 1370>
AnchorPoint: "Anchor-3" -254 956 mark 0
AnchorPoint: "Anchor-0" -254 956 mark 0
LayerCount: 2
Fore
SplineSet
-254 1120 m 0
 -279 1120 -299 1133 -317 1153 c 2
 -506 1370 l 1
 -461 1421 l 1
 -254 1264 l 1
 -45 1421 l 1
 0 1370 l 1
 -190 1153 l 2
 -208 1130 -229 1120 -254 1120 c 0
EndSplineSet
EndChar

StartChar: uni0332
Encoding: 818 818 211
Width: 0
GlyphClass: 2
Flags: HMW
TopAccentHorizontal: -442
GlyphVariantsHorizontal: uni0332 glyph3885 glyph3880 glyph3876
GlyphCompositionHorizontal: 2  glyph3885%1,348,348,1047 glyph3885%0,348,348,1047
HStem: -358 92<-887 0 -887 0>
LayerCount: 2
Fore
SplineSet
0 -358 m 1
 -887 -358 l 1
 -887 -266 l 1
 0 -266 l 1
 0 -358 l 1
EndSplineSet
EndChar

StartChar: uni0333
Encoding: 819 819 212
Width: 0
GlyphClass: 2
Flags: HMW
TopAccentHorizontal: -442
GlyphVariantsHorizontal: uni0333 glyph3884 glyph3879 glyph3875
GlyphCompositionHorizontal: 2  glyph3884%1,348,348,1047 glyph3884%0,348,348,1047
HStem: -580 92<-887 0 -887 0> -358 92<-887 0 -887 0>
LayerCount: 2
Fore
SplineSet
0 -580 m 1
 -887 -580 l 1
 -887 -487 l 1
 0 -487 l 1
 0 -580 l 1
0 -358 m 1
 -887 -358 l 1
 -887 -266 l 1
 0 -266 l 1
 0 -358 l 1
EndSplineSet
EndChar

StartChar: uni0338
Encoding: 824 824 213
Width: 0
GlyphClass: 2
Flags: HW
LayerCount: 2
Fore
SplineSet
0 1462 m 1
 -721 -346 l 1
 -836 -346 l 1
 -117 1462 l 1
 0 1462 l 1
EndSplineSet
EndChar

StartChar: uni033F
Encoding: 831 831 214
Width: 0
GlyphClass: 2
Flags: HMW
TopAccentHorizontal: -442
GlyphVariantsHorizontal: uni033F glyph3883 glyph3878 glyph3874
GlyphCompositionHorizontal: 2  glyph3883%1,348,348,1047 glyph3883%0,348,348,1047
HStem: 1110 92<-887 0 -887 0> 1331 92<-887 0 -887 0>
LayerCount: 2
Fore
SplineSet
0 1331 m 1
 -887 1331 l 1
 -887 1423 l 1
 0 1423 l 1
 0 1331 l 1
0 1110 m 1
 -887 1110 l 1
 -887 1202 l 1
 0 1202 l 1
 0 1110 l 1
EndSplineSet
EndChar

StartChar: uni0342
Encoding: 834 834 215
Width: 0
GlyphClass: 2
Flags: HMW
HStem: 1352 78<-274 -185> 1413 76<-478 -472>
VStem: -664 600<1368 1468>
LayerCount: 2
Fore
SplineSet
-641 1337 m 1x60
 -664 1368 l 1
 -586 1448 -512 1489 -444 1489 c 0x60
 -413 1489 -372 1478 -319 1458 c 0
 -268 1440 -228 1430 -201 1430 c 0
 -170 1430 -129 1450 -82 1493 c 1
 -63 1468 l 1
 -139 1390 -205 1352 -260 1352 c 0xa0
 -289 1352 -326 1362 -373 1382 c 0
 -420 1402 -456 1413 -487 1413 c 0
 -534 1413 -586 1388 -641 1337 c 1x60
EndSplineSet
EndChar

StartChar: uni037E
Encoding: 894 894 216
Width: 540
GlyphClass: 2
Flags: HMW
HStem: -313 43G<61 61> 696 238<276 338>
VStem: 190 238<784 845 782 846>
LayerCount: 2
Fore
SplineSet
418 256 m 1
 446 227 l 1
 389 69 311 -59 145 -274 c 1
 61 -313 l 1
 33 -291 l 1
 152 -94 203 39 217 195 c 1
 326 226 363 238 418 256 c 1
307 934 m 0
 370 934 428 876 428 813 c 0
 428 752 371 696 305 696 c 0
 246 696 190 754 190 815 c 0
 190 876 246 934 307 934 c 0
EndSplineSet
EndChar

StartChar: tonos
Encoding: 900 900 218
Width: 583
GlyphClass: 2
Flags: HMW
HStem: 975 43G<307 307> 1362 41G<393 393>
LayerCount: 2
Fore
SplineSet
274 987 m 1
 369 1389 l 1
 393 1403 l 1
 481 1370 l 1
 494 1343 l 1
 307 975 l 1
 274 987 l 1
EndSplineSet
EndChar

StartChar: dieresistonos
Encoding: 901 901 219
Width: 583
GlyphClass: 2
Flags: HMW
HStem: 975 43G<250 250> 1206 186<56 103 53 104 580 627> 1362 41G<336 336>
VStem: -12 184<1274 1324> 510 184<1275 1327 1275 1327>
LayerCount: 2
Fore
SplineSet
217 987 m 1xb8
 311 1389 l 1
 336 1403 l 1
 424 1370 l 1
 436 1343 l 1
 250 975 l 1
 217 987 l 1xb8
-12 1300 m 0
 -12 1347 25 1393 82 1393 c 0
 125 1393 172 1357 172 1300 c 0
 172 1243 127 1206 82 1206 c 0xd8
 31 1206 -12 1247 -12 1300 c 0
510 1300 m 0
 510 1353 551 1393 602 1393 c 0
 651 1393 694 1353 694 1300 c 0
 694 1249 651 1206 602 1206 c 0
 557 1206 510 1241 510 1300 c 0
EndSplineSet
EndChar

StartChar: Alphatonos
Encoding: 902 902 220
Width: 1267
GlyphClass: 2
Flags: HMW
HStem: -6 68 469 82<492 1010 492 1047 457 1010> 1393 41G<393 393 770 836 836 836>
LayerCount: 2
Fore
SplineSet
276 1018 m 1
 369 1419 l 1
 393 1434 l 1
 483 1401 l 1
 496 1374 l 1
 309 1006 l 1
 276 1018 l 1
836 1434 m 1
 1331 270 l 2
 1403 104 1426 69 1479 61 c 2
 1548 55 l 1
 1548 -6 l 1
 1327 0 1327 0 1288 0 c 0
 1255 0 1256 0 1004 -6 c 1
 1004 55 l 1
 1100 61 l 2
 1151 65 1184 79 1184 102 c 0
 1184 120 1176 147 1141 233 c 2
 1047 469 l 1
 457 469 l 1
 399 332 l 2
 356 230 328 142 328 115 c 0
 328 82 354 67 426 61 c 2
 502 55 l 1
 502 -6 l 1
 281 0 281 0 254 0 c 0
 221 0 221 0 31 -6 c 1
 31 55 l 1
 106 61 l 2
 151 65 192 103 217 162 c 2
 690 1239 l 1
 770 1434 l 1
 836 1434 l 1
492 551 m 1
 1010 551 l 1
 752 1161 l 1
 492 551 l 1
EndSplineSet
EndChar

StartChar: anoteleia
Encoding: 903 903 221
Width: 500
GlyphClass: 2
Flags: HMW
HStem: 670 258<183 258>
VStem: 92 260<766 830>
LayerCount: 2
Fore
SplineSet
92 799 m 0
 92 862 143 928 223 928 c 0
 301 928 352 867 352 799 c 0
 352 725 293 670 223 670 c 0
 143 670 92 733 92 799 c 0
EndSplineSet
EndChar

StartChar: Epsilontonos
Encoding: 904 904 222
Width: 1446
GlyphClass: 2
Flags: HMW
HStem: -6 86<1023 1034 889 1125> 676 86<922 1026> 1331 86 1370 41G<672 755>
VStem: 545 195<246 670 768 1165 1165 1246> 1331 72<1100 1161 1100 1233>
LayerCount: 2
Fore
SplineSet
45 1001 m 1xec
 139 1403 l 1
 164 1417 l 1
 252 1384 l 1
 264 1358 l 1
 78 989 l 1
 45 1001 l 1xec
1436 0 m 1
 1157 -6 1157 -6 1094 -6 c 0
 953 -6 714 0 618 0 c 0
 561 0 502 -2 367 -6 c 1
 367 55 l 1
 440 61 l 2
 536 69 545 84 545 246 c 2
 545 1165 l 2
 545 1327 534 1344 440 1350 c 2
 342 1356 l 1
 342 1417 l 1xdc
 545 1413 637 1411 707 1411 c 0
 803 1411 992 1417 1182 1417 c 0xec
 1272 1417 1336 1415 1436 1411 c 1xdc
 1413 1321 1403 1223 1403 1100 c 1
 1331 1100 l 1
 1331 1233 l 2
 1331 1280 1325 1291 1276 1303 c 0
 1210 1321 1096 1331 979 1331 c 0
 838 1331 802 1329 739 1315 c 1
 739 768 l 1
 809 764 879 762 965 762 c 0
 1100 762 1157 768 1194 784 c 1
 1202 800 1208 820 1210 838 c 2
 1221 944 l 1
 1282 944 l 1
 1276 739 1276 740 1276 707 c 0
 1276 670 1276 669 1282 479 c 1
 1221 479 l 1
 1210 600 l 1
 1194 651 l 1
 1157 669 1102 676 950 676 c 0
 858 676 796 674 739 670 c 1
 739 96 l 1
 798 84 836 80 942 80 c 0
 1126 80 1276 90 1319 104 c 0
 1376 124 1395 318 1397 336 c 1
 1468 336 l 1
 1448 230 1436 119 1436 0 c 1
EndSplineSet
EndChar

StartChar: Etatonos
Encoding: 905 905 223
Width: 1664
GlyphClass: 2
Flags: HMW
HStem: -6 43G<365 365 967 967 1380 1380 1978 1978> 0 61 707 90<893 1413 934 1413> 1350 68 1370 41G<612 717 1628 1733>
VStem: 365 397<-6 246 55 246> 569 193<246 702 801 1165> 569 397<-6 1165> 1380 397<-6 246 55 246> 1581 197<246 702 702 702 801 1165> 1581 397<-6 702>
LayerCount: 2
Fore
SplineSet
45 1001 m 1x7420
 139 1403 l 1
 164 1417 l 1
 250 1384 l 1
 262 1358 l 1
 78 989 l 1
 45 1001 l 1x7420
1581 246 m 2
 1581 702 l 1
 1528 706 1495 707 1413 707 c 2
 934 707 l 2
 852 707 819 706 762 702 c 1
 762 246 l 2
 762 84 774 67 868 61 c 2x7280
 967 55 l 1
 967 -6 l 1
 844 -2 770 0 664 0 c 0x7480
 558 0 488 -2 365 -6 c 1
 365 55 l 1x6c80
 463 61 l 2
 557 67 569 84 569 246 c 2
 569 1165 l 2x7180
 569 1327 557 1344 463 1350 c 2
 365 1356 l 1
 365 1417 l 1
 512 1413 562 1411 664 1411 c 0x7440
 770 1411 815 1411 967 1417 c 1
 967 1356 l 1x7480
 868 1350 l 2
 774 1344 762 1327 762 1165 c 2
 762 801 l 1
 803 799 848 797 934 797 c 2
 1413 797 l 2
 1495 797 1540 799 1581 801 c 1
 1581 1165 l 2x6c80
 1581 1327 1573 1344 1479 1350 c 2
 1380 1356 l 1
 1380 1417 l 1
 1527 1413 1577 1411 1679 1411 c 0x7420
 1785 1411 1831 1411 1978 1417 c 1
 1978 1356 l 1x7480
 1880 1350 l 2
 1786 1344 1778 1327 1778 1165 c 2
 1778 246 l 2
 1778 84 1786 67 1880 61 c 2xb420
 1978 55 l 1
 1978 -6 l 1
 1859 -2 1785 0 1679 0 c 0x7480
 1573 0 1499 -2 1380 -6 c 1
 1380 55 l 1xb480
 1479 61 l 2
 1573 67 1581 84 1581 246 c 2
EndSplineSet
EndChar

StartChar: Iotatonos
Encoding: 906 906 224
Width: 922
GlyphClass: 2
Flags: HMW
HStem: -6 43G<332 332 932 932> 0 61 1350 68 1370 41G<580 684>
VStem: 332 397<-6 246 55 246> 535 195<246 1165> 535 397<-6 1165>
LayerCount: 2
Fore
SplineSet
45 1001 m 1x68
 139 1403 l 1
 164 1417 l 1
 250 1384 l 1
 262 1358 l 1
 78 989 l 1
 45 1001 l 1x68
729 1165 m 2
 729 246 l 2
 729 84 740 67 834 61 c 2x68
 932 55 l 1
 932 -6 l 1
 811 -2 737 0 631 0 c 0xa8
 525 0 453 -2 332 -6 c 1
 332 55 l 1x64
 430 61 l 2
 524 67 535 84 535 246 c 2
 535 1165 l 2x68
 535 1327 524 1344 430 1350 c 2
 332 1356 l 1
 332 1417 l 1
 479 1413 529 1411 631 1411 c 0x58
 737 1411 782 1411 932 1417 c 1
 932 1356 l 1x62
 834 1350 l 2
 740 1344 729 1327 729 1165 c 2
EndSplineSet
EndChar

StartChar: Omicrontonos
Encoding: 908 908 225
Width: 1507
GlyphClass: 2
Flags: HMW
HStem: -41 86<827 1147> 1366 86<780 1123>
VStem: 205 219<555 924> 1505 219<526 903>
LayerCount: 2
Fore
SplineSet
45 1036 m 1
 137 1438 l 1
 162 1452 l 1
 252 1419 l 1
 264 1393 l 1
 78 1024 l 1
 45 1036 l 1
983 1452 m 0
 1438 1452 1724 1182 1724 752 c 0
 1724 301 1377 -41 918 -41 c 0
 504 -41 205 268 205 698 c 0
 205 1149 516 1452 983 1452 c 0
948 1366 m 0
 612 1366 424 1153 424 774 c 0
 424 336 655 45 999 45 c 0
 1316 45 1505 284 1505 690 c 0
 1505 1116 1298 1366 948 1366 c 0
EndSplineSet
EndChar

StartChar: Upsilontonos
Encoding: 910 910 226
Width: 1594
GlyphClass: 2
Flags: HMW
HStem: -8 43G<715 715 1280 1280> 1274 141<514 649>
VStem: 907 72<647 647 647 655>
LayerCount: 2
Fore
SplineSet
6 999 m 1
 100 1401 l 1
 125 1415 l 1
 211 1382 l 1
 223 1356 l 1
 39 987 l 1
 6 999 l 1
1751 1155 m 2
 1749 1118 l 1
 1716 1100 l 1
 1698 1211 1635 1268 1524 1268 c 0
 1440 1268 1359 1227 1298 1174 c 0
 1108 1012 1090 700 1090 469 c 0
 1090 408 1083 117 1112 84 c 0
 1135 59 1245 57 1280 55 c 1
 1286 49 l 1
 1286 0 l 1
 1280 -8 l 1
 1186 -4 1091 0 993 0 c 0
 901 0 809 -2 715 -8 c 1
 707 0 l 1
 707 49 l 1
 715 55 l 1
 746 55 865 57 885 84 c 0
 912 121 907 406 907 469 c 2
 907 547 l 2
 907 764 791 1274 508 1274 c 0
 397 1274 340 1206 287 1120 c 1
 268 1118 l 1
 252 1143 l 1
 320 1293 426 1415 602 1415 c 0
 950 1415 969 895 979 647 c 1
 1030 647 l 1
 1055 944 1119 1415 1516 1415 c 0
 1676 1415 1759 1309 1751 1155 c 2
EndSplineSet
EndChar

StartChar: Omegatonos
Encoding: 911 911 227
Width: 1549
GlyphClass: 2
Flags: HMW
HStem: -12 166 1386 55<827 1221> 1411 41G<186 186>
VStem: 268 215<668 951 627 1043> 1534 217<667 940>
LayerCount: 2
Fore
SplineSet
70 1036 m 1xb8
 162 1438 l 1
 186 1452 l 1
 276 1419 l 1
 289 1393 l 1
 102 1024 l 1
 70 1036 l 1xb8
1784 297 m 1
 1770 195 1755 90 1749 -12 c 1
 1538 -4 1323 -4 1112 0 c 1
 1112 139 l 1
 1438 182 1534 477 1534 766 c 0
 1534 1114 1419 1386 1022 1386 c 0
 633 1386 483 1130 483 772 c 0
 483 481 575 182 905 139 c 1
 905 0 l 1
 694 -6 481 -4 270 -12 c 1
 260 90 247 195 233 297 c 1
 242 303 l 1
 272 303 l 1
 279 297 l 1
 306 191 305 154 428 154 c 2
 692 154 l 1
 692 168 l 1
 418 283 268 520 268 815 c 0
 268 1272 610 1442 1022 1442 c 0xd8
 1430 1442 1751 1257 1751 815 c 0
 1751 518 1599 283 1325 168 c 1
 1325 154 l 1
 1589 154 l 2
 1712 154 1712 188 1739 297 c 1
 1747 303 l 1
 1776 303 l 1
 1784 297 l 1
EndSplineSet
EndChar

StartChar: iotadieresistonos
Encoding: 912 912 228
Width: 582
GlyphClass: 2
Flags: HMW
HStem: -33 117<291 455> 1298 186<99 146 96 147 623 670> 1454 41G<379 379>
VStem: 31 184<1366 1416> 553 184<1367 1419 1367 1419>
LayerCount: 2
Fore
SplineSet
260 1079 m 1xb8
 354 1481 l 1
 379 1495 l 1
 467 1462 l 1
 479 1436 l 1
 293 1067 l 1
 260 1079 l 1xb8
31 1393 m 0
 31 1440 68 1485 125 1485 c 0
 168 1485 215 1450 215 1393 c 0
 215 1336 170 1298 125 1298 c 0xd8
 74 1298 31 1340 31 1393 c 0
553 1393 m 0
 553 1446 594 1485 645 1485 c 0
 694 1485 737 1446 737 1393 c 0
 737 1342 694 1298 645 1298 c 0
 600 1298 553 1334 553 1393 c 0
625 170 m 1
 623 154 l 1
 562 93 428 -33 328 -33 c 0
 254 -33 207 14 197 88 c 0
 181 205 223 601 209 920 c 1
 262 930 318 944 365 969 c 1
 387 942 l 1
 350 776 311 338 338 174 c 0
 344 129 373 84 424 84 c 0
 485 84 555 153 592 190 c 1
 612 186 l 1
 625 170 l 1
EndSplineSet
EndChar

StartChar: Alpha
Encoding: 913 913 229
Width: 1276
GlyphClass: 2
Flags: HMW
TopRightVertex: 1  1434,-168
BottomRightVertex: 2  -410,100 -205,455
HStem: -6 68 469 82<492 1010 492 1047 457 1010> 1393 41G<770 836 836 836>
LayerCount: 2
Fore
SplineSet
836 1434 m 1
 1331 270 l 2
 1403 104 1426 69 1479 61 c 2
 1548 55 l 1
 1548 -6 l 1
 1327 0 1327 0 1288 0 c 0
 1255 0 1256 0 1004 -6 c 1
 1004 55 l 1
 1100 61 l 2
 1151 65 1184 79 1184 102 c 0
 1184 120 1176 147 1141 233 c 2
 1047 469 l 1
 457 469 l 1
 399 332 l 2
 356 230 328 142 328 115 c 0
 328 82 354 67 426 61 c 2
 502 55 l 1
 502 -6 l 1
 281 0 281 0 254 0 c 0
 221 0 221 0 31 -6 c 1
 31 55 l 1
 106 61 l 2
 151 65 192 103 217 162 c 2
 690 1239 l 1
 770 1434 l 1
 836 1434 l 1
492 551 m 1
 1010 551 l 1
 752 1161 l 1
 492 551 l 1
EndSplineSet
AlternateSubs2: "'ssty' Math Script Style lookup 4 subtable" glyph3682 glyph3708
EndChar

StartChar: Beta
Encoding: 914 914 230
Width: 1252
GlyphClass: 2
Flags: HMW
TopAccentHorizontal: 616
TopRightVertex: 1  1417,205
BottomRightVertex: 1  0,100
HStem: -6 86<572 706 554 825> 745 72<544 668 534 701> 1335 82<692 701> 1370 41G<357 392>
VStem: 231 195<195 741 96 821 821 1165 1165 1246> 907 203<1085 1177> 969 141 969 211<371 519 371 536>
LayerCount: 2
Fore
SplineSet
610 -6 m 0xe9
 534 -6 407 0 356 0 c 0
 317 0 274 -2 133 -6 c 1
 133 41 l 1
 186 61 l 2
 215 73 231 119 231 195 c 2
 231 1165 l 2
 231 1327 223 1342 127 1350 c 2
 53 1356 l 1
 53 1417 l 1
 338 1411 338 1411 377 1411 c 0xdc
 408 1411 407 1411 692 1417 c 2
 743 1417 l 2
 981 1417 1110 1319 1110 1139 c 0xea
 1110 1033 1059 945 961 877 c 0
 904 838 856 819 756 799 c 1
 914 787 983 768 1061 711 c 0
 1139 656 1180 571 1180 467 c 0
 1180 274 1040 -6 610 -6 c 0xe9
426 741 m 1
 426 96 l 1
 477 84 525 80 584 80 c 0
 828 80 969 209 969 426 c 0
 969 645 839 745 563 745 c 0
 524 745 506 745 426 741 c 1
426 1319 m 1
 426 821 l 1
 489 817 516 817 551 817 c 0
 784 817 907 914 907 1092 c 0xea
 907 1262 811 1335 592 1335 c 0
 526 1335 479 1331 426 1319 c 1
EndSplineSet
AlternateSubs2: "'ssty' Math Script Style lookup 4 subtable" glyph3683 glyph3709
EndChar

StartChar: Gamma
Encoding: 915 915 231
Width: 1098
GlyphClass: 2
Flags: HMW
TopAccentHorizontal: 571
TopRightVertex: 1  1417,205
BottomRightVertex: 1  0,100
HStem: -6 43G<45 45 645 645> 0 61 1350 68 1370 41G<333 460>
VStem: 45 397<-6 246 55 246> 248 195<246 1165 1165 1249> 993 72<1100 1152 1100 1233>
LayerCount: 2
Fore
SplineSet
1098 1411 m 1x5a
 1075 1321 1065 1204 1065 1100 c 1
 993 1100 l 1
 993 1233 l 2
 993 1260 991 1282 975 1288 c 0
 866 1329 704 1331 614 1331 c 0
 559 1331 499 1329 442 1315 c 1
 442 246 l 2
 442 78 459 65 547 61 c 2x6a
 645 55 l 1
 645 -6 l 1
 539 -2 442 0 348 0 c 0xaa
 248 0 151 -2 45 -6 c 1
 45 55 l 1x66
 143 61 l 2
 231 65 248 82 248 246 c 2
 248 1165 l 2x6a
 248 1333 231 1346 143 1350 c 2
 45 1356 l 1
 45 1417 l 1x5a
 158 1415 274 1411 391 1411 c 0
 528 1411 717 1417 834 1417 c 0x6a
 926 1417 1018 1415 1098 1411 c 1x5a
EndSplineSet
AlternateSubs2: "'ssty' Math Script Style lookup 4 subtable" glyph3654 glyph3663
EndChar

StartChar: Delta
Encoding: 916 916 232
Width: 1220
GlyphClass: 2
Flags: HMW
TopRightVertex: 1  1427,-166
BottomRightVertex: 1  0,100
HStem: -8 43G<70 70 1343 1343> 0 76<613 826> 1386 41G<690 741 741 741>
LayerCount: 2
Fore
SplineSet
55 12 m 1xa0
 188 262 602 1208 690 1427 c 1
 741 1427 l 1
 1356 12 l 1
 1343 -8 l 1
 1136 -2 930 0 723 0 c 0x60
 504 0 287 0 70 -8 c 1
 55 12 l 1xa0
1100 76 m 1xa0
 967 441 820 801 666 1155 c 1
 651 1155 l 1
 495 797 350 441 215 76 c 1
 1100 76 l 1xa0
EndSplineSet
AlternateSubs2: "'ssty' Math Script Style lookup 4 subtable" glyph3655 glyph3664
EndChar

StartChar: Epsilon
Encoding: 917 917 233
Width: 1178
GlyphClass: 2
Flags: HMW
TopAccentHorizontal: 608
TopRightVertex: 1  1417,205
BottomRightVertex: 1  0,100
HStem: -6 86<725 737 592 828> 676 86<625 729> 1331 86 1370 41G<375 457>
VStem: 248 195<246 670 768 1165 1165 1246> 1034 72<1100 1161 1100 1233>
LayerCount: 2
Fore
SplineSet
1139 0 m 1xec
 860 -6 860 -6 797 -6 c 0
 654 -6 416 0 322 0 c 0
 265 0 205 -2 70 -6 c 1
 70 55 l 1
 143 61 l 2
 239 69 248 84 248 246 c 2
 248 1165 l 2
 248 1327 237 1344 143 1350 c 2
 45 1356 l 1
 45 1417 l 1xdc
 248 1413 340 1411 410 1411 c 0
 504 1411 695 1417 885 1417 c 0xec
 975 1417 1039 1415 1139 1411 c 1xdc
 1116 1321 1106 1223 1106 1100 c 1
 1034 1100 l 1
 1034 1233 l 2
 1034 1280 1028 1291 979 1303 c 0
 913 1321 799 1331 682 1331 c 0
 541 1331 505 1329 442 1315 c 1
 442 768 l 1
 512 764 582 762 668 762 c 0
 803 762 860 768 897 784 c 1
 905 800 911 820 913 838 c 2
 924 944 l 1
 985 944 l 1
 979 739 979 740 979 707 c 0
 979 670 979 669 985 479 c 1
 924 479 l 1
 913 600 l 1
 897 651 l 1
 860 669 805 676 653 676 c 0
 561 676 499 674 442 670 c 1
 442 96 l 1
 501 84 539 80 645 80 c 0
 829 80 979 90 1022 104 c 0
 1079 124 1098 318 1100 336 c 1
 1171 336 l 1
 1151 230 1139 119 1139 0 c 1xec
EndSplineSet
AlternateSubs2: "'ssty' Math Script Style lookup 4 subtable" glyph3686 glyph3712
EndChar

StartChar: Zeta
Encoding: 918 918 234
Width: 1101
GlyphClass: 2
Flags: HMW
TopAccentHorizontal: 668
TopRightVertex: 1  1417,205
BottomRightVertex: 1  0,100
HStem: -6 43G<31 31 1294 1294> -2 92 1327 86 1370 41G<874 977 977 977> 1376 41G<164 164 1296 1296>
LayerCount: 2
Fore
SplineSet
1305 1358 m 1x48
 309 90 l 1
 868 90 l 2x60
 1181 90 1211 103 1225 238 c 2
 1237 354 l 1
 1307 354 l 1
 1297 241 1294 170 1294 -6 c 1
 727 0 l 1
 670 0 l 1
 31 -6 l 1
 31 51 l 1
 1024 1327 l 1
 557 1327 l 2xa0
 307 1327 252 1311 246 1231 c 2
 233 1085 l 1
 164 1085 l 1
 168 1161 170 1198 170 1251 c 0
 170 1304 168 1341 164 1417 c 1x48
 502 1415 l 1
 874 1411 l 1
 977 1411 l 1x50
 1296 1417 l 1
 1305 1358 l 1x48
EndSplineSet
AlternateSubs2: "'ssty' Math Script Style lookup 4 subtable" glyph3707 glyph3733
EndChar

StartChar: Eta
Encoding: 919 919 235
Width: 1406
GlyphClass: 2
Flags: HMW
TopAccentHorizontal: 852
TopRightVertex: 1  1417,205
BottomRightVertex: 1  0,100
HStem: -6 43G<45 45 645 645 1059 1059 1659 1659> 0 61 707 90<571 1092 612 1092> 1350 68 1370 41G<293 397 1307 1411>
VStem: 45 397<-6 246 55 246> 248 195<246 702 801 1165> 248 397<-6 1165> 1059 397<-6 246 55 246> 1262 195<246 702 702 702 801 1165> 1262 397<-6 702>
LayerCount: 2
Fore
SplineSet
1262 246 m 2x7420
 1262 702 l 1
 1207 706 1174 707 1092 707 c 2
 612 707 l 2
 530 707 497 706 442 702 c 1
 442 246 l 2
 442 84 453 67 547 61 c 2x7280
 645 55 l 1
 645 -6 l 1
 524 -2 450 0 344 0 c 0x7480
 238 0 166 -2 45 -6 c 1
 45 55 l 1x6c80
 143 61 l 2
 237 67 248 84 248 246 c 2
 248 1165 l 2x7180
 248 1327 237 1344 143 1350 c 2
 45 1356 l 1
 45 1417 l 1
 192 1413 242 1411 344 1411 c 0x7440
 450 1411 495 1411 645 1417 c 1
 645 1356 l 1x7480
 547 1350 l 2
 453 1344 442 1327 442 1165 c 2
 442 801 l 1
 483 799 528 797 612 797 c 2
 1092 797 l 2
 1176 797 1219 799 1262 801 c 1
 1262 1165 l 2x6c80
 1262 1327 1251 1344 1157 1350 c 2
 1059 1356 l 1
 1059 1417 l 1
 1206 1413 1256 1411 1358 1411 c 0x7420
 1464 1411 1509 1411 1659 1417 c 1
 1659 1356 l 1x7480
 1561 1350 l 2
 1467 1344 1456 1327 1456 1165 c 2
 1456 246 l 2
 1456 84 1467 67 1561 61 c 2xb420
 1659 55 l 1
 1659 -6 l 1
 1538 -2 1464 0 1358 0 c 0x7480
 1252 0 1180 -2 1059 -6 c 1
 1059 55 l 1xb480
 1157 61 l 2
 1251 67 1262 84 1262 246 c 2x7420
EndSplineSet
AlternateSubs2: "'ssty' Math Script Style lookup 4 subtable" glyph3689 glyph3715
EndChar

StartChar: Theta
Encoding: 920 920 236
Width: 1338
GlyphClass: 2
Flags: HMW
TopAccentHorizontal: 805
TopRightVertex: 1  1452,205
BottomRightVertex: 1  0,100
HStem: -41 86<635 996> 670 150<567 987 623 987> 1366 86<604 973>
VStem: 45 219<601 915> 1346 219<531 891>
LayerCount: 2
Fore
SplineSet
1565 752 m 0
 1565 312 1221 -41 772 -41 c 0
 356 -41 45 246 45 705 c 0
 45 1127 340 1452 815 1452 c 0
 1253 1452 1565 1207 1565 752 c 0
1346 688 m 0
 1346 1094 1163 1366 782 1366 c 0
 426 1366 264 1116 264 780 c 0
 264 422 432 45 838 45 c 0
 1180 45 1346 311 1346 688 c 0
487 985 m 1
 516 946 484 819 623 819 c 2
 987 819 l 2
 1100 819 1098 887 1116 977 c 1
 1124 985 l 1
 1153 985 l 1
 1159 977 l 1
 1157 821 1157 666 1159 510 c 1
 1153 502 l 1
 1124 502 l 1
 1116 510 l 1
 1098 602 1100 670 987 670 c 2
 623 670 l 2
 512 670 514 602 494 510 c 1
 487 502 l 1
 457 502 l 1
 451 510 l 1
 453 666 453 821 451 977 c 1
 457 985 l 1
 487 985 l 1
EndSplineSet
AlternateSubs2: "'ssty' Math Script Style lookup 4 subtable" glyph3656 glyph3665
EndChar

StartChar: Iota
Encoding: 921 921 237
Width: 664
GlyphClass: 2
Flags: HMW
TopAccentHorizontal: 344
TopRightVertex: 1  1417,205
BottomRightVertex: 1  0,100
HStem: -6 43G<45 45 645 645> 0 61 1350 68 1370 41G<293 397>
VStem: 45 397<-6 246 55 246> 248 195<246 1165> 248 397<-6 1165>
LayerCount: 2
Fore
SplineSet
442 1165 m 2x68
 442 246 l 2
 442 84 453 67 547 61 c 2x68
 645 55 l 1
 645 -6 l 1
 524 -2 450 0 344 0 c 0xa8
 238 0 166 -2 45 -6 c 1
 45 55 l 1x64
 143 61 l 2
 237 67 248 84 248 246 c 2
 248 1165 l 2x68
 248 1327 237 1344 143 1350 c 2
 45 1356 l 1
 45 1417 l 1
 192 1413 242 1411 344 1411 c 0x58
 450 1411 495 1411 645 1417 c 1
 645 1356 l 1x62
 547 1350 l 2
 453 1344 442 1327 442 1165 c 2x68
EndSplineSet
AlternateSubs2: "'ssty' Math Script Style lookup 4 subtable" glyph3690 glyph3716
EndChar

StartChar: Kappa
Encoding: 922 922 238
Width: 1289
GlyphClass: 2
Flags: HMW
TopAccentHorizontal: 758
TopRightVertex: 1  1417,205
BottomRightVertex: 1  0,100
HStem: -6 68 1354 63 1370 41G<293 397 1239 1271>
VStem: 45 397<-6 246 55 246> 248 195<246 666 727 1165> 248 397<-6 1165>
LayerCount: 2
Fore
SplineSet
442 666 m 1xd0
 442 246 l 2xc8
 442 84 453 67 547 61 c 2
 645 55 l 1
 645 -6 l 1
 524 -2 450 0 344 0 c 0
 238 0 166 -2 45 -6 c 1
 45 55 l 1xd0
 143 61 l 2
 237 67 248 84 248 246 c 2
 248 1165 l 2xb0
 248 1327 237 1344 143 1350 c 2
 45 1356 l 1
 45 1417 l 1
 192 1413 242 1411 344 1411 c 0xc4
 450 1411 495 1411 645 1417 c 1
 645 1356 l 1xd0
 547 1350 l 2
 453 1344 442 1327 442 1165 c 2
 442 727 l 1
 1012 1282 l 2
 1045 1315 1071 1350 1071 1362 c 2
 1071 1417 l 1
 1190 1413 1224 1411 1253 1411 c 0xb0
 1288 1411 1288 1411 1417 1417 c 1
 1417 1356 l 1
 1331 1352 l 2
 1278 1350 1226 1323 1171 1274 c 2
 627 782 l 1
 1303 143 l 2
 1366 84 1399 61 1430 59 c 2
 1473 55 l 1
 1473 -6 l 1
 1371 0 1366 0 1339 0 c 0
 1319 0 1319 0 1176 -6 c 1
 463 680 l 1
 442 666 l 1xd0
EndSplineSet
AlternateSubs2: "'ssty' Math Script Style lookup 4 subtable" glyph3692 glyph3718
EndChar

StartChar: Lambda
Encoding: 923 923 239
Width: 1240
GlyphClass: 2
Flags: HMW
TopAccentHorizontal: 764
TopRightVertex: 1  1427,-119
BottomRightVertex: 1  0,100
HStem: -8 43G<467 467 971 971 1487 1487> 0 59<35 66> 1386 41G<784 825 825 825>
LayerCount: 2
Fore
SplineSet
1493 0 m 1x60
 1487 -8 l 1
 1405 -4 1325 0 1243 0 c 0x60
 1153 0 1063 -2 971 -8 c 1xa0
 965 0 l 1
 965 51 l 1
 971 59 l 1
 1006 59 1141 49 1141 106 c 0
 1141 157 1030 426 1010 479 c 2
 745 1145 l 1
 731 1145 l 1
 711 1096 324 195 324 111 c 0
 324 56 436 59 467 59 c 1
 477 51 l 1
 477 0 l 1x60
 467 -8 l 1xa0
 397 -4 326 0 252 0 c 0
 182 0 115 -4 43 -6 c 1
 35 0 l 1
 35 51 l 1
 43 59 l 1
 88 59 139 57 174 86 c 0
 250 145 749 1349 784 1427 c 1
 825 1427 l 1
 841 1386 1321 152 1397 84 c 0
 1424 61 1452 63 1487 59 c 1
 1493 51 l 1
 1493 0 l 1x60
EndSplineSet
AlternateSubs2: "'ssty' Math Script Style lookup 4 subtable" glyph3657 glyph3666
EndChar

StartChar: Mu
Encoding: 924 924 240
Width: 1670
GlyphClass: 2
Flags: HMW
TopAccentHorizontal: 965
TopRightVertex: 1  1417,205
BottomRightVertex: 1  0,100
HStem: 0 61 1350 68 1370 41G<212 243 1678 1711>
VStem: 33 289<-6 246 55 246> 227 94<246 1165 1165 1184> 1499 195<246 1165> 1499 397<-6 1184>
LayerCount: 2
Fore
SplineSet
1499 246 m 2xd2
 1499 1184 l 1
 1462 1114 1438 1067 1409 1008 c 2
 1044 233 l 2
 1007 157 959 24 934 -27 c 1
 893 -27 l 1xcc
 322 1184 l 1
 322 246 l 2
 322 86 332 67 426 61 c 2
 516 55 l 1
 516 -6 l 1
 301 0 301 0 270 0 c 0
 235 0 236 0 33 -6 c 1
 33 55 l 1xd4
 123 61 l 2
 217 67 227 86 227 246 c 2
 227 1165 l 2xac
 227 1325 217 1344 123 1350 c 2
 33 1356 l 1
 33 1417 l 1
 197 1411 196 1411 227 1411 c 0xd4
 258 1411 258 1411 422 1417 c 1
 963 279 l 1
 1499 1417 l 1
 1663 1411 1663 1411 1694 1411 c 0xb4
 1729 1411 1728 1411 1884 1417 c 1
 1884 1356 l 1
 1798 1350 l 2
 1704 1344 1694 1325 1694 1165 c 2
 1694 246 l 2xd4
 1694 84 1704 67 1798 61 c 2
 1896 55 l 1
 1896 -6 l 1
 1775 -2 1702 0 1587 0 c 0
 1481 0 1419 -2 1325 -6 c 1
 1325 55 l 1
 1395 61 l 2
 1491 69 1499 84 1499 246 c 2xd2
EndSplineSet
AlternateSubs2: "'ssty' Math Script Style lookup 4 subtable" glyph3694 glyph3720
EndChar

StartChar: Nu
Encoding: 925 925 241
Width: 1394
GlyphClass: 2
Flags: HMW
TopAccentHorizontal: 850
TopRightVertex: 1  1417,205
BottomRightVertex: 1  0,100
HStem: -41 43G<1477 1477> -6 68 1350 61 1376 41G<35 35 391 391 1182 1182 1665 1665>
VStem: 35 289<-6 246 55 246> 229 94<246 1165 1165 1194> 1376 94<201 1165>
LayerCount: 2
Fore
SplineSet
281 1411 m 1x6a
 391 1417 l 1x6a
 1376 201 l 1
 1376 1165 l 2
 1376 1325 1366 1344 1272 1350 c 2x5a
 1182 1356 l 1
 1182 1417 l 1
 1385 1411 1384 1411 1419 1411 c 0x6a
 1450 1411 1450 1411 1665 1417 c 1x5a
 1665 1356 l 1
 1575 1350 l 2
 1481 1344 1470 1325 1470 1165 c 2
 1470 35 l 2
 1470 12 1477 -27 1477 -41 c 1xaa
 1292 -8 l 1
 324 1194 l 1
 324 246 l 2
 324 86 334 67 428 61 c 2
 518 55 l 1
 518 -6 l 1
 303 0 303 0 272 0 c 0
 237 0 238 0 35 -6 c 1
 35 55 l 1x6a
 125 61 l 2
 219 67 229 86 229 246 c 2
 229 1165 l 2
 229 1325 219 1344 125 1350 c 2x66
 35 1356 l 1
 35 1417 l 1x5a
 148 1413 166 1413 281 1411 c 1x6a
EndSplineSet
AlternateSubs2: "'ssty' Math Script Style lookup 4 subtable" glyph3695 glyph3721
EndChar

StartChar: Xi
Encoding: 926 926 242
Width: 1171
GlyphClass: 2
Flags: HMW
TopAccentHorizontal: 709
TopRightVertex: 1  1411,205
BottomRightVertex: 1  0,100
HStem: -8 43G<137 137 1278 1278> 0 156<614 804> 670 150<482 879 539 879> 1260 152<327 418 418 997>
LayerCount: 2
Fore
SplineSet
1253 1034 m 1x70
 1245 1028 l 1
 1204 1022 l 1
 1196 1030 l 1
 1171 1190 1183 1260 997 1260 c 2
 418 1260 l 2
 236 1260 248 1192 221 1030 c 1
 211 1022 l 1
 172 1028 l 1
 166 1034 l 1
 172 1157 178 1282 174 1405 c 1
 178 1411 l 1
 532 1403 887 1403 1239 1411 c 1
 1243 1405 l 1
 1241 1325 l 2
 1239 1229 1245 1132 1253 1034 c 1x70
403 991 m 1
 432 954 394 819 539 819 c 2
 879 819 l 2
 994 819 992 893 1010 983 c 1
 1016 991 l 1
 1047 991 l 1
 1053 983 l 1
 1051 823 1051 666 1053 504 c 1
 1047 498 l 1
 1016 498 l 1
 987 527 1024 670 879 670 c 2
 539 670 l 2
 426 670 426 596 410 504 c 1
 403 498 l 1
 373 498 l 1
 365 504 l 1
 369 666 369 823 365 983 c 1
 373 991 l 1
 403 991 l 1
1333 387 m 1
 1313 260 1298 129 1286 0 c 1xb0
 1278 -8 l 1
 1090 -4 899 0 709 0 c 0x70
 521 0 330 -4 137 -8 c 1xb0
 131 0 l 1
 121 129 106 260 86 387 c 1
 94 397 l 1
 135 397 l 1
 145 387 l 1
 194 217 192 156 387 156 c 2
 1030 156 l 2
 1225 156 1225 219 1274 387 c 1
 1282 397 l 1
 1323 397 l 1
 1333 387 l 1
EndSplineSet
AlternateSubs2: "'ssty' Math Script Style lookup 4 subtable" glyph3658 glyph3667
EndChar

StartChar: Omicron
Encoding: 927 927 243
Width: 1338
GlyphClass: 2
Flags: HMW
TopAccentHorizontal: 805
TopRightVertex: 1  1452,205
BottomRightVertex: 1  0,100
HStem: -41 86<668 987> 1366 86<621 964>
VStem: 45 219<555 924> 1346 219<526 903>
LayerCount: 2
Fore
SplineSet
823 1452 m 0
 1278 1452 1565 1182 1565 752 c 0
 1565 301 1217 -41 758 -41 c 0
 344 -41 45 268 45 698 c 0
 45 1149 356 1452 823 1452 c 0
788 1366 m 0
 452 1366 264 1153 264 774 c 0
 264 336 496 45 840 45 c 0
 1157 45 1346 284 1346 690 c 0
 1346 1116 1138 1366 788 1366 c 0
EndSplineSet
AlternateSubs2: "'ssty' Math Script Style lookup 4 subtable" glyph3696 glyph3722
EndChar

StartChar: Pi
Encoding: 928 928 244
Width: 1381
GlyphClass: 2
Flags: HMW
TopAccentHorizontal: 831
TopRightVertex: 1  1411,205
BottomRightVertex: 1  0,100
HStem: -8 43G<57 57 623 623 1042 1042 1606 1606> 0 55<51 57> 1325 80 1370 41G<57 57 1606 1606>
VStem: 250 182<432 451 451 981 981 1010> 1233 184<438 973>
LayerCount: 2
Fore
SplineSet
1614 0 m 1x6c
 1606 -8 l 1
 1516 -6 1423 0 1329 0 c 0x6c
 1235 0 1138 -4 1042 -8 c 1xac
 1034 0 l 1
 1034 49 l 1
 1042 55 l 1
 1075 57 1189 59 1212 84 c 0
 1239 117 1233 381 1233 438 c 2
 1233 1325 l 1
 432 1327 l 1
 432 451 l 2
 432 394 426 115 455 84 c 0
 480 57 588 57 623 55 c 1
 631 49 l 1
 631 0 l 1x6c
 623 -8 l 1
 531 -6 438 0 346 0 c 0xac
 250 0 155 -4 57 -8 c 1x6c
 51 0 l 1
 51 49 l 1
 57 55 l 1
 92 57 202 57 227 84 c 0
 254 117 250 373 250 432 c 2
 250 981 l 2
 250 1038 256 1290 223 1323 c 0
 198 1348 90 1348 57 1350 c 1
 51 1356 l 1
 51 1405 l 1x5c
 57 1411 l 1
 303 1409 549 1405 795 1405 c 0x6c
 1065 1405 1338 1405 1606 1411 c 1x5c
 1614 1405 l 1
 1614 1356 l 1
 1606 1350 l 1
 1571 1348 1467 1350 1440 1323 c 0
 1409 1294 1417 1028 1417 973 c 2
 1417 428 l 2
 1417 375 1411 115 1440 84 c 0
 1465 59 1573 57 1606 55 c 1
 1614 49 l 1
 1614 0 l 1x6c
EndSplineSet
AlternateSubs2: "'ssty' Math Script Style lookup 4 subtable" glyph3659 glyph3668
EndChar

StartChar: Rho
Encoding: 929 929 245
Width: 1163
GlyphClass: 2
Flags: HMW
TopAccentHorizontal: 616
TopRightVertex: 1  1417,205
BottomRightVertex: 1  0,100
HStem: -6 43G<45 45 645 645> 0 61 664 66<672 769 658 833> 1339 78<751 754>
VStem: 47 395 248 195<246 1165 1165 1241> 983 205<977 1140>
LayerCount: 2
Fore
SplineSet
47 1417 m 1x7a
 375 1411 375 1411 420 1411 c 0x7a
 629 1411 733 1417 768 1417 c 0
 1028 1417 1188 1297 1188 1100 c 0
 1188 854 973 664 692 664 c 0
 651 664 622 666 573 676 c 1
 553 750 l 1
 606 734 637 729 680 729 c 0
 858 729 983 858 983 1042 c 0
 983 1237 864 1339 643 1339 c 0
 573 1339 514 1331 442 1315 c 1
 442 246 l 2
 442 84 453 67 547 61 c 2xba
 645 55 l 1
 645 -6 l 1
 524 -2 450 0 344 0 c 0x7a
 238 0 166 -2 45 -6 c 1xba
 45 55 l 1
 143 61 l 2
 237 67 248 84 248 246 c 2
 248 1165 l 2x76
 248 1317 231 1344 139 1350 c 2
 47 1356 l 1
 47 1417 l 1x7a
EndSplineSet
AlternateSubs2: "'ssty' Math Script Style lookup 4 subtable" glyph3697 glyph3723
EndChar

StartChar: Sigma
Encoding: 931 931 246
Width: 1122
GlyphClass: 2
Flags: HMW
TopAccentHorizontal: 705
TopRightVertex: 1  1411,205
BottomRightVertex: 1  0,100
HStem: -8 43G<92 92> 0 156<575 775> 1319 76 1370 41G<1196 1196>
LayerCount: 2
Fore
SplineSet
1317 395 m 1x60
 1305 260 1298 127 1296 -8 c 1
 1087 -4 879 0 672 0 c 0x60
 479 0 287 -4 92 -8 c 1
 92 31 l 1
 194 142 485 563 557 696 c 1
 424 923 283 1151 127 1362 c 1
 127 1395 l 1xa0
 483 1397 842 1395 1196 1411 c 1x50
 1204 1399 l 1
 1190 1303 1186 1202 1180 1106 c 1
 1174 1098 l 1
 1137 1098 l 1
 1124 1106 l 1
 1097 1288 1092 1319 891 1319 c 2
 373 1319 l 1
 482 1147 590 971 711 805 c 1
 566 596 426 377 295 156 c 1
 1028 156 l 2
 1223 156 1227 227 1266 395 c 1
 1274 401 l 1
 1311 401 l 1
 1317 395 l 1x60
EndSplineSet
AlternateSubs2: "'ssty' Math Script Style lookup 4 subtable" glyph3660 glyph3669
EndChar

StartChar: Tau
Encoding: 932 932 247
Width: 1214
GlyphClass: 2
Flags: HMW
TopAccentHorizontal: 627
TopRightVertex: 1  1417,205
BottomRightVertex: 1  0,100
HStem: -6 43G<328 328 928 928> 0 61 1087 324 1317 94<453 522 733 776 776 820 453 1051 733 733> 1376 41G<37 37>
VStem: 51 68 530 195<246 1112> 1137 68
CounterMasks: 1 38
LayerCount: 2
Fore
SplineSet
776 1411 m 2x67
 864 1411 822 1411 1219 1417 c 1x67
 1209 1300 1204 1220 1204 1087 c 1
 1141 1087 l 1x57
 1133 1249 l 2
 1131 1298 1108 1317 1051 1317 c 2
 733 1317 l 1
 727 1249 725 1204 725 1112 c 2
 725 246 l 2
 725 84 735 67 829 61 c 2xa7
 928 55 l 1
 928 -6 l 1
 807 -2 733 0 627 0 c 0x67
 521 0 449 -2 328 -6 c 1xa7
 328 55 l 1
 426 61 l 2
 520 67 530 84 530 246 c 2
 530 1112 l 2
 530 1200 528 1247 522 1317 c 1
 205 1317 l 2x57
 148 1317 125 1298 123 1249 c 2
 115 1087 l 1
 51 1087 l 1x67
 51 1220 47 1300 37 1417 c 1x4f
 176 1415 l 2
 321 1413 433 1411 453 1411 c 2
 776 1411 l 2x67
EndSplineSet
AlternateSubs2: "'ssty' Math Script Style lookup 4 subtable" glyph3701 glyph3727
EndChar

StartChar: Upsilon
Encoding: 933 933 248
Width: 1244
GlyphClass: 2
Flags: HMW
TopAccentHorizontal: 756
TopRightVertex: 1  1415,205
BottomRightVertex: 1  0,0
HStem: -8 43G<469 469 1034 1034> 1274 141<268 403>
VStem: 662 72<647 647 647 655>
LayerCount: 2
Fore
SplineSet
1505 1155 m 2
 1503 1118 l 1
 1470 1100 l 1
 1452 1211 1389 1268 1278 1268 c 0
 1194 1268 1114 1227 1053 1174 c 0
 863 1012 844 700 844 469 c 0
 844 408 837 117 866 84 c 0
 889 59 999 57 1034 55 c 1
 1040 49 l 1
 1040 0 l 1
 1034 -8 l 1
 940 -4 846 0 748 0 c 0
 656 0 563 -2 469 -8 c 1
 461 0 l 1
 461 49 l 1
 469 55 l 1
 500 55 619 57 639 84 c 0
 666 121 662 406 662 469 c 2
 662 547 l 2
 662 764 545 1274 262 1274 c 0
 151 1274 94 1206 41 1120 c 1
 23 1118 l 1
 6 1143 l 1
 74 1293 180 1415 356 1415 c 0
 704 1415 723 895 733 647 c 1
 784 647 l 1
 809 944 873 1415 1270 1415 c 0
 1430 1415 1513 1309 1505 1155 c 2
EndSplineSet
AlternateSubs2: "'ssty' Math Script Style lookup 4 subtable" glyph3661 glyph3670
EndChar

StartChar: Phi
Encoding: 934 934 249
Width: 1608
GlyphClass: 2
Flags: HMW
TopAccentHorizontal: 764
TopRightVertex: 1  1411,205
BottomRightVertex: 1  0,-10
HStem: -8 43G<500 500 1028 1028> 0 55<487 500> 236 47<520 686> 1147 51<524 686> 1350 55<487 500> 1370 41G<500 500 1028 1028>
VStem: 47 203<596 881 596 926> 686 158<214 236 214 236 283 1147> 1278 203<597 878>
LayerCount: 2
Fore
SplineSet
1481 762 m 0x7b80
 1481 361 1202 236 844 236 c 1
 844 193 838 119 858 82 c 1
 891 59 991 57 1028 55 c 1
 1038 49 l 1
 1038 0 l 1x7b80
 1028 -8 l 1
 940 -4 852 0 764 0 c 0xbb80
 678 0 588 -2 500 -8 c 1x7b80
 487 0 l 1
 487 49 l 1
 500 55 l 1
 686 67 686 43 686 236 c 1
 354 236 47 352 47 733 c 0
 47 1118 362 1198 686 1198 c 1
 680 1370 662 1340 500 1350 c 1
 487 1356 l 1
 487 1405 l 1x7780
 500 1411 l 1
 588 1407 678 1405 764 1405 c 0x7b80
 852 1405 940 1407 1028 1411 c 1x7780
 1038 1405 l 1
 1038 1356 l 1
 1028 1350 l 1
 864 1340 848 1368 844 1198 c 1
 1145 1198 1481 1137 1481 762 c 0x7b80
1278 735 m 0
 1278 1020 1114 1143 844 1147 c 1
 844 283 l 1
 1120 291 1278 459 1278 735 c 0
686 283 m 1
 686 1147 l 1
 407 1137 250 1028 250 733 c 0
 250 459 410 291 686 283 c 1
EndSplineSet
AlternateSubs2: "'ssty' Math Script Style lookup 4 subtable" glyph3662 glyph3671
EndChar

StartChar: Chi
Encoding: 935 935 250
Width: 1170
GlyphClass: 2
Flags: HMW
TopAccentHorizontal: 678
TopRightVertex: 1  1434,205
BottomRightVertex: 1  0,100
HStem: -6 43G<29 29 240 240 1030 1030 1327 1327> 1370 41G<1102 1309 1309 1309> 1393 41G<344 344>
LayerCount: 2
Fore
SplineSet
1327 55 m 1xc0
 1327 -6 l 1
 1239 -2 1192 0 1182 0 c 0
 1157 0 1157 0 1030 -6 c 1
 653 621 l 1
 602 549 581 520 561 489 c 2
 240 -6 l 1
 152 0 151 0 135 0 c 0
 119 0 119 0 29 -6 c 1
 29 55 l 1
 82 61 l 2
 127 67 152 90 203 160 c 0
 207 166 209 166 215 176 c 2
 602 698 l 1
 340 1135 l 2
 272 1248 201 1315 152 1319 c 2
 59 1325 l 1
 55 1378 l 1
 344 1434 l 1xa0
 383 1414 414 1378 461 1300 c 2
 723 858 l 1
 1102 1411 l 1
 1309 1411 l 1
 1309 1350 l 1
 1225 1343 l 2
 1194 1339 1169 1315 1085 1204 c 2
 770 778 l 1
 1130 205 l 2
 1202 94 1227 67 1266 61 c 2
 1327 55 l 1xc0
EndSplineSet
AlternateSubs2: "'ssty' Math Script Style lookup 4 subtable" glyph3705 glyph3731
EndChar

StartChar: Psi
Encoding: 936 936 251
Width: 1603
GlyphClass: 2
Flags: HMW
TopAccentHorizontal: 891
TopRightVertex: 1  1411,205
BottomRightVertex: 1  0,-20
HStem: -8 43G<608 608 1174 1174> 0 483<602 801 765 936 765 1182> 424 59<801 801 981 981> 1370 41G<49 49 608 608 1174 1174 1731 1731>
VStem: 801 180<416 424 416 424 483 952 952 958>
LayerCount: 2
Fore
SplineSet
1745 1376 m 1x58
 1737 1362 l 1
 1635 1325 1639 1352 1614 1219 c 0
 1544 783 1516 434 981 424 c 1x58
 981 408 971 111 1012 80 c 0
 1039 60 1139 57 1174 55 c 1
 1182 49 l 1
 1182 0 l 1xb8
 1174 -8 l 1
 1078 -4 983 0 889 0 c 0x58
 795 0 702 -2 608 -8 c 1xb8
 602 0 l 1x58
 602 49 l 1
 608 55 l 1
 643 57 751 57 776 84 c 0
 805 115 801 381 801 424 c 1xb8
 299 428 229 756 174 1176 c 0
 154 1350 137 1331 45 1362 c 1
 37 1376 l 1
 41 1401 l 1
 49 1411 l 1
 94 1405 286 1393 317 1368 c 0
 387 1313 346 703 588 535 c 0
 649 494 729 483 801 483 c 1
 801 952 l 2
 801 1013 807 1286 776 1321 c 0
 753 1348 643 1348 608 1350 c 1
 602 1356 l 1
 602 1405 l 1
 608 1411 l 1
 702 1407 795 1405 889 1405 c 0
 983 1405 1078 1407 1174 1411 c 1
 1182 1405 l 1
 1182 1356 l 1
 1174 1350 l 1
 1141 1348 1026 1348 1006 1321 c 0
 977 1286 981 1019 981 958 c 2
 981 483 l 1
 1053 483 1133 494 1192 535 c 0
 1438 703 1394 1313 1466 1368 c 0
 1493 1391 1690 1405 1731 1411 c 1
 1743 1401 l 1
 1745 1376 l 1x58
EndSplineSet
AlternateSubs2: "'ssty' Math Script Style lookup 4 subtable" glyph3652 glyph3672
EndChar

StartChar: Omega
Encoding: 937 937 252
Width: 1391
GlyphClass: 2
Flags: HMW
TopAccentHorizontal: 844
TopRightVertex: 1  1442,205
BottomRightVertex: 1  0,100
HStem: -12 166 1386 55<664 1057>
VStem: 104 215<668 951 627 1043> 1370 217<667 940>
LayerCount: 2
Fore
SplineSet
1620 297 m 1
 1606 195 1591 90 1585 -12 c 1
 1374 -4 1159 -4 948 0 c 1
 948 139 l 1
 1274 182 1370 477 1370 766 c 0
 1370 1114 1255 1386 858 1386 c 0
 469 1386 319 1130 319 772 c 0
 319 481 411 182 741 139 c 1
 741 0 l 1
 530 -6 317 -4 106 -12 c 1
 96 90 84 195 70 297 c 1
 78 303 l 1
 109 303 l 1
 115 297 l 1
 142 191 141 154 264 154 c 2
 528 154 l 1
 528 168 l 1
 254 283 104 520 104 815 c 0
 104 1272 446 1442 858 1442 c 0
 1266 1442 1587 1257 1587 815 c 0
 1587 518 1435 283 1161 168 c 1
 1161 154 l 1
 1425 154 l 2
 1548 154 1548 188 1575 297 c 1
 1583 303 l 1
 1612 303 l 1
 1620 297 l 1
EndSplineSet
AlternateSubs2: "'ssty' Math Script Style lookup 4 subtable" glyph3653 glyph3673
EndChar

StartChar: Iotadieresis
Encoding: 938 938 253
Width: 664
GlyphClass: 2
Flags: HMW
HStem: -6 43G<102 102 702 702> 0 61 1350 68 1370 41G<350 455> 1491 186<114 161 111 162 637 684>
VStem: 45 184<1559 1609> 102 397<-6 246 55 246> 305 195<246 1165> 305 397<-6 1165> 567 184<1560 1612 1560 1612>
LayerCount: 2
Fore
SplineSet
45 1585 m 0x6d40
 45 1632 82 1677 139 1677 c 0
 182 1677 229 1642 229 1585 c 0
 229 1528 184 1491 139 1491 c 0
 88 1491 45 1532 45 1585 c 0x6d40
567 1585 m 0
 567 1638 608 1677 659 1677 c 0
 708 1677 752 1638 752 1585 c 0
 752 1534 708 1491 659 1491 c 0
 614 1491 567 1526 567 1585 c 0
500 1165 m 2x6a40
 500 246 l 2
 500 84 510 67 604 61 c 2x6d40
 702 55 l 1
 702 -6 l 1
 581 -2 507 0 401 0 c 0xaa40
 295 0 223 -2 102 -6 c 1
 102 55 l 1x6d40
 201 61 l 2
 295 67 305 84 305 246 c 2
 305 1165 l 2x6a40
 305 1327 295 1344 201 1350 c 2
 102 1356 l 1
 102 1417 l 1
 249 1413 299 1411 401 1411 c 0x5d40
 507 1411 552 1411 702 1417 c 1
 702 1356 l 1x6c80
 604 1350 l 2
 510 1344 500 1327 500 1165 c 2x6a40
EndSplineSet
EndChar

